<?xml version="1.0" encoding="UTF-8"?>
<svg id="a" xmlns="http://www.w3.org/2000/svg" viewBox="0 0 48 48">
  <defs>
    <style>
      .cls-1 {
        fill: #231815;
      }

      .cls-2 {
        opacity: .8;
      }
    </style>
  </defs>
  <g class="cls-2">
    <path class="cls-1" d="M40.32,43.91c.2-.6.18-1.94-.12-3.35-.28-1.41-.79-2.86-1.06-3.75-.24-.68-.42-1.2-.54-1.6-.1-.34.19.42.54,1.6.18.52.39,1.13.61,1.85-.13-.95-.31-1.87-.42-2.53-.18-.44-.37-.9-.55-1.36-.83-2.02-1.74-3.92-2.6-5.9-.31-.72-1.08-2.24-1.36-2.95,1.44,2.82,2.81,5.69,4.07,8.59-.02-.08-.05-.16-.08-.25-.63-1.55-1.28-3.08-1.96-4.61-.12-.26-.24-.52-.35-.79l.35.79c.34.66.67,1.3,1.04,2.02.2.46.39,1,.58,1.46.15.38.23.75.34,1.13l.28.69c.04.06.08.13.11.2h0c.04-.37-.44-2.05-1.06-3.73-.61-1.69-1.34-3.38-1.62-3.83-.42-.72-1.05-1.25-1.52-2.05-.16-.27-.2-.54-.38-.71-.05,0-.14-.09-.23-.17-.32-.53-.45-1.16-.81-1.5-.21-.26.02-1.45-.14-1.44-.59.03-.16,0-.5-.7-.04-.09-.38-.25-.45-.43-.2-.62-.46-.7-.87-1.3-.69-.86-.53-1.23-1.31-1.9-.09-.09-1.05-1.28-1.05-1.28-.56-1.04-1.18-1.53-1.33-2.52-.83-.74-1.25-2.15-1.9-3.09-.65-.93-.68-1.48-1.01-2.44-.12-.26-.25-.43-.28-.61-.03-.18-.42-.41-.54-.67l.16-.02c-.04-.09-.12-.26-.16-.35-.04-.09.01-.09.07-.1.11-.01.21-.02.19-.2-.14-.38-.3-.76-.49-1.13-.28-.31-.57-.6-.86-.89-.07.02-.14.03-.21.01l-.28-.24c-.16.02-.28.12-.39.13-.35.22-.95.01-1.2.31-.07.1.27.7.27,1.06-.01.09-.21.02-.37.04.21.34.09.44-.11.37.04.09.08.17.08.17-.05,0-.21.02-.21.02.39.96.7,2.1,1.38,2.84.13.17.41.41.6.57.09.08.16.35.2.43.2.07.32-.03.48-.05.27.7.88,2.17,1.3,1.86.29.51.56.49.9,1,.46.67,1.03,1.53,1.57,2.39.32.46.59.92.86,1.38.1.17.21.34.3.5,2.11,3.44,3.23,6.22,5.42,9.5,2.22,3.31,3.95,7.13,5.09,10.33.57,1.6.92,3.05,1.1,4.21.18,1.15.18,2,.2,2.45l.22.51Z"/>
  </g>
  <g class="cls-2">
    <path class="cls-1" d="M8,27.27c-.34.64-.69,2.16-.76,3.78-.09,1.63.17,3.33.41,4.34.21.77.41,1.36.58,1.79.15.37-.29-.45-.58-1.79-.16-.59-.3-1.3-.39-2.14-.04,1.07.05,2.12.17,2.88.18.52.4,1.04.65,1.55,1.15,2.24,3.08,3.98,5.44,4.93.43.16,1.14.38,1.88.46.74.08,1.49.06,1.95.02-1.91.3-3.88-.18-5.49-1.14-1.62-.96-2.96-2.35-3.87-3.97.04.09.08.18.12.28.97,1.71,2.42,3.17,4.2,4.12.3.16.62.3.95.44-.32-.13-.65-.27-.95-.44-.8-.4-1.55-.85-2.29-1.48-.45-.4-.86-.95-1.23-1.42-.29-.39-.48-.81-.67-1.22-.13-.26-.29-.51-.4-.78l-.14-.23h0c-.05.41.71,2.43,2.32,4.01.78.79,1.73,1.46,2.6,1.88.87.43,1.63.6,1.97.65,1.09.15,2.11-.14,3.23-.41.38-.09.72-.1.98-.26.01-.05.14-.13.27-.22.7-.28,1.46-.48,1.87-.93.3-.23,1.69-.33,1.67-.52-.11-.62-.02-.15.72-.8.1-.07.2-.5.37-.65.62-.5.63-.79,1.1-1.54.31-.58.55-.9.75-1.21.21-.31.4-.62.51-1.21,0-.07.19-.52.32-.97.13-.45.26-.87.26-.87.55-1.27.56-2.15,1.19-3.09,0-1.27.7-2.8.8-4.13.1-1.31.41-1.83.71-2.97.05-.33.04-.58.13-.76.09-.19-.11-.66-.06-.99l.14.09c.02-.11.05-.33.06-.44.02-.11.06-.08.11-.05.09.06.19.11.27-.08.09-.46.16-.93.21-1.41-.08-.48-.16-.95-.26-1.41-.07-.03-.13-.06-.19-.12l-.12-.41c-.15-.08-.3-.05-.4-.1-.41,0-.82-.55-1.19-.4-.11.06-.13.84-.32,1.19-.06.08-.19-.1-.34-.18,0,.45-.15.48-.28.3-.01.11-.02.21-.02.21-.05-.03-.19-.1-.19-.1-.17,1.14-.53,2.39-.39,3.49.01.24.1.63.16.89.03.13-.07.41-.09.52.12.19.28.18.41.26-.19.81-.65,2.49-.14,2.51-.11.64.11.81,0,1.48-.11.9-.35,2.02-.65,3.1-.15.6-.34,1.16-.56,1.71-.07.21-.15.41-.24.6-.86,2.05-1.95,3.68-3.26,5-1.32,1.31-2.81,2.39-4.76,2.97-1.99.58-4.33-.05-6-1.38-1.73-1.3-2.79-3.19-3.27-4.98-.49-1.8-.48-3.48-.36-4.8.12-1.32.36-2.29.46-2.81l-.08-.64Z"/>
  </g>
</svg>