<?xml version="1.0" encoding="UTF-8"?>
<svg id="a2" xmlns="http://www.w3.org/2000/svg" viewBox="0 0 48 24">
  <defs>
    <style>
      .cls-1 {
        fill: #231815;
      }

      .cls-2 {
        opacity: .8;
      }
    </style>
  </defs>
  <g class="cls-2">
    <path class="cls-1" d="M15.73,18.39c.26-.39.08-.66.14-.9,0-.07,0-.13.02-.18.02-.05.01.03-.02.18,0,.05,0,.11.02.18.1-.18.2-.36.29-.5-.01-.03-.03-.07-.03-.11-.04-.16-.13-.29-.13-.48,0-.07-.06-.17-.01-.27.09.2.19.4.29.6,0-.01,0-.02.01-.04l-.05-.4s-.01-.04,0-.07v.07s.1.05.14.09c.01.03-.02.11,0,.14,0,.03-.04.11-.07.16v.06s.03,0,.03,0h0c.26-.29.43-.95.34-.95-.07-.01-.35.14-.42.11-.02,0,.04-.07-.03-.04-.04.03-.07.04-.11.06-.04-.02.08-.16-.06-.1-.06.02.55-.48.42-.4-.45.29-.12.08-.11.01,0-.01-.18.09-.17.07.09-.11-.07-.02-.15-.02-.18.03.09-.16-.23-.03-.03.01-.27.04-.27.04,0-.09-.26,0,.03-.25-.32.11-.04-.18-.13-.21-.09-.04.12-.2.29-.36.02-.03,0-.03.05-.08.06-.04-.13.03-.11,0l.13-.06s.02-.03.03-.04c0-.01.05-.03.09-.05.09-.04.17-.09.23-.13.06-.06.11-.11.13-.15-.07.01-.16.03-.25.05-.06.03-.12.06-.17.08l-.11.03c-.13.06-.27.13-.36.18-.37.19-.74.34-1.07.51-.1.05-.1.11-.27.22-.05.03-.17.08-.31.14.01.03-.12.1-.25.15,0,.01-.01.02-.01.02-.04.02-.18.08-.18.08-.12.16-.39.41-.19.39.03,0,.14-.02.21-.04.04,0-.03.05-.03.06.12-.05.26-.13.39-.2-.1.12-.25.36.19.1,0,.05.22-.06.26-.03.07.03.13.09.19.14.05.02.07.06.09.09l.03.03c.21.23,0,.66.51.67.98,0,.5,1.24.54,1.45l.16-.09Z"/>
  </g>
  <g class="cls-2">
    <path class="cls-1" d="M22.67,9.88c.39-.27.32-.68.45-.92.02-.08.04-.14.08-.2.03-.05,0,.04-.08.2-.01.06-.03.13-.04.21.16-.15.31-.3.44-.41,0-.05,0-.1,0-.15,0-.22-.04-.41,0-.65.02-.09-.01-.24.05-.34l.14.9s.02-.02.03-.03l.05-.52s0-.06,0-.09v.09c0,.07.07.12.1.19,0,.05-.05.12-.05.17,0,.04-.07.1-.12.16v.08s.01,0,.02.01h0c.35-.18.68-.91.58-.98-.07-.06-.39-.03-.45-.1-.02-.02.05-.07-.02-.07-.05.01-.08.01-.12.01-.04-.05.11-.16-.04-.16-.07-.01.65-.33.51-.29-.51.14-.14.04-.12-.05,0-.01-.21.03-.19,0,.11-.1-.07-.06-.15-.11-.19-.05.12-.17-.23-.16-.04,0-.29-.07-.29-.07.01-.12-.26-.11.07-.3-.34,0-.01-.24-.1-.33-.09-.08.15-.2.34-.36.03-.04,0-.05.06-.08.06-.04-.14-.01-.12-.05l.14-.03s.03-.04.04-.05c0-.01.06-.02.1-.03.09-.02.19-.05.25-.08.07-.06.12-.11.15-.16-.08-.02-.17-.03-.27-.04-.06.01-.13.03-.18.04h-.11c-.14.04-.29.08-.39.1-.39.11-.79.18-1.15.29-.1.03-.12.11-.29.19-.06.02-.19.04-.33.08.01.04-.14.08-.27.1,0,.01-.02.02-.02.02-.05.01-.19.04-.19.04-.14.14-.45.35-.24.39.03.01.14.02.22.02.04,0-.04.05-.04.06.13-.02.28-.07.42-.1-.12.11-.31.33.18.18,0,.06.23,0,.27.05.06.06.12.15.17.24.05.04.06.09.07.14l.02.05c.17.36-.13.75.36,1,.99.48.11,1.66.06,1.88h.19Z"/>
  </g>
  <g class="cls-2">
    <path class="cls-1" d="M29.92,18.66c.47-.04.44-.34.48-.58,0-.07,0-.14.01-.2.01-.05.02.04-.01.2,0,.06,0,.12,0,.18.13-.16.24-.35.32-.5-.02-.04-.04-.09-.06-.14-.09-.22-.24-.38-.3-.61-.02-.09-.12-.21-.09-.32.14.24.35.49.55.78,0-.01,0-.03,0-.04l-.21-.52s-.03-.05-.03-.08l.03.08c.05.06.13.07.2.13.03.05.02.14.05.19.02.04-.02.13-.03.2l.03.08s.02,0,.03,0h0c.26-.32.14-1.21.05-1.19-.08-.01-.35.16-.43.13-.03-.01.03-.08-.04-.05-.04.03-.07.05-.11.06-.05-.02.06-.18-.08-.12-.07.01.52-.52.4-.43-.44.3-.12.08-.11,0,0-.01-.19.09-.17.07.08-.12-.08-.02-.16-.04-.19.01.09-.17-.24-.07-.04.01-.29,0-.29,0,0-.11-.27-.06.03-.29-.34.05-.03-.22-.12-.29-.09-.07.15-.2.35-.34.03-.03,0-.04.07-.07.07-.03-.14,0-.11-.04l.14-.03s.03-.03.04-.04c.01,0,.06-.02.1-.03.09-.02.19-.04.26-.07.07-.04.13-.08.17-.12-.08,0-.16-.01-.26-.02-.07.01-.13.02-.18.03h-.11c-.14.02-.3.05-.39.06-.4.08-.8.1-1.17.18-.11.02-.13.1-.31.17-.06.02-.19.03-.34.05,0,.05-.14.08-.28.09,0,.01-.02.03-.02.03-.05,0-.19.03-.19.03-.15.16-.45.41-.24.5.03.02.15.04.23.05.04,0-.03.06-.04.08.13-.02.28-.07.42-.1-.11.13-.28.42.21.23,0,.08.23,0,.28.06.07.07.15.17.22.27.06.04.08.1.11.16l.04.06c.25.37.14.92.75,1.02.59.06.83.4.82.75,0,.17-.09.3-.19.37-.05.03-.1.06-.14.07.01,0,.02,0,.02,0h.07Z"/>
  </g>
</svg>