<?xml version="1.0" encoding="UTF-8"?>
<svg id="b" xmlns="http://www.w3.org/2000/svg" viewBox="0 0 48 48">
  <defs>
    <style>
      .cls-1 {
        fill: #231815;
      }

      .cls-2 {
        opacity: .8;
      }
    </style>
  </defs>
  <g class="cls-2">
    <path class="cls-1" d="M34.86,41.53c.81-.51,2.05-1.37,3.44-2.52,1.37-1.15,2.89-2.62,4.01-4.41,1.13-1.78,1.8-3.91,1.97-5.9.19-1.99-.11-3.8-.49-5.11-.63-2.02-1.54-3.4-2.3-4.34-.34-.39-.08-.16.47.57.54.73,1.33,2.03,1.83,3.77.47,1.53.75,3.44.47,5.65.52-2.73.06-5.51-.68-7.35-.61-1.32-1.46-2.55-2.53-3.6-2.36-2.32-5.52-3.62-8.71-4.07-3.21-.45-6.46-.16-9.64.54-1.16.25-2.97.78-4.7,1.51-1.74.72-3.36,1.68-4.33,2.3,4-2.75,8.74-4.22,13.51-4.64,2.39-.2,4.84-.09,7.19.51,2.34.59,4.59,1.69,6.41,3.31l-.58-.53c-2-1.6-4.43-2.64-6.93-3.12-2.51-.49-5.09-.48-7.61-.16-.85.12-1.71.27-2.59.44.86-.18,1.72-.33,2.59-.44,2.23-.3,4.45-.44,6.92-.11,1.52.22,3.22.76,4.61,1.41,1.14.53,2.1,1.2,3,1.98.6.48,1.15,1.01,1.66,1.59.16.16.31.34.47.53,0,0-.01-.02-.02-.03-.22-.42-1.15-1.75-2.92-3.03-1.74-1.29-4.35-2.41-7.11-2.82-5.58-.9-11.19.72-12.68,1.3-2.42.94-4.43,2.25-6.71,3.97-.76.58-1.43,1.05-1.93,1.6-.02.09-.26.37-.49.65-1.34,1.34-2.61,2.82-3.22,4.18-.23.46-.85,1.23-1.34,1.99-.52.75-.89,1.47-.87,1.59.13.47.16.54.05.78-.11.24-.35.66-.6,1.89-.07.3.01,1.3-.04,1.89-.13,1.01-.09,1.68-.01,2.37.09.69.24,1.42.52,2.55.5,1.65.9,2.64,1.41,3.56.53.88,1.17,1.8,2.67,2.53.16.09,1.45.76,2.83.66.67-.03,1.3-.21,1.73-.39.44-.18.7-.33.7-.33,1.72-.85,2.7-2.04,3.55-3.1.84-1.09,1.52-2.16,2.3-3.36.58-1.54,1.25-3.31,1.77-5.15.53-1.84.92-3.76,1.08-5.47.28-3.43.55-4.85.81-7.85.04-.86.01-1.5.08-1.99.07-.5-.14-1.71-.13-2.57l.15.21c0-.29.01-.86.02-1.15,0-.29.05-.22.1-.15.1.14.21.28.26-.23.03-1.21.02-2.47-.09-3.77-.22-1.27-.51-2.52-.9-3.73-.08-.06-.16-.12-.26-.28-.14-.35-.26-.71-.41-1.05-.2-.17-.33-.05-.47-.17-.38.11-1.26-1.17-1.49-.69-.04.16.57,2.09.55,3.02-.01.22-.25-.23-.44-.39.27,1.13.1,1.23-.11.79.04.27.08.53.08.53-.06-.06-.24-.23-.24-.23.42,2.86.18,6.15.38,9.1.03.63.15,1.69.22,2.39.04.35-.05,1.12-.07,1.4.13.49.28.42.43.63-.1,1.09-.25,2.8-.37,4.19-.12,1.4-.2,2.51.07,2.48-.26,1.7-.08,2.08-.43,3.84-.5,2.31-1.44,5.22-3.01,7.69-.83,1.35-1.86,2.53-3.07,3.38-.45.32-.91.57-1.37.74-1.23.49-2.5.32-3.56-.35-1.06-.65-1.82-1.69-2.33-2.83-1-2.34-1.31-4.9-1-7.36.61-4.93,3.21-9.58,7.76-13.04,4.6-3.51,10.76-5.24,16.52-4.99,2.88.15,5.68.96,7.94,2.46,2.28,1.47,3.91,3.62,4.7,5.94.82,2.31.88,4.69.48,6.76-.4,2.09-1.27,3.84-2.28,5.22-2.08,2.75-4.35,4.28-5.44,5.2l-1.21,1.21Z"/>
  </g>
</svg>