<?xml version="1.0" encoding="UTF-8"?>
<svg id="c" xmlns="http://www.w3.org/2000/svg" viewBox="0 0 48 48">
  <defs>
    <style>
      .cls-1 {
        fill: #231815;
      }

      .cls-2 {
        opacity: .8;
      }
    </style>
  </defs>
  <g class="cls-2">
    <path class="cls-1" d="M21.3,44.46c.19-.64.2-2.04.07-3.52-.12-1.48-.36-3.04-.44-4-.1-.73-.16-1.29-.18-1.72-.02-.36.07.46.18,1.72.07.56.16,1.21.27,1.98.02-.97.05-1.91.07-2.63-.08-.48-.15-.97-.23-1.47-.33-2.19-.63-4.31-.72-6.5-.04-.79-.14-2.52-.08-3.29.1,3.2.45,6.39.98,9.56,0-.09,0-.17-.01-.26-.23-1.67-.41-3.35-.53-5.03-.03-.28-.05-.57-.05-.87l.05.87c.08.74.21,1.46.34,2.26.06.5.07,1.08.15,1.58.05.41.03.8.04,1.19l.1.75.06.23h0c.13-.36.03-2.11-.04-3.91-.08-1.79-.15-3.62-.21-4.14-.12-.82-.48-1.56-.56-2.48-.02-.31.05-.57-.03-.81-.05-.02-.09-.14-.13-.26-.03-.62.14-1.24,0-1.71-.05-.34.75-1.24.61-1.31-.52-.28-.14-.08-.05-.85.02-.09-.19-.41-.15-.6.19-.63.01-.83.02-1.56-.05-1.1.31-1.29.12-2.3-.04-.12.03-1.66.03-1.66.28-1.16.19-1.94.79-2.75-.05-1.13.75-2.36,1.29-3.19.56-.84,1.16-.92,1.88-.97.2-.03.33-.08.44-.02.1.05.35-.16.53-.09l-.07.14c.05.02.15.07.2.09.05.03.02.07,0,.11-.05.08-.1.17-.05.26.15.13.28.29.42.46.22.08.45.22.67.39.06-.02.13-.04.2-.04.08.05.15.11.22.17.15-.02.28-.11.39-.11.37-.2.92.09,1.23-.15.09-.09-.19-.79-.25-1.19,0-.1.22-.02.39-.02-.27-.41-.19-.53.05-.44-.07-.11-.13-.21-.13-.21.06,0,.23-.02.23-.02-.34-.6-.82-1.24-1.51-1.73-.68-.49-1.63-.77-2.46-.63-.36.03-.91.24-1.22.42-.16.08-.55.15-.68.2-.16.23-.06.35-.07.52-.47.16-1.16.55-1.6,1.03-.46.48-.64.93-.4,1.04-.4.6-.24.84-.49,1.47-.32.86-.56,1.91-.79,2.94-.12.58-.23,1.11-.35,1.66-.04.2-.07.41-.11.6-.68,4.12-1.24,7.25-.69,11.32.58,4.28,1.12,8.26,1.61,11.8.48,3.48.48,6.16.47,7.12l.22.55Z"/>
  </g>
  <g class="cls-2">
    <path class="cls-1" d="M32.36,18.76c-.3-.47-1.39-.4-1.9-.46-.19,0-.34,0-.46-.02-.1-.01.12-.03.46.02.15,0,.32,0,.51,0-.27-.14-.54-.28-.76-.39-.12.02-.25.04-.39.06-.58.1-1.12.31-1.69.47-.22.05-.63.28-.86.32.77-.44,1.59-.76,2.44-.98-.02,0-.05,0-.08-.01-.46.07-.92.18-1.37.32-.07.03-.15.06-.23.08l.23-.08c.19-.09.36-.21.56-.31.14-.04.31-.03.45-.07.11-.02.24.03.36.05l.21-.03s.04-.03.06-.04h0c-.13-.17-.67-.25-1.22-.22-.55.03-1.09.19-1.21.3-.2.17-.23.55-.43.72-.07.06-.18.03-.19.13.02.04.01.09,0,.14-.13.12-.38.08-.4.28-.03.1-.74-.33-.67-.2.28.46.08.12-.13.24-.03.01.05.23,0,.25-.23.03-.14.2-.26.4-.1.34-.4.17-.33.6,0,.05-.1.52-.1.52-.24.23-.14.55-.6.55.11.42-.43.56-.52.88-.1.31-.39.31-.72.49-.07.06-.07.13-.15.15-.09.02.06.21,0,.27l-.13-.07s-.06.07-.08.09c-.02.02-.06,0-.11-.02-.09-.05-.17-.1-.26-.07-.12.09-.22.19-.31.3.03.15.07.29.12.44.06.03.12.05.17.08l.07.13c.13.06.29.09.38.13.39.11.74.34,1.11.41.11.02.19-.14.4-.16.06,0,.18.08.31.13.03-.09.18-.05.29.02.02-.02.03-.03.03-.03.04.02.18.08.18.08.24-.17.65-.27.56-.53,0-.05-.08-.16-.12-.24-.02-.04.08-.06.1-.07-.11-.09-.25-.15-.38-.22.2-.1.58-.29.12-.52.08-.11-.11-.25-.06-.39.06-.19.17-.42.3-.63.05-.13.14-.23.21-.34.03-.04.06-.08.08-.11.61-.81,1.38-.97,1.94-1.82.6-.87,1.7-1.22,2.57-1.2.88,0,1.53.3,1.75.35l.13-.19Z"/>
  </g>
</svg>