<?xml version="1.0" encoding="UTF-8"?>
<svg id="d" xmlns="http://www.w3.org/2000/svg" viewBox="0 0 48 48">
  <defs>
    <style>
      .cls-1 {
        fill: #231815;
      }

      .cls-2 {
        opacity: .8;
      }
    </style>
  </defs>
  <g class="cls-2">
    <path class="cls-1" d="M9.39,30.39c.21.85,1.18,2.54,2.6,4.04,1.4,1.52,3.15,2.87,4.21,3.7.83.6,1.46,1.06,1.95,1.43.41.29-.57-.33-1.95-1.43-.63-.47-1.37-1.03-2.2-1.73.94.99,1.91,1.9,2.61,2.55.57.39,1.16.78,1.77,1.15,1.34.81,2.74,1.52,4.24,1.97,1.49.45,3.09.64,4.69.39.58-.09,1.5-.34,2.32-.85.83-.5,1.45-1.3,1.75-1.81-.57,1.13-1.63,1.98-2.77,2.41-1.14.45-2.36.56-3.54.49-2.39-.15-4.58-1.12-6.56-2.27l.31.21c2.08,1.22,4.43,2.24,7.01,2.24.43,0,.87-.04,1.32-.09-.44.05-.88.09-1.32.09-1.13.02-2.23-.09-3.4-.42-.72-.22-1.49-.59-2.15-.91-.54-.26-.99-.59-1.46-.91-.31-.19-.62-.37-.92-.57-.09-.05-.2-.1-.3-.16h0c.29.39,2.27,2,4.89,2.92,1.3.45,2.75.69,3.97.61,1.22-.04,2.2-.38,2.6-.58,1.32-.61,2.24-1.84,2.79-3.26.19-.48.38-.87.39-1.26-.04-.05-.04-.24-.04-.43.12-.95.28-1.91.06-2.62-.09-.49.46-1.97.29-2.06-.6-.28-.15-.08-.36-1.24-.02-.14-.34-.54-.39-.81-.13-.95-.38-1.17-.78-2.18-.69-1.45-.51-1.89-1.36-3.07-.1-.18-1.19-2.07-1.19-2.07-.68-1.58-1.39-2.4-1.66-3.76-.99-1.22-1.61-3.2-2.45-4.61-.84-1.41-.94-2.14-1.49-3.51-.19-.38-.38-.63-.45-.88-.07-.25-.57-.63-.78-1h.18c-.07-.12-.22-.36-.29-.49-.07-.12-.01-.12.05-.12.12,0,.24,0,.15-.24-.29-.54-.62-1.07-1.01-1.6-.48-.45-1-.88-1.56-1.25-.07.02-.15.04-.26.03-.17-.1-.35-.19-.53-.28-.18.05-.24.2-.36.23-.25.31-1.08.25-1.12.67,0,.11.76.69.92,1.12.03.11-.22.06-.39.11.39.35.3.49.05.44.08.09.16.18.16.18-.06.01-.22.06-.22.06.79,1,1.41,2.45,2.3,3.47.18.23.53.58.76.82.12.12.23.47.29.59.23.13.35.02.53.04.4.95,1.25,3.06,1.68,2.76.38.76.68.79,1.11,1.56.59,1.01,1.3,2.3,1.97,3.6.39.7.71,1.39,1.04,2.09.12.26.24.51.35.75,1.21,2.61,2.04,4.98,2.6,7.35.28,1.18.5,2.39.62,3.59.1,1.19.11,2.44-.32,3.58-.41,1.16-1.48,2.02-2.78,2.39-1.29.38-2.71.37-4.04.08-2.68-.6-4.98-2.12-6.94-3.56-1.96-1.45-3.54-2.92-4.63-4.2-1.09-1.28-1.71-2.34-2.03-2.91l-.55-.56Z"/>
  </g>
  <g class="cls-2">
    <path class="cls-1" d="M34.72,26.49c.32-.69-.11-2.79-.24-3.73-.06-.36-.11-.63-.13-.84-.02-.18.08.22.13.84.06.28.12.59.19.96.05-.51.1-1,.15-1.36-.06-.24-.14-.47-.2-.71-.29-1.06-.69-2.05-1.04-3.09-.11-.39-.5-1.16-.59-1.55.71,1.45,1.3,2.95,1.8,4.48,0-.04,0-.09-.01-.13-.21-.82-.47-1.63-.76-2.44-.06-.13-.11-.27-.15-.42l.15.42c.16.34.34.67.5,1.04.08.24.13.54.21.78.05.2.04.41.05.61l.1.37s.04.07.06.1h0c.12-.21.07-1.13-.13-2.04-.17-.92-.49-1.83-.63-2.06-.24-.37-.7-.57-.94-.98-.08-.14-.08-.29-.2-.36-.05.01-.11-.02-.17-.06-.17-.26-.17-.63-.41-.77-.13-.12.29-.92.14-.88-.52.16-.14.04-.31-.33-.02-.05-.28-.07-.31-.16-.06-.35-.28-.33-.54-.61-.45-.37-.24-.67-.81-.88-.07-.03-.7-.52-.7-.52-.33-.51-.77-.63-.77-1.24-.6-.21-.77-1.01-1.22-1.4-.44-.38-.41-.74-.61-1.27-.08-.13-.18-.19-.19-.3-.01-.11-.3-.11-.38-.24l.13-.08s-.08-.13-.11-.17c-.03-.04.02-.07.06-.1.08-.05.17-.11.16-.22-.09-.21-.2-.4-.34-.58-.21-.09-.42-.17-.64-.24-.05.04-.11.08-.16.1l-.21-.04c-.12.08-.22.21-.3.27-.27.31-.72.44-.92.77-.05.1.18.35.16.6-.01.07-.16.11-.28.2.15.13.05.26-.1.3.03.04.05.08.05.08-.04.03-.16.11-.16.11.25.46.4,1.08.86,1.28.09.05.29.09.42.12.07.01.1.16.12.2.15-.04.25-.15.38-.23.14.36.47,1.08.84.72.18.23.39.11.61.32.29.27.65.63.97,1.02.2.19.35.4.52.61.06.08.12.16.17.23,1.23,1.58,1.66,3.02,2.91,4.54,1.27,1.55,1.97,3.55,2.28,5.22.33,1.68.26,3.03.31,3.5l.24.23Z"/>
  </g>
</svg>