<?xml version="1.0" encoding="UTF-8"?>
<svg id="u2" xmlns="http://www.w3.org/2000/svg" viewBox="0 0 48 9.7">
  <defs>
    <style>
      .cls-1 {
        fill: #231815;
      }

      .cls-2 {
        opacity: .8;
      }
    </style>
  </defs>
  <g class="cls-2">
    <path class="cls-1" d="M41.88,2.67c-1.05-.39-4.53-.26-6.05-.4-.58-.02-1.03-.04-1.37-.08-.28-.03.37,0,1.37.08.45,0,.97.02,1.59.03-.78-.16-1.52-.32-2.05-.45-.39,0-.78,0-1.18,0-1.75,0-3.45.05-5.18-.02-.63-.03-2,0-2.61-.09,2.54,0,5.09-.04,7.63-.1-.07,0-.13-.02-.21-.03l-4.02-.07c-.23,0-.46,0-.69-.02l.69.02c.59,0,1.17-.08,1.82-.11.4,0,.86.06,1.26.05.33,0,.63.08.94.12h.6c.06,0,.12-.01.18-.02h0c-.51-.36-5.56-.73-6.4-.64-.66.06-1.26.39-2,.45-.25.02-.46-.06-.65.01-.02.05-.11.09-.21.13-.49.03-.99-.14-1.37.01-.27.07-1.02-.71-1.07-.56-.2.53-.05.15-.68.11-.08-.01-.32.21-.47.19-.51-.13-.66.05-1.25.12-.87.18-1.07-.16-1.84.18-.09.04-1.31.26-1.31.26-.95-.05-1.54.22-2.28-.16-.86.32-2-.07-2.91-.02-.91.05-1.29-.22-2.09-.46-.23-.04-.4-.02-.53-.09-.13-.07-.46.12-.69.08l.06-.14c-.08-.01-.23-.04-.3-.05-.08-.01-.06-.06-.04-.11.04-.1.08-.19-.05-.27-.32-.09-.64-.16-.97-.21-.33.07-.66.14-.98.22-.02.07-.04.13-.09.18l-.29.1c-.06.14-.05.3-.09.4,0,.41-.42.8-.33,1.18.04.11.59.16.83.36.06.06-.08.19-.14.33.32,0,.34.16.2.29.08.01.15.03.15.03-.02.05-.08.19-.08.19.82.2,1.73.57,2.54.4.17-.02.46-.12.65-.19.1-.03.3.05.38.07.14-.13.12-.29.18-.43.59.15,1.87.42,1.84-.1.48.03.57-.21,1.07-.23.66-.04,1.49-.06,2.31-.08.45-.03.88-.02,1.32-.02.16,0,.32,0,.47,0,3.26-.06,5.68.32,8.85-.15,6.39-.93,13.49-.1,15.08-.08l.45-.21Z"/>
  </g>
</svg>