<?xml version="1.0" encoding="UTF-8"?>
<svg id="e" xmlns="http://www.w3.org/2000/svg" viewBox="0 0 48 48">
  <defs>
    <style>
      .cls-1 {
        fill: #231815;
      }

      .cls-2 {
        opacity: .8;
      }
    </style>
  </defs>
  <g class="cls-2">
    <path class="cls-1" d="M38.11,41.51c-.38-.45-.79-1.08-1.08-1.85-.3-.76-.48-1.64-.6-2.56-.24-1.82-.38-3.95-.35-6.13.03-2.18.25-4.41.62-6.42.18-1,.39-1.95.62-2.8.12-.44.23-.84.32-1.13.1-.32.19-.62.29-.88l.1-.31.05-.15c.03-.06-.07-.04-.1-.07-.19-.06-.38-.11-.56-.16-.37-.08-.73-.14-1.07-.18-.78-.08-1.49-.1-2.09-.12-.51-.02-.17-.02.73,0,.43.01,1.1.05,1.68.13.3.04.61.1.93.19.16.04.32.09.48.15.02.13-.1.34-.15.51-.39,1.13-.94,3.17-1.29,5.36.3-1.38.67-2.7,1.07-3.9.2-.57.39-1.11.61-1.66.52-.71-.31-.72-.71-.87-1.47-.29-2.88-.22-4.32-.25-1.59-.01-3.16-.02-4.73-.04-.78,0-1.57,0-2.35-.01-.86,0-1.76-.02-2.58,0h-.63s-.32.02-.32.02h-.08s.01.05.02.07l.06.15c.16.39.35.76.55,1.13.39.72.94,1.46,1.46,2.13.97,1.22,1.86,2.48,2.43,3.9.43,1.01.94,2.74.77,4.46-.07.86-.29,1.69-.61,2.38-.32.69-.73,1.24-1.08,1.62,1.43-1.64,1.9-3.95,1.52-6.11-.37-2.19-1.52-4.17-2.96-5.93l-.59-.75c-.21-.28-.42-.56-.61-.85-.38-.58-.68-1.14-.96-1.74-.07-.15-.14-.3-.2-.46l-.05-.12s.06-.02.09-.03h.24s.98-.05.98-.05c.62-.04,1.37-.02,2.06-.02l7.01.02-.75-.03-7.68-.09c-.72.02-1.46.04-2.11.12.27.68.56,1.31.92,1.94.35.62.86,1.3,1.3,1.87.37.48.74.96,1.07,1.43.46.65.87,1.34,1.2,2.08-.33-.72-.74-1.42-1.2-2.08-.3-.42-.63-.83-.97-1.25l-.6-.76c-.22-.28-.43-.57-.62-.86-.39-.59-.69-1.17-.99-1.8l-.22-.49-.05-.13s-.06-.1,0-.09l.25-.02c.34-.03.68-.05,1.03-.08.22-.01.44-.03.67-.04.25,0,.51,0,.77,0,.5,0,1.01.02,1.53.03.78.01,1.56.03,2.28.04,1.18.01,2.27.1,3.4.15l2.17.03c.21,0,.44-.01.67-.02,0,0-.02,0-.03,0-.45-.1-1.93-.2-3.95-.3-1.01-.04-2.15-.09-3.36-.15-.71-.02-1.43-.04-2.17-.07-.48-.01-.97-.02-1.46-.03-.47,0-.86.05-1.31.08l-.65.05-.33.03h-.08s.03.08.03.08l.06.16c.16.42.33.81.5,1.21.32.77.78,1.6,1.37,2.4.43.58.85,1.14,1.25,1.68.33.46.62.89.87,1.33,1.02,1.73,1.31,3.23,1.42,3.87.32,2.04.23,4.17-1.48,5.97-.57.59-1.18.95-1.68,1.37-.02.08-.28.28-.54.48-1.47.88-3.16,1.2-4.41,1.52-.45.11-1.34,0-2.08-.2-.75-.19-1.3-.47-1.39-.41-.36.19-.42.21-.6.11-.18-.1-.5-.28-1.28-.81-.18-.12-.93-.42-1.24-.81-.5-.64-.79-1.07-1.09-1.55-.29-.48-.6-1.01-.86-1.95-.4-1.4-.34-2.33-.27-3.18.09-.86.19-1.66.41-3,.03-.16.31-1.27.76-2.29.43-1.02.97-1.96.97-1.96.93-1.4,1.78-2.48,2.65-3.42.88-.93,1.78-1.72,2.93-2.4,1.09-1.07,2.59-2.06,4.2-2.89,1.61-.84,3.32-1.49,4.84-2.08,1.05-.41,1.92-.65,2.7-.84l3.68-.89-3.82-.45c-1.57-.19-2.82-.42-4.73-.63-.83-.06-1.46-.05-1.95-.13-.49-.08-1.67.12-2.51.09l.21-.15c-.28,0-.84-.03-1.12-.03-.28,0-.21-.06-.14-.11.14-.1.28-.2-.22-.26-1.17-.06-2.37-.08-3.6-.06-1.21.14-2.4.29-3.56.48-.06.07-.14.14-.3.21l-1.03.2c-.19.16-.11.31-.24.42.04.41-1.36.95-.98,1.29.15.09,2.14-.07,3.04.06.21.04-.26.21-.45.37,1.16-.09,1.24.06.77.23.27,0,.55-.02.55-.02-.06.05-.26.21-.26.21,2.94-.04,6.21.2,9.06.04.61-.02,1.63-.11,2.31-.17.34-.02,1.09.08,1.36.11.48-.11.42-.27.63-.41.8.09,1.92.21,3,.33l-.29-2.76c-1.89.47-3.62,1.17-3.41,1.44-1.66.64-1.89,1.01-3.52,1.85-2.15,1.15-4.76,2.86-6.97,4.98-1.19,1.17-2.28,2.37-3.24,3.7-.35.5-.68.99-.97,1.48-1.57,2.62-2.49,5.48-2.49,8.32-.01,2.8.94,5.69,3.09,7.61,1.04.95,2.39,1.65,3.81,1.89,1.41.24,2.78.18,4.17-.05,2.74-.5,5.47-1.8,7.52-4.15,1.03-1.2,1.69-2.75,1.87-4.3.2-1.56-.03-3.14-.55-4.59-.51-1.45-1.3-2.77-2.22-3.95-1-1.29-1.61-1.93-2.13-2.95-.06-.12-.12-.25-.17-.37-.07-.09.05-.06.11-.06h.2s.81,0,.81,0c.56,0,1.12,0,1.68,0,1.41.01,2.8.02,4.16.03,1.36.02,2.71.03,4.02.05.32.01.64.02.96.03l.47.03.35.04c.42.06.86.13,1.18.3-.14.4-.27.78-.4,1.21-.06.17-.14.49-.22.79-.08.29-.16.59-.23.88-.29,1.16-.51,2.31-.68,3.41-.35,2.21-.47,4.26-.48,6.09,0,1.83.11,3.43.28,4.76.15,1.33.43,2.48.8,3.27.34.58.79,1.14,1.33,1.59Z"/>
  </g>
</svg>