<?xml version="1.0" encoding="UTF-8"?>
<svg id="e2" xmlns="http://www.w3.org/2000/svg" viewBox="0 0 48 24">
  <defs>
    <style>
      .cls-1 {
        fill: #231815;
      }

      .cls-2 {
        opacity: .8;
      }
    </style>
  </defs>
  <g class="cls-2">
    <path class="cls-1" d="M19.12,15.39c.24-.41-.03-.79-.02-1.07-.02-.09-.03-.16-.02-.23,0-.06.02.04.02.23.01.07.04.14.07.23.08-.21.16-.41.23-.56-.03-.05-.05-.09-.07-.14-.09-.22-.22-.4-.25-.65,0-.09-.1-.24-.06-.35.13.28.29.57.46.85,0-.01,0-.03,0-.04-.06-.17-.11-.35-.15-.52-.01-.02-.02-.05-.02-.09l.02.09c.04.06.12.09.18.15.02.05,0,.14.02.18.01.04-.03.13-.05.19l.03.08s.02,0,.03,0h0c.24-.31.29-1.11.2-1.13-.08-.03-.38.09-.46.04-.03-.02.03-.08-.04-.06-.04.02-.08.03-.12.04-.05-.04.08-.18-.07-.14-.07,0,.58-.45.45-.38-.48.23-.13.06-.12-.01,0-.01-.2.06-.18.04.1-.11-.07-.04-.15-.07-.19-.02.11-.16-.23-.12-.04,0-.29-.05-.29-.05.01-.11-.26-.12.08-.29-.34-.02.01-.23-.06-.3-.07-.09.19-.16.42-.23.04-.02.01-.03.08-.05.07-.01-.13-.04-.1-.05h.14s.04,0,.05-.01c.01,0,.06,0,.11,0,.1,0,.19,0,.27,0,.08-.02.15-.03.19-.04-.07-.02-.15-.04-.24-.07-.07-.01-.13-.02-.18-.03l-.11-.03c-.14-.02-.3-.05-.39-.06-.41-.06-.79-.17-1.16-.22-.11-.01-.15.06-.35.08-.06,0-.19-.04-.33-.07,0,.06-.16.04-.29,0-.01.01-.03.03-.03.03-.05,0-.19-.04-.19-.04-.2.14-.56.34-.38.51.02.04.13.1.21.13.04.02-.05.06-.06.08.13.02.29,0,.44,0-.14.11-.36.4.15.32-.01.09.23.07.27.14.06.1.12.23.17.35.05.06.06.13.08.19l.03.07c.21.44.04.99.63,1.19,1.14.3.88,1.72.95,1.98l.18-.08Z"/>
  </g>
  <g class="cls-2">
    <path class="cls-1" d="M29.36,15.38c.21-.43-.1-.83-.08-1.13-.02-.09-.03-.17-.02-.23.01-.06.02.05.02.23.02.07.04.15.07.24.07-.21.15-.41.23-.57-.03-.05-.05-.1-.07-.15-.09-.23-.22-.42-.25-.67,0-.09-.09-.25-.06-.37.13.3.29.6.46.89,0-.01,0-.03,0-.04-.06-.18-.1-.36-.14-.54-.01-.03-.02-.06-.02-.09l.02.09c.04.07.12.1.18.16.02.05,0,.14.02.19.01.04-.03.13-.05.19l.02.08s.02,0,.03,0h0c.24-.31.32-1.11.22-1.15-.08-.04-.39.07-.47.01-.03-.02.03-.09-.04-.07-.04.02-.08.03-.12.04-.05-.04.07-.19-.08-.15-.07,0,.57-.47.44-.4-.48.24-.13.06-.12-.02,0-.01-.2.06-.19.04.09-.12-.08-.05-.17-.09-.2-.02.09-.19-.25-.13-.04,0-.3-.04-.3-.04,0-.13-.28-.1.03-.33-.34.02-.04-.26-.13-.34-.09-.09.14-.22.33-.38.03-.04,0-.05.06-.09.06-.04-.14-.01-.12-.05l.14-.04s.03-.04.03-.05c0-.01.06-.02.1-.04.09-.02.19-.05.25-.08.07-.06.12-.11.15-.16-.08-.01-.17-.02-.27-.04-.07.01-.13.03-.18.04h-.11c-.14.03-.29.07-.39.09-.4.1-.8.15-1.16.26-.1.03-.12.12-.3.2-.06.02-.19.04-.33.07.01.05-.14.09-.27.11,0,.01-.02.03-.02.03-.05,0-.19.04-.19.04-.14.17-.43.42-.22.49.03.02.15.03.23.04.04,0-.03.06-.04.08.13-.02.28-.07.42-.11-.11.13-.28.41.21.23,0,.08.23,0,.28.07.07.08.15.18.21.28.06.05.07.11.1.17l.03.06c.24.4.06.93.65,1.12.58.18.77.6.87,1.05.09.44.09.91.14,1.04l.18-.08Z"/>
  </g>
</svg>