<?xml version="1.0" encoding="UTF-8"?>
<svg id="f" xmlns="http://www.w3.org/2000/svg" viewBox="0 0 48 48">
  <defs>
    <style>
      .cls-1 {
        fill: #231815;
      }

      .cls-2 {
        opacity: .8;
      }
    </style>
  </defs>
  <g class="cls-2">
    <path class="cls-1" d="M23.39,42.26c.38-1.06.21-4.57.33-6.11,0-.59.03-1.04.07-1.38.03-.29,0,.37-.07,1.38,0,.45,0,.98-.01,1.6.15-.78.3-1.54.43-2.08,0-.39-.01-.78-.02-1.19-.02-1.77-.08-3.48-.02-5.23.02-.64,0-2.02.07-2.64.02,2.57.08,5.14.15,7.7,0-.07.02-.14.02-.21l.03-4.05c0-.23,0-.46.01-.7v.7c0,.6.07,1.18.11,1.83,0,.4-.05.87-.04,1.27,0,.33-.07.64-.11.95v.61c0,.06.02.12.03.19h0c.35-.53.68-5.63.58-6.47-.07-.67-.4-1.27-.46-2.02-.02-.25.06-.46-.02-.65-.05-.02-.09-.11-.13-.21-.04-.5.13-1-.02-1.38-.07-.27.7-1.03.56-1.09-.54-.2-.15-.05-.11-.69.01-.08-.21-.32-.19-.48.12-.52-.06-.67-.13-1.26-.18-.88.15-1.08-.19-1.86-.04-.09-.26-1.32-.26-1.32.04-.96-.22-1.56.15-2.3-.32-.86.07-2.02.02-2.94-.05-.92.22-1.3.46-2.11.04-.23.02-.4.09-.54.07-.13-.12-.46-.08-.69l.14.06c.01-.08.04-.23.05-.31.01-.08.06-.06.11-.04.1.04.19.08.27-.05.09-.32.16-.64.21-.98-.06-.33-.14-.66-.22-.99-.07-.02-.13-.04-.18-.09l-.1-.29c-.14-.06-.3-.05-.4-.09-.41,0-.8-.42-1.17-.34-.11.04-.16.59-.36.84-.06.06-.19-.08-.33-.14,0,.33-.16.34-.29.21-.01.08-.03.15-.03.15-.05-.02-.19-.08-.19-.08-.2.83-.57,1.75-.4,2.56.02.17.12.47.19.66.03.1-.05.31-.07.39.13.14.29.12.43.18-.15.6-.42,1.89.1,1.85-.03.48.21.58.23,1.08.04.66.06,1.51.08,2.34.03.45.03.89.03,1.33,0,.16,0,.32,0,.48.07,3.29-.3,5.73.19,8.94.96,6.44.21,13.62.22,15.23l.21.45Z"/>
  </g>
  <g class="cls-2">
    <path class="cls-1" d="M29.01,28.82c.91.27,3.06.33,5.2-.34,2.14-.63,4.25-1.91,5.2-2.91.73-.79.99-1.59.93-2.17-.04-.25.04-.09.02.36-.02.44-.3,1.16-.95,1.81-.54.6-1.36,1.18-2.38,1.76,1.36-.58,2.59-1.34,3.24-2.21.4-.66.59-1.53.27-2.31-.37-.86-1.17-1.39-1.95-1.75-.79-.36-1.61-.6-2.45-.8-1.67-.38-3.35-.56-5.05-.75-1.23-.16-3.94-.26-5.14-.34,2.52.02,5.03.18,7.53.48,1.25.15,2.51.35,3.74.72.61.19,1.22.4,1.81.7.58.31,1.16.73,1.54,1.35-.07-.14-.16-.27-.25-.4-.48-.58-1.12-.95-1.74-1.24-.63-.28-1.27-.5-1.93-.67-1.31-.35-2.64-.55-3.95-.71-.45-.05-.89-.1-1.36-.16l1.36.16c1.17.12,2.32.2,3.61.48.8.19,1.67.52,2.43.87.62.3,1.16.72,1.57,1.28.29.35.5.78.57,1.23.02.13.06.27.06.42,0,0,0-.01,0-.02.05-.14.08-.47-.03-.92-.11-.45-.43-.99-.92-1.42-.99-.88-2.39-1.41-3.8-1.81-2.87-.74-5.75-.96-6.61-.98-1.34-.02-2.56.26-4.03.31-.49.02-.91-.06-1.29.02-.04.05-.22.09-.41.13-.98.06-1.97-.06-2.71.13-.52.1-2.03-.59-2.12-.44-.37.56-.1.16-1.32.17-.15,0-.61.23-.91.22-.99-.11-1.27.08-2.39.1-1.67.06-1.97-.31-3.46-.28-.09,0-.71-.07-1.26-.22-.55-.14-1.01-.39-1.01-.39-.44-.33-.68-.61-.77-1-.07-.38.05-.7.26-1.03.22-.35.56-.67.92-.97.72-1.53,2.62-2.76,4.01-3.74,1.43-.99,2.22-1.08,3.67-1.43.41-.1.7-.23.96-.24.25-.01.77-.36,1.19-.44l-.07.17c.14-.03.42-.05.56-.07.14-.02.11.04.09.09-.05.11-.09.22.16.24.57-.05,1.15-.05,1.74-.07.57-.12,1.14-.23,1.71-.31.03-.07.07-.13.16-.19.17-.04.35-.05.52-.08.11-.14.09-.3.17-.39.02-.41.83-.75.69-1.14-.06-.1-1.16-.26-1.67-.42-.12-.06.16-.19.28-.34-.67,0-.72-.16-.43-.29-.16-.01-.32-.02-.32-.02.04-.05.16-.19.16-.19-1.74-.18-3.79-.21-5.41.47-.35.11-.89.44-1.25.64-.18.09-.62.2-.78.25-.21.23-.11.36-.16.54-.59.18-1.52.53-2.23.95-.72.39-1.21.85-1.03,1.03-.81.57-.84.86-1.58,1.56-.99.93-2.12,2.2-3.05,3.66-.14.24-.31.57-.41.92-.1.34-.13.7-.08,1.04.08.5.33.95.67,1.31.33.35.61.53.92.71.82.47,1.64.69,2.4.87.77.19,1.52.31,2.26.4,1.48.18,2.91.21,4.31.18,2.82-.07,5.49-.38,8.57-.57,3.1-.21,6.34-.09,9.37.37.75.13,1.49.3,2.18.53.7.24,1.36.51,1.87.92.51.4.8.91.79,1.44,0,.52-.27,1.06-.65,1.51-.76.91-1.86,1.53-2.85,2.05-1.01.49-1.98.83-2.86,1.04-1.76.42-3.11.4-3.82.39-.27.08-.55.12-.83.18Z"/>
  </g>
</svg>