<?xml version="1.0" encoding="UTF-8"?>
<svg id="g" xmlns="http://www.w3.org/2000/svg" viewBox="0 0 48 48">
  <defs>
    <style>
      .cls-1 {
        fill: #231815;
      }

      .cls-2 {
        opacity: .8;
      }
    </style>
  </defs>
  <g class="cls-2">
    <path class="cls-1" d="M38.18,25.09c.45.23.97.63,1.33,1.18.38.54.63,1.2.8,1.9.32,1.38.3,3.05-.15,4.63-.44,1.58-1.26,3.06-2.24,4.19-.98,1.15-2.07,1.95-2.93,2.48-1.31.82-2.41,1.26-3.24,1.54-.72.19.96-.2,3.24-1.54.98-.64,2.12-1.5,3.15-2.81-1.41,1.55-3.13,2.53-4.38,3.05-.88.48-1.81.89-2.78,1.22-2.14.72-4.34,1.16-6.55,1.25-2.2.08-4.43-.2-6.46-1.04-.74-.29-1.88-.85-2.89-1.6-1.02-.74-1.86-1.66-2.28-2.28,1.95,2.5,4.98,4.08,8.15,4.56,3.19.49,6.51.04,9.59-.97-.17.05-.34.09-.51.13-3.27.94-6.78,1.27-10.04.49-.56-.12-1.1-.29-1.65-.5.54.2,1.09.37,1.65.5,1.45.32,2.91.38,4.54.28,1-.04,2.16-.12,3.16-.33.81-.15,1.58-.26,2.35-.44.49-.14.97-.31,1.45-.48.14-.06.28-.13.43-.2h-.02c-.63.1-4.05,1.17-7.61,1.13-1.77,0-3.52-.28-4.88-.71-1.36-.42-2.34-.96-2.78-1.18-1.37-.73-2.74-1.42-3.83-2.84-.36-.47-.52-.96-.8-1.32-.06-.02-.2-.21-.32-.4-.5-1.1-.5-2.28-.57-3.14-.02-.31.25-.88.56-1.31.31-.44.64-.77.6-.86-.25-.65-.13-.21.69-1.42.1-.14.27-.75.53-1.03.9-.88,1.03-1.29,2.04-2.36.73-.79,1.28-1.11,1.79-1.37.53-.25.98-.45,1.82-.7.12-.06,1.19-.12,1.77.17l.25-1.07c-.74.06-1.19.04-1.19.04-1.18-.12-2.13-.3-2.98-.58-.85-.28-1.61-.68-2.28-1.32-.96-.41-1.95-1.27-2.38-2.34-.45-1.07-.14-2.21.36-3.14.51-.94,1.14-1.49,1.74-1.95.62-.45,1.27-.84,2.13-1.31.48-.29.82-.53,1.13-.63.31-.1.9-.65,1.42-.83l-.07.19c.17-.06.51-.18.68-.23.17-.05.15.01.12.07-.05.12-.1.24.21.21.7-.16,1.41-.26,2.14-.3.7-.15,1.4-.23,2.1-.23.05-.06.1-.12.21-.16.21,0,.43,0,.64.02.16-.11.16-.28.27-.34.09-.41,1.18-.47,1.09-.89-.03-.07-.39-.24-.84-.41-.45-.17-.98-.31-1.31-.45-.15-.08.23-.17.42-.28-.92-.12-.97-.26-.57-.36-.22-.04-.44-.06-.44-.06.06-.05.24-.18.24-.18-1.21-.18-2.53-.2-3.81.03-1.28.22-2.5.68-3.48,1.32-.43.26-1.08.78-1.48,1.15-.2.18-.73.46-.91.58-.22.34-.08.42-.11.64-.67.45-1.73,1.22-2.48,2.14-.76.89-1.12,1.88-.85,1.92-.32.68-.36,1.18-.36,1.65.01.48.05.97.27,1.75.3,1.02,1.01,1.97,1.86,2.7.86.75,1.85,1.32,2.89,1.78,1.14.48,2.29.81,3.48.99.44.07.88.1,1.29.12.31.01.62,0,.91,0l2.89-.06-2.55-1.37c-1.1-.59-2.33-.62-3.38-.39-1.08.24-2.01.76-2.8,1.34-.79.59-1.46,1.24-2.1,1.89-.64.66-1.25,1.35-1.8,2.11-1.09,1.5-1.98,3.34-1.98,5.43.01,2.08.89,4.05,2.23,5.68,1.43,1.71,3.29,2.99,5.3,3.82,2.02.83,4.19,1.18,6.29,1.2,2.11.02,4.17-.29,6.1-.78,1.93-.5,3.77-1.2,5.38-2.16,1.6-.96,2.98-2.16,3.98-3.53.99-1.36,1.62-2.83,1.93-4.21.3-1.38.28-2.68.07-3.73-.18-1.05-.6-1.94-1.06-2.5-.4-.4-.94-.73-1.53-.89Z"/>
  </g>
</svg>