<?xml version="1.0" encoding="UTF-8"?>
<svg id="h" xmlns="http://www.w3.org/2000/svg" viewBox="0 0 48 48">
  <defs>
    <style>
      .cls-1 {
        fill: #231815;
      }

      .cls-2 {
        opacity: .8;
      }
    </style>
  </defs>
  <g class="cls-2">
    <path class="cls-1" d="M37.23,33.5c-1.29.54-3.88,2.21-6.92,3.51-.77.31-1.67.6-2.62.51-.96-.08-1.79-.63-2.34-1.22-1.12-1.23-1.54-2.59-1.87-3.57-.51-1.53-.68-2.75-.75-3.66-.01-.78-.04,1.03.75,3.66.42,1.13.85,2.58,2.22,3.86-.81-.83-1.25-1.81-1.55-2.71-.31-.9-.5-1.74-.62-2.44-.27-1.01-.45-2.05-.54-3.12-.36-4.7.87-9.31,3.26-13.27.43-.72,1.15-1.85,1.98-2.89.82-1.04,1.74-1.99,2.35-2.53-4.8,4.71-7.85,11.46-7.4,18.26,0-.18-.01-.37,0-.55-.1-3.56.78-7.1,2.32-10.28.25-.55.54-1.08.86-1.62-.3.53-.59,1.07-.86,1.62-.67,1.42-1.13,2.89-1.52,4.55-.25,1.02-.51,2.2-.6,3.25-.09.86-.17,1.65-.2,2.48.02.53.05,1.06.11,1.59.03.15.06.32.08.48v-.02c.05-.34-.02-1.42.08-2.88.11-1.45.37-3.28.91-5.05.51-1.78,1.29-3.5,2.02-4.86.74-1.36,1.42-2.37,1.72-2.82.92-1.44,1.71-2.87,3.08-4.26.47-.45.93-.76,1.27-1.13,0-.07.17-.26.35-.44.24-.19.48-.39.74-.56.22-.14.33-.21.49-.31.3-.16.61-.29.94-.24h.09c.25.07.27.71.06,1.04-.18.35-.39.44-.32.48.12.05.17.18.19.24.02.07,0,.11-.04.18-.09.14-.26.36-.61,1.1-.09.18-.15.86-.35,1.21-.71,1.16-.73,1.6-1.44,3.01-1.01,2.12-1.58,2.39-2.37,4.36-.05.12-.46.9-.87,1.65-.41.75-.81,1.47-.81,1.47-1.45,2.11-2.17,3.56-3.67,4.93-1.13,2.04-3.41,4.13-5.2,5.74-1.8,1.6-2.83,1.95-4.73,2.67-.53.22-.91.39-1.24.42-.32.04-1,.44-1.52.43l.11-.16c-.17,0-.5,0-.65-.02-.16-.02-.11-.07-.07-.11.08-.09.15-.19-.09-.27-.58-.13-1.12-.39-1.45-.71-.2-.12-.37-.24-.49-.39-.14-.16-.25-.36-.32-.57-.07-.02-.14-.04-.19-.11-.04-.14-.07-.29-.07-.42-.12-.12-.28-.13-.35-.22-.2-.06-.33-.32-.4-.6-.07-.28-.08-.58-.31-.58-.07.01-.39.36-.58.88-.2.52-.25,1.16-.26,1.56-.03.2-.24-.21-.39-.4.04.57.12.86.09.98-.02.11-.12.04-.25-.18.05.28.15.55.15.55-.07-.05-.28-.21-.28-.21.19.76.63,1.58,1.22,2.18.59.61,1.3,1.06,2.05,1.35.75.29,1.54.43,2.31.42.75,0,1.46-.15,2.09-.36.55-.17,1.35-.59,1.84-.9.25-.15.83-.36,1.04-.45.29-.3.16-.41.23-.62.78-.35,1.97-1.01,2.85-1.69.88-.68,1.49-1.33,1.27-1.48,1-.89,1.01-1.26,1.93-2.28,1.2-1.36,2.61-3.17,3.9-5,.7-1.01,1.36-1.98,2.03-2.96.24-.37.48-.73.7-1.07,1.79-2.8,3.36-5.31,4.79-7.86.71-1.28,1.36-2.56,1.93-3.92.14-.35.28-.71.39-1.1.13-.45.23-1.02.23-1.52,0-1-.36-2.03-1.29-2.44-.62-.26-1.3-.14-1.92.16-.61.29-1.3.87-1.64,1.13-.83.66-1.63,1.41-2.39,2.23-3.04,3.26-5.39,7.25-6.61,11.46-1.24,4.19-1.34,8.6-.19,12.32.3.93.61,1.81,1.06,2.65.45.83,1.04,1.64,1.89,2.2.85.58,1.98.73,2.86.56.89-.15,1.61-.46,2.24-.74,2.52-1.12,4.25-2.19,5.18-2.73l.95-.83Z"/>
  </g>
</svg>