<?xml version="1.0" encoding="UTF-8"?>
<svg id="i" xmlns="http://www.w3.org/2000/svg" viewBox="0 0 48 48">
  <defs>
    <style>
      .cls-1 {
        fill: #231815;
      }

      .cls-2 {
        opacity: .8;
      }
    </style>
  </defs>
  <g class="cls-2">
    <path class="cls-1" d="M38.8,28.48c-1.19.89-3.51,3.17-6.11,5.44-2.58,2.29-5.54,4.43-7.5,5.45-1.47.85-2.68,1.36-3.62,1.62-.81.19,1.1-.19,3.62-1.62,1.12-.64,2.41-1.46,3.84-2.54-1.87,1.23-3.79,2.21-5.19,2.8-.98.52-2.02.97-3.12,1.24-1.21.3-2.47.35-3.64.06-1.18-.28-2.22-.97-2.97-1.91-1.51-1.89-1.97-4.44-1.82-6.85.04-.89.21-2.29.55-3.66.34-1.37.84-2.69,1.2-3.47-1.33,3.32-2.11,7.01-1.37,10.48.39,1.71,1.22,3.37,2.62,4.38,1.38,1.03,3.26,1.22,4.97.87-.19.03-.38.05-.56.07-1.83.25-3.73-.23-4.96-1.53-1.26-1.27-1.88-3.1-2.1-4.9-.08-.62-.09-1.25-.07-1.91-.01.64,0,1.28.07,1.91.22,1.6.77,3.16,1.87,4.44.66.8,1.64,1.51,2.68,1.74.83.21,1.65.3,2.51.25.55-.07,1.09-.19,1.62-.36.15-.06.32-.13.48-.19h-.02c-.35.02-1.47.37-2.94.32-.73-.03-1.55-.17-2.29-.52-.74-.35-1.41-.91-1.92-1.63-1.03-1.44-1.44-3.38-1.47-4.93-.05-1.59.17-2.86.23-3.41.24-1.78.42-3.49,1.18-5.44.26-.65.58-1.15.74-1.67-.02-.07.06-.33.15-.59.6-1.27,1.45-2.41,1.88-3.41.33-.7,2.13-2.02,2.11-2.22-.1-.78-.04-.23,1.05-1.61.13-.16.39-.84.68-1.16,1.03-1.02,1.16-1.46,2.28-2.69.81-.93,1.41-1.39,1.96-1.84.28-.22.55-.44.85-.7.07-.06.15-.13.23-.2.04-.04.09-.09.14-.14.1-.1.21-.21.34-.34.03-.03.17-.14.39-.27.21-.13.52-.28.86-.28.35,0,.58.28.6.5.04.22,0,.37,0,.37-.15.49-.27.92-.42,1.31-.16.47-.4.99-.6,1.43-.46.9-.96,1.7-1.73,2.43-1.14,2.17-3.79,4.17-5.83,5.72-2.06,1.56-3.16,1.96-5.2,2.76-.57.24-.99.44-1.34.5-.36.07-1.07.53-1.54.5l.1-.15c-.16,0-.41-.03-.49-.07-.07-.03-.03-.07,0-.11.06-.09.07-.18.05-.26-.01-.03-.02-.05-.03-.07-.01-.07.02-.03,0-.15-.01-.11-.02-.3,0-.53-.04-.27-.01-.66.03-1.03.05-.37.12-.74.22-1.1-.04-.07-.08-.14-.09-.26.06-.22.14-.44.22-.66-.05-.19-.21-.23-.24-.37-.38-.21-.04-1.35-.48-1.37-.08.01-.38.34-.7.76-.32.42-.63.96-.85,1.28-.12.15-.1-.29-.15-.52-.4.96-.53,1-.52.53-.1.23-.18.47-.18.47-.03-.08-.11-.3-.11-.3-.3.79-.55,1.54-.64,2.55-.03.5-.02,1.04.15,1.64.15.6.56,1.31,1.1,1.77.38.33.84.58,1.32.72.48.14.9.17,1.3.17.78-.02,1.41-.2,1.96-.42.54-.2,1.34-.65,1.85-.97.26-.16.87-.38,1.08-.49.3-.31.17-.42.24-.63.82-.38,2.03-1.03,3-1.68.96-.64,1.66-1.27,1.45-1.44,1.13-.85,1.19-1.22,2.27-2.22,1.4-1.35,3.05-3.23,4.29-5.36.32-.6.63-1.18.9-1.78.07-.15.14-.3.2-.45l.21-.52c.18-.42.29-.82.38-1.23.07-.3.16-.61.21-.89.02-.27.02-.52-.03-.77-.06-.32-.22-.66-.5-.89-.28-.23-.62-.33-.95-.35-.66-.04-1.33.18-2.01.53-.33.18-.66.38-.98.6l-.4.29-.33.26c-.43.35-.86.69-1.26,1.05-1.64,1.42-3.07,2.93-4.38,4.53-1.31,1.6-2.48,3.31-3.54,5.14-1.05,1.84-2.05,3.79-2.83,6.01-.79,2.22-1.37,4.58-1.51,6.97-.15,2.37.15,4.88,1.36,6.99.6,1.04,1.44,1.99,2.5,2.58,1.05.62,2.27.86,3.42.86,2.35,0,4.42-.98,6.18-1.94,3.56-1.97,6.37-4.27,8.54-6.14,2.17-1.89,3.71-3.37,4.53-4.16l.79-1.08Z"/>
  </g>
</svg>