<?xml version="1.0" encoding="UTF-8"?>
<svg id="i2" xmlns="http://www.w3.org/2000/svg" viewBox="0 0 48 24">
  <defs>
    <style>
      .cls-1 {
        fill: #231815;
      }

      .cls-2 {
        opacity: .8;
      }
    </style>
  </defs>
  <g class="cls-2">
    <path class="cls-1" d="M23.78,15.53c.35-.34.16-.95.24-1.28,0-.11.01-.2.04-.28.02-.06.01.07-.04.28,0,.09,0,.19.01.3.13-.2.26-.4.37-.54-.02-.07-.03-.14-.04-.21-.05-.32-.14-.61-.13-.94,0-.12-.05-.35,0-.48.09.44.19.88.31,1.32,0-.01.01-.03.02-.05l-.05-.74s-.01-.08,0-.13v.13c.03.1.11.18.16.28.01.07-.03.17-.01.24,0,.06-.06.14-.09.21v.11s.03.01.04.02h0c.32-.23.53-1.23.42-1.34-.08-.09-.41-.09-.48-.2-.03-.04.05-.1-.03-.11-.05.01-.09,0-.13,0-.05-.07.1-.21-.06-.23-.07-.03.65-.36.51-.33-.52.1-.14.03-.12-.08,0-.01-.21,0-.2-.03.11-.11-.07-.09-.15-.18-.2-.11.12-.21-.23-.27-.04,0-.29-.17-.29-.17.02-.17-.26-.23.09-.41-.34-.1.02-.34-.05-.48-.07-.15.19-.23.42-.36.04-.04.01-.06.08-.08.07-.02-.13-.07-.1-.1h.15s.04-.02.05-.04c.01-.01.06,0,.11,0,.1,0,.19.01.27,0,.08-.04.15-.09.19-.13-.07-.04-.15-.09-.24-.15-.07,0-.13-.02-.19-.02l-.11-.05c-.14-.01-.3-.03-.4-.04-.41-.03-.8-.13-1.18-.14-.11,0-.15.1-.35.14-.06,0-.19-.03-.34-.05,0,.07-.16.06-.29.03-.01.02-.03.03-.03.03-.05,0-.19-.03-.19-.03-.19.16-.55.37-.36.55.02.04.13.1.21.14.04.02-.05.07-.06.08.13.02.29.02.44.02-.14.13-.38.42.14.37-.02.1.23.1.26.19.05.13.1.29.15.44.05.08.05.17.06.25,0,.03.02.06.02.09.16.6-.11,1.16.45,1.62,1.11.87.49,2.47.49,2.79h.2Z"/>
  </g>
</svg>