<?xml version="1.0" encoding="UTF-8"?>
<svg id="j" xmlns="http://www.w3.org/2000/svg" viewBox="0 0 48 48">
  <defs>
    <style>
      .cls-1 {
        fill: #231815;
      }

      .cls-2 {
        opacity: .8;
      }
    </style>
  </defs>
  <g class="cls-2">
    <path class="cls-1" d="M31.92,37.81c-.16-1.01-1.89-3.57-2.51-4.78-.26-.45-.45-.8-.58-1.07-.11-.23.18.28.58,1.07.21.34.45.74.73,1.21-.23-.67-.45-1.32-.59-1.79-.18-.29-.37-.58-.56-.88-.83-1.32-1.68-2.57-2.45-3.91-.28-.49-.95-1.51-1.17-2.01,1.22,1.91,2.46,3.8,3.72,5.69-.02-.05-.05-.11-.08-.17l-1.86-3.06c-.11-.17-.22-.34-.32-.53l.32.53c.29.44.62.84.96,1.31.19.3.36.68.56.97.15.25.23.52.34.78l.28.46s.07.08.11.12h0c.06-.59-2.04-4.59-2.51-5.17-.37-.46-.93-.74-1.33-1.26-.13-.18-.17-.38-.32-.48-.05.01-.13-.04-.2-.09-.26-.35-.36-.82-.66-1.02-.18-.16.11-1.15-.04-1.11-.55.14-.15.04-.41-.46-.03-.06-.33-.13-.38-.25-.14-.46-.36-.47-.7-.88-.57-.56-.37-.89-1.03-1.29-.08-.05-.84-.85-.84-.85-.41-.74-.91-1.05-.94-1.81-.68-.48-.87-1.55-1.34-2.21-.47-.67-.41-1.1-.57-1.82-.07-.19-.17-.31-.17-.45,0-.14-.32-.29-.4-.49l.15-.03c-.03-.07-.08-.2-.11-.27-.03-.07.02-.08.07-.09.1-.02.2-.04.2-.19-.09-.31-.22-.62-.39-.93-.26-.24-.54-.46-.85-.66-.06.03-.13.06-.2.06l-.29-.15c-.15.06-.24.19-.34.23-.29.28-.83.33-1.02.67-.05.1.26.45.24.73-.02.07-.18.08-.32.15.17.19.05.3-.11.31.03.05.05.1.05.1-.05.02-.18.08-.18.08.24.57.31,1.33.81,1.84.09.11.31.28.46.39.07.06.1.26.12.33.18.04.3-.06.45-.09.14.53.51,1.65.94,1.35.2.38.45.33.7.69.34.48.75,1.1,1.15,1.72.24.32.44.65.64.98.08.12.15.24.23.35,1.59,2.44,2.43,4.46,4.34,6.6,3.84,4.3,6.5,10.1,7.22,11.32l.39.23Z"/>
  </g>
  <g class="cls-2">
    <path class="cls-1" d="M35.7,9.82c-.16,1.62.57,6.89.57,9.22.05.89.06,1.57.04,2.08-.01.43-.02-.56-.04-2.08-.03-.68-.09-1.48-.16-2.42-.05,1.19-.13,2.33-.21,3.14.04.59.08,1.18.1,1.79.1,2.66.2,5.26-.1,7.86-.1.94-.41,2.99-.77,3.82,1-3.65.85-7.58.68-11.43,0,.1,0,.21-.01.31.06,2.03.06,4.07-.07,6.07-.02.34-.04.68-.09,1.03l.09-1.03c.04-.89,0-1.76-.04-2.74,0-.6.05-1.3.03-1.9,0-.49.05-.95.08-1.43l-.03-.91c-.01-.09-.03-.18-.04-.28h0c-.16.4-.23,2.51-.37,4.66-.11,2.16-.39,4.28-.45,4.88-.07.96.09,1.89-.17,2.93-.09.34-.27.59-.3.86.03.04.02.18,0,.32-.26.66-.77,1.13-.98,1.62-.09.16-.46.3-.79.37-.34.07-.62.1-.61.18.1.58.04.18-.68.57-.09.04-.28.39-.48.46-.7.18-.81.42-1.6.74-1.17.51-1.52.23-2.59.74-.07.02-.54.18-1,.28-.47.11-.91.21-.91.21-1.42.04-2.32.32-3.42-.1-1.3.28-2.97-.31-4.31-.52-1.35-.21-1.84-.64-2.89-1.19-.31-.13-.55-.2-.71-.33-.16-.13-.68-.09-.98-.26l.13-.1c-.1-.05-.3-.16-.4-.21-.1-.05-.05-.09-.01-.12.09-.07.17-.14.02-.28-.4-.24-.79-.51-1.2-.74-.44-.13-.89-.27-1.35-.41-.05.05-.11.09-.2.1l-.41-.11c-.14.08-.2.23-.3.29-.2.36-.93.4-1,.79,0,.12.72.58.96.93.05.1-.2.11-.34.19.45.25.41.39.15.41.1.07.21.13.21.13-.05.03-.2.12-.2.12,1.07.78,2.31,1.69,3.6,1.97.27.07.74.12,1.06.15.16.01.45.19.57.24.24-.06.26-.22.39-.34.85.43,2.81,1.09,2.85.56.74.15.93-.05,1.7.02,1.03.1,2.33.16,3.62.17.7-.04,1.38-.04,2.06-.09.25-.02.5-.03.73-.06,2.52-.28,4.77-.58,6.88-1.63,1.04-.51,2.03-1.25,2.79-2.25.76-1,1.23-2.19,1.48-3.44.49-2.53.53-5.06.52-7.5-.02-2.44-.1-4.78-.2-6.9-.2-4.24-.44-7.56-.58-8.77l-.3-.67Z"/>
  </g>
</svg>