<?xml version="1.0" encoding="UTF-8"?>
<svg id="k" xmlns="http://www.w3.org/2000/svg" viewBox="0 0 48 48">
  <defs>
    <style>
      .cls-1 {
        fill: #231815;
      }

      .cls-2 {
        opacity: .8;
      }
    </style>
  </defs>
  <g class="cls-2">
    <path class="cls-1" d="M18.56,44.66c-.14-.66-.33-1.69-.32-2.89,0-1.21.2-2.57.54-3.91.69-2.66,1.75-5.32,2.54-6.86.57-1.21,1.06-2.09,1.47-2.74.35-.54-.45.71-1.47,2.74-.44.91-.91,2.02-1.39,3.34.72-1.61,1.58-3.07,2.21-4.09.39-.79.79-1.57,1.24-2.35,1.97-3.43,4.29-6.52,7.14-9.19.52-.48,1.34-1.25,2.2-1.95.86-.72,1.75-1.37,2.33-1.75-4.62,3.37-8.48,7.73-11.33,12.7.08-.13.17-.26.26-.38,1.56-2.57,3.39-4.97,5.46-7.12.33-.38.71-.73,1.09-1.1-.36.36-.75.71-1.09,1.1-.9.98-1.7,2-2.55,3.16-.54.71-1.19,1.5-1.68,2.25l-1.23,1.71c-.24.38-.45.78-.68,1.17-.06.12-.12.25-.18.37,0,0,0,0,.01-.01.43-.4,2.07-3.05,4.14-5.45,2.02-2.45,4.44-4.6,5.1-5.24,1.07-1.02,1.87-2.09,3.22-3.15.45-.36.89-.63,1.18-1.02,0-.07.14-.26.27-.46.25-.29.5-.6.72-.92l.67-1-1.26-.12c-.86-.08-1.69.03-2.28.31-.61.19-2.58.29-2.63.51-.18.71-.06.18-1.35.91-.16.08-.53.58-.84.75-1.07.55-1.25.9-2.31,1.73-1.52,1.29-2.05,1.27-3.31,2.51-.08.07-.66.52-1.23.93-.58.4-1.16.75-1.16.75-.94.45-1.73.83-2.45,1.07-.36.11-.65.14-.93.03-.28-.1-.5-.34-.59-.61-.27-.23-.48-.63-.5-1.09-.04-.47.07-.98.24-1.5.36-1.06.79-2.17,1.06-3.16.12-.45.25-.84.37-1.19.06-.17.13-.34.19-.5l.21-.52c.33-.85.78-1.72.39-2.7-.08-.18-.21-.37-.38-.53-.57-.46-1.14-.47-1.56-.55-.41-.12-1.71.43-2.21.58l.09-.18c-.19.05-.55.16-.74.23-.18.06-.16,0-.13-.06.05-.13.11-.25-.24-.19-.79.25-1.57.61-2.32,1.08-.67.55-1.27,1.17-1.78,1.83.01.08.02.17-.02.29-.13.21-.28.41-.4.62.02.2.17.27.19.4.3.26.08,1.24.52,1.27.13-.01.9-.95,1.43-1.17.13-.04.02.25.05.43.47-.48.62-.37.51-.1.12-.1.24-.19.24-.19,0,.06.02.24.02.24.65-.49,1.42-.88,2.18-1.19.38-.15.77-.3,1.14-.43l.28-.1c.09-.03.21-.08.18-.07.02-.01.04-.03.03-.06,0-.02.07-.16.2-.22.04-.02.04.05.01.09,0,.01-.01.03-.02.03.16-.06.35-.15.51-.2-.04-.23-1.33,3.02-.76,2.98-.34,1.03-.17,1.3-.48,2.39-.19.73-.48,1.67-.31,2.81.1.58.32,1.13.73,1.64.42.51,1.04.87,1.7.93.77.05,1.35-.19,1.82-.36.48-.18.96-.37,1.42-.59.35-.15.67-.34.99-.49,2.83-1.54,5.05-3.26,7.28-4.72,1.11-.74,2.23-1.43,3.37-2.03,1.13-.58,2.31-1.03,3.5-1.01l-.69-1.3c-.43.76-1.15,1.45-1.98,2.16-2.83,2.33-5.51,5.04-7.76,7.89-2.25,2.86-4.11,5.86-5.49,8.72-1.39,2.87-2.37,5.53-2.92,7.81-.57,2.28-.48,4.22-.25,5.22.15.38.33.74.52,1.09Z"/>
  </g>
  <g class="cls-2">
    <path class="cls-1" d="M32.49,8.71c-.61.3-1.56,1.82-2.24,2.26-.22.2-.41.34-.56.42-.13.07.14-.12.56-.42.17-.15.36-.34.57-.58-.38.21-.77.37-1.05.46-.13.13-.27.26-.42.39-.64.55-1.32,1.02-2.11,1.24-.28.09-.89.27-1.17.23,1.13-.19,2.2-.77,3.08-1.57-.03.01-.06.03-.09.04-.5.38-1.03.7-1.59.91-.09.05-.19.08-.29.11l.29-.11c.24-.12.43-.29.66-.47.15-.09.36-.16.5-.27.12-.08.28-.11.43-.17l.22-.18s.03-.05.05-.08h0c-.22-.05-.83.25-1.42.45-.59.21-1.17.33-1.31.41-.22.14-.37.51-.67.61-.1.04-.2-.04-.26.04,0,.05-.04.09-.07.13-.21.05-.42-.12-.57.02-.13.06-.35-.75-.36-.6-.14.52-.05.14-.23.06-.02-.02-.15.18-.19.14-.09-.17-.19-.01-.35-.04h-.02c-.27-.04-.05-.26-.44-.27-.05.02-.42-.34-.41-.36-.05-.38-.33-.65.05-.97-.32-.39.14-.88.18-1.28.04-.42.35-.51.68-.75.07-.08.07-.15.16-.18.09-.02-.05-.23.03-.3l.12.08s.07-.07.1-.09c.02-.02.06,0,.1.03.08.06.16.11.25.1.13-.08.24-.16.34-.25,0-.14-.01-.29-.02-.45-.05-.04-.1-.09-.14-.13l-.03-.16c-.11-.1-.24-.18-.31-.25-.34-.23-.56-.61-.89-.79-.1-.05-.29.16-.52.17-.07,0-.14-.14-.25-.24-.1.15-.24.08-.31-.06-.03.03-.07.06-.07.06-.04-.03-.14-.14-.14-.14-.4.3-.97.64-1,1.16-.02.1.02.3.05.43.01.06-.11.15-.13.19.1.12.25.16.38.24-.25.26-.68.93-.16,1.02-.08.26.15.35.13.62-.02.35-.04.84,0,1.3.04.26.07.51.12.76.02.1.05.19.08.28.19.61.53,1.22,1.06,1.63.56.43,1.16.6,1.71.64.56.05,1.14-.02,1.7-.28,1.64-.74,3.03-1.71,4.14-2.7,1.09-.97,1.88-1.87,2.13-2.22l-.06-.3Z"/>
  </g>
</svg>