<?xml version="1.0" encoding="UTF-8"?>
<svg id="l" xmlns="http://www.w3.org/2000/svg" viewBox="0 0 48 48">
  <defs>
    <style>
      .cls-1 {
        fill: #231815;
      }

      .cls-2 {
        opacity: .8;
      }
    </style>
  </defs>
  <g class="cls-2">
    <path class="cls-1" d="M7.68,41.68c1.03-.04,3.2-.44,5.49-.72,2.3-.3,4.72-.46,6.19-.45,1.13-.02,2-.01,2.64.03.54.04-.71-.02-2.64-.03-.86.03-1.88.07-3.07.17,1.5.02,2.94.11,3.96.23.75-.03,1.5-.03,2.27-.02,3.38.01,6.62.46,10.02.39.61-.03,1.59-.03,2.6-.31.5-.14.99-.36,1.4-.69.41-.34.67-.78.77-1.13-.18.77-.85,1.35-1.46,1.63-.63.3-1.29.43-1.93.5-1.25.13-2.5.16-3.74.13-2.48-.06-4.92-.31-7.36-.3l.39.03c2.56.06,5.12.39,7.76.44.45,0,.89,0,1.37,0-.46.01-.91.01-1.37,0-1.17,0-2.3,0-3.55-.05-.77-.05-1.65-.17-2.41-.2-.62-.03-1.2-.13-1.79-.19l-1.15-.02c-.11,0-.23.02-.35.02,0,0,.01,0,.02,0,.49.17,3.11.39,5.86.73,1.38.15,2.81.27,4.01.29,1.21.02,2.16-.06,2.6-.14.67-.12,1.32-.35,1.96-.75.62-.38,1.33-1.11,1.51-2.03.04-.17.06-.35.06-.53,0-.7-.08-1.17-.27-1.54-.06-.02-.16-.19-.26-.36-.37-.92-.65-1.89-1.13-2.49-.29-.44-.35-2.1-.54-2.12-.67-.08-.18-.02-.79-1.1-.07-.13-.51-.43-.65-.69-.43-.92-.75-1.07-1.44-1.98-1.1-1.31-1.03-1.81-2.18-2.85-.07-.06-.48-.55-.88-1.01-.4-.46-.77-.92-.77-.92-.98-1.56-1.82-2.36-2.31-3.76-1.18-1.19-2.08-3.25-3.11-4.68-1.02-1.44-1.21-2.2-1.87-3.61-.21-.39-.42-.65-.5-.9-.08-.25-.6-.66-.81-1.05h.18c-.07-.12-.21-.37-.28-.5-.07-.13,0-.12.05-.12.12,0,.24.02.16-.24-.27-.56-.56-1.11-.88-1.67-.41-.49-.83-.97-1.24-1.43-.08,0-.16,0-.25-.04l-.4-.4c-.18-.01-.3.1-.42.09-.35.22-1.11-.21-1.32.14-.05.12.51,1.03.61,1.53.01.12-.24-.02-.43-.03.35.52.23.64-.02.49.07.13.14.26.14.26-.06,0-.24-.02-.24-.02.72,1.42,1.41,3.09,2.42,4.28.2.26.6.67.87.93.13.13.29.52.36.65.25.14.36.03.55.04.51,1.03,1.67,3.23,2.06,2.88.49.78.79.8,1.34,1.59.73,1.05,1.64,2.37,2.54,3.67.51.7.96,1.4,1.43,2.11.18.26.35.51.51.76,1.82,2.57,3.33,4.84,4.73,7.13.7,1.14,1.39,2.3,2.04,3.48.32.59.63,1.2.91,1.83.28.63.57,1.3.54,1.72v.09c-.05.23-.16.46-.35.64-.2.19-.48.36-.8.49-.63.26-1.38.35-2.14.43-1.52.16-3.06.14-4.57.07-3.03-.17-6.02-.34-8.69-.26-5.37.09-9.57.77-11.08,1.08l-.83.4Z"/>
  </g>
  <g class="cls-2">
    <path class="cls-1" d="M38.99,22.42c.44-.89.36-3.79.28-5.05-.05-.46-.08-.82-.11-1.14-.02-.24.08.3.11,1.14.03.37.07.8.09,1.32.12-.66.21-1.3.27-1.77-.06-.33-.12-.66-.2-.99-.34-1.47-.96-2.83-1.85-4.07-.3-.48-1.21-1.31-1.65-1.66,1.96,1.31,3.1,3.42,3.67,5.55,0-.06-.01-.12-.02-.18-.28-1.14-.71-2.26-1.36-3.29-.11-.17-.23-.33-.36-.52.13.17.24.35.36.52.31.44.62.87.88,1.39.15.33.25.73.36,1.07.09.28.09.56.12.83l.11.51s.04.1.06.15h0c.14-.26.06-1.52-.39-2.79-.42-1.28-1.29-2.47-1.63-2.72-.51-.43-1.17-.57-1.79-.9-.21-.12-.35-.27-.55-.3-.04.04-.14.03-.23.03-.43-.17-.83-.49-1.22-.43-.23-.02-.86-.88-.95-.74-.26.51-.06.13-.71.07-.08,0-.32.21-.48.21-.54-.08-.68.14-1.23.36-.76.45-1.11.27-1.55.99-.09.07-.77,1.01-.74,1.02-.62.63-.66,1.22-1.31,1.62-.08.82-.81,1.58-1.01,2.37-.2.78-.54,1.03-.92,1.71-.07.2-.08.37-.17.48-.09.12.07.45.02.66l-.14-.07c-.02.07-.06.22-.07.3-.02.07-.06.05-.11.03-.09-.04-.19-.09-.27.04-.1.32-.16.68-.18,1.04.1.36.23.7.4,1.03.07,0,.14.01.2.05l.18.27c.16.02.3-.05.41-.04.4-.11.88.1,1.21-.11.09-.06,0-.49.15-.72.05-.05.2.02.35.02-.05-.22.11-.26.25-.2,0-.05,0-.1,0-.1.05,0,.2.01.2.01.08-.55.44-1.08.33-1.63,0-.12-.08-.33-.13-.48-.02-.07.09-.21.12-.26-.11-.12-.27-.15-.4-.22.24-.41.79-1.26.29-1.4.15-.35-.05-.51.08-.89.16-.51.41-1.12.73-1.67.15-.31.35-.58.56-.83.08-.09.16-.18.23-.27.82-.91,1.83-1.23,2.82-1.25,1,0,2,.22,3.12.66,1.14.46,2.11,1.47,2.71,2.6.62,1.14.91,2.38,1.01,3.5.19,2.26-.16,4.08-.17,4.75l.2.38Z"/>
  </g>
</svg>