<?xml version="1.0" encoding="UTF-8"?>
<svg id="ll" xmlns="http://www.w3.org/2000/svg" viewBox="0 0 48 48">
  <defs>
    <style>
      .cls-1 {
        fill: #231815;
      }

      .cls-2 {
        opacity: .8;
      }
    </style>
  </defs>
  <g class="cls-2">
    <path class="cls-1" d="M6.7,41.53c.21.27.75.58,1.64.6.87.04,2.03-.16,3.22-.3,2.37-.29,4.88-.51,6.4-.54,1.17-.06,2.06-.07,2.73-.06.56.02-.74.02-2.73.06-.89.05-1.94.12-3.17.24,1.55,0,3.04.05,4.11.13.77-.05,1.56-.08,2.35-.11,3.5-.1,6.89-.05,10.33.3.62.06,1.63.18,2.69.1,1.05-.05,2.11-.47,2.67-.87-1.17.88-2.66,1.02-3.95.97-1.31-.06-2.55-.2-3.82-.25-2.53-.13-5.07-.15-7.61-.05l.41.02c2.67-.04,5.34.04,7.99.24.45.02.91.07,1.37.12l-1.37-.12c-1.18-.07-2.33-.06-3.62-.06-.79-.02-1.7-.09-2.5-.08-.65,0-1.25-.07-1.87-.1l-1.2.03c-.12.01-.24.03-.37.04,0,0,.01,0,.02,0,.51.16,3.27.24,6.09.45,2.85.18,5.65.57,6.63.54,1.44-.03,3.03-.52,4.35-1.77.44-.42.82-.84.95-1.34-.03-.06.04-.31.05-.56.24-1.27-.04-2.4-.4-3.07-.21-.49-.04-2.22-.24-2.28-.67-.19-.16-.06-.67-1.26-.05-.15-.47-.52-.6-.8-.36-1-.68-1.19-1.33-2.21-1.06-1.44-.99-1.95-2.13-3.08-.14-.17-1.69-2.04-1.69-2.04-1.04-1.6-1.94-2.42-2.45-3.86-1.23-1.24-2.14-3.37-3.15-4.89-1.01-1.52-1.18-2.31-1.81-3.79-.2-.41-.4-.69-.47-.96-.07-.27-.58-.72-.78-1.13l.18.02c-.07-.14-.2-.41-.27-.55-.07-.14,0-.13.06-.12.12.02.24.03.17-.23-.25-.59-.53-1.18-.83-1.78-.4-.53-.79-1.05-1.2-1.56-.08,0-.16,0-.25-.05l-.38-.44c-.18-.03-.3.09-.42.07-.35.21-1.1-.28-1.33.07-.06.12.47,1.09.55,1.62,0,.13-.24-.03-.43-.06.33.56.21.67-.04.51.07.14.13.28.13.28-.06,0-.24-.03-.24-.03.67,1.51,1.3,3.27,2.28,4.56.2.28.59.72.84,1.01.13.15.27.55.34.69.25.16.37.05.55.07.49,1.09,1.63,3.41,2.03,3.07.49.82.79.86,1.35,1.68.75,1.09,1.7,2.47,2.63,3.83.54.73,1.02,1.44,1.51,2.16.19.27.37.53.54.77,1.86,2.66,3.31,5.07,4.49,7.55.59,1.24,1.11,2.5,1.56,3.82.24.67.42,1.29.41,1.82-.01.51-.26,1.02-.73,1.47-.96.95-2.56,1.08-4.14,1-1.62-.07-3.25-.14-4.84-.17-3.19-.07-6.28-.02-9.06.1-2.78.13-5.27.33-7.25.55-1.01.11-1.84.23-2.45.22-.62,0-1.02-.08-1.26-.16-.21,0-.41,0-.61-.06Z"/>
  </g>
  <g class="cls-2">
    <path class="cls-1" d="M30.33,42.29c.12-1.03-1.21-3.9-1.76-5.19-.23-.49-.4-.86-.51-1.15-.09-.24.17.3.51,1.15.17.37.37.81.61,1.32-.16-.69-.31-1.37-.43-1.9-.17-.31-.34-.63-.51-.96-.77-1.43-1.6-2.75-2.38-4.15-.28-.51-.96-1.58-1.18-2.1,1.24,1.99,2.5,3.98,3.67,6.02-.02-.06-.04-.12-.07-.18-.58-1.1-1.19-2.18-1.8-3.26-.11-.18-.22-.36-.32-.56l.32.56c.29.46.62.89.95,1.39.19.32.35.72.54,1.04.14.27.22.55.32.83l.26.49s.07.09.1.14h0c.13-.62-1.93-4.87-2.43-5.46-.38-.49-.95-.79-1.35-1.34-.13-.18-.17-.39-.32-.5-.05.01-.13-.04-.21-.1-.27-.37-.36-.85-.67-1.07-.18-.18.12-1.17-.03-1.14-.55.12-.15.03-.41-.48-.03-.07-.33-.14-.38-.27-.13-.47-.36-.5-.69-.93-.56-.6-.36-.92-1.02-1.37-.08-.05-.83-.91-.83-.91-.4-.78-.9-1.12-.91-1.9-.67-.52-.85-1.63-1.3-2.34-.45-.71-.39-1.14-.53-1.9-.07-.2-.16-.33-.15-.47,0-.14-.31-.31-.38-.51l.15-.02c-.02-.07-.07-.2-.09-.27-.02-.07.03-.07.08-.08.1-.01.2-.03.21-.17-.06-.29-.14-.59-.24-.88-.2-.23-.41-.46-.62-.68-.07.01-.13.03-.2.01l-.21-.18c-.15.02-.29.1-.39.12-.37.18-.89.04-1.18.28-.08.08.12.55.05.84-.03.07-.2.02-.36.04.14.27,0,.35-.17.3.02.07.04.14.04.14-.05,0-.2.02-.2.02.18.76.26,1.68.77,2.26.09.13.32.31.46.44.07.06.09.27.11.34.18.05.31-.04.46-.06.13.55.47,1.72.91,1.43.19.4.44.36.69.75.33.53.73,1.18,1.13,1.82.24.34.43.69.63,1.04.08.13.15.25.22.37,1.57,2.57,2.4,4.68,4.33,6.94,1.94,2.26,3.57,4.9,4.63,7.2,1.07,2.3,1.54,4.2,1.75,4.87l.33.31Z"/>
  </g>
  <g class="cls-2">
    <path class="cls-1" d="M40.8,20.65c.23-.31.37-1.04.32-1.83-.03-.78-.23-1.6-.35-2.1-.11-.36-.2-.63-.29-.89-.06-.19.14.22.29.89.08.29.19.62.26,1.03.04-.54.04-1.09.01-1.49-.1-.25-.23-.5-.35-.76-.58-1.11-1.42-2.03-2.44-2.79-.36-.3-1.27-.73-1.69-.94,1.81.6,3.33,1.92,4.25,3.53-.02-.05-.03-.09-.05-.15-.47-.86-1.09-1.66-1.88-2.32-.13-.11-.28-.2-.41-.33.14.11.28.21.41.33.36.27.72.53,1.07.87.2.23.37.54.54.78.14.2.19.44.27.66l.2.39s.06.07.08.11h0c.09-.25-.22-1.29-.9-2.23-.65-.96-1.67-1.68-1.99-1.79-.51-.21-1.08-.1-1.64-.23-.19-.04-.33-.17-.49-.13-.03.04-.11.06-.19.09-.37-.06-.74-.28-1.04-.15-.19.03-.8-.74-.85-.59-.15.55-.03.14-.56.14-.07,0-.24.24-.36.24-.44-.05-.53.15-.96.36-.6.39-.9.17-1.27.78-.06.06-.69.79-.67.8-.58.45-.65.95-1.28,1.2-.09.7-.82,1.31-.93,2.06-.1.71-.37.97-.59,1.66-.02.2.01.34-.05.47-.06.13.19.37.2.57l-.15-.02c0,.07.02.21.02.28,0,.07-.04.07-.09.06-.1,0-.21-.02-.24.13.01.32.07.66.2,1,.23.28.49.54.78.75.06-.03.13-.05.2-.05.1.05.19.1.28.14.14-.06.24-.19.33-.23.29-.28.78-.39.96-.73.05-.1-.18-.35-.1-.58.03-.06.18-.09.3-.16-.1-.12.03-.22.17-.25,0-.03-.02-.06-.02-.06.04-.02.17-.09.17-.09-.03-.35.19-.76-.04-1.04-.04-.07-.15-.18-.23-.26-.04-.04.04-.14.05-.18-.13-.06-.29-.05-.43-.09.13-.32.51-.86.02-.99.09-.24-.12-.37-.03-.66.11-.37.34-.83.63-1.23.14-.24.33-.42.53-.6.07-.07.14-.13.21-.19.76-.65,1.61-.9,2.45-.98.84-.09,1.68-.02,2.69.07,1.03.11,2.04.61,2.79,1.33.76.72,1.25,1.64,1.52,2.5.53,1.75.21,3.16.16,3.62l.18.29Z"/>
  </g>
</svg>