<?xml version="1.0" encoding="UTF-8"?>
<svg id="m" xmlns="http://www.w3.org/2000/svg" viewBox="0 0 48 48">
  <defs>
    <style>
      .cls-1 {
        fill: #231815;
      }

      .cls-2 {
        opacity: .8;
      }
    </style>
  </defs>
  <g class="cls-2">
    <path class="cls-1" d="M40.65,43.17c-.09.53-.39,1.03-1.01,1.3l-.8.35-.41-.69c-.59-1.01-1.24-2.49-1.74-4.22-.5-1.72-.96-3.64-1.41-5.62-.89-3.95-1.45-8.09-1.57-10.66-.14-2.08-.14-3.68-.1-4.87.07-1-.1,1.32.1,4.87.13,1.58.29,3.45.66,5.63-.29-2.74-.39-5.38-.33-7.26-.08-1.38-.11-2.77-.06-4.18.1-4.58.82-9.03,2.27-13.28l-.51-.14c-.38,1.55-.89,3.08-1.55,4.55-.45,1.01-1.23,2.59-2.19,4.05-.24.36-.49.72-.74,1.07-.23.31-.5.58-.78.76-.61.37-.84.16-.99-.23.19.41.36.47.77.29.4-.2.77-.58,1.07-1.06.67-.95,1.27-1.94,1.81-2.97,1.08-2.05,1.9-4.25,2.43-6.51l.81.23c-.68,2.04-1.2,4.13-1.57,6.26-.36,2.13-.55,4.28-.62,6.44,0-.24.03-.49.06-.73.09-2.04.36-4.06.71-6.05.38-2,.92-3.95,1.56-5.87l-1.09-.31c-.16.63-.33,1.26-.53,1.87-.24.76-.51,1.51-.84,2.26.31-.74.59-1.5.84-2.26.19-.62.35-1.25.5-1.88l1.15.32c-.2.68-.4,1.37-.61,2.07-.16.72-.35,1.44-.51,2.2-.3,1.37-.63,2.94-.79,4.34-.06.57-.14,1.12-.22,1.66l-.18,1.63c-.05.7-.04,1.41-.07,2.12,0,.21.01.43.02.65,0,0,0-.02,0-.03.12-.56.21-2.76.62-5.54.39-2.78,1.16-6.12,2.21-8.95l-2.13-.6c-.84,3.3-2.23,5.88-2.7,6.79-.51.98-1.05,2.03-1.58,2.89-.21.36-.64.68-.7.69v.06s0-.03,0-.03c-.01,0-.01.02-.05-.02-.07-.06-.17-.34-.22-.59-.1-.47-.04-.91.05-1.28l-1.7-.28c-.02.22-.03.43-.04.63.04.07.04.4.02.73-.23,1.7-.88,3.29-1.21,4.57-.07.22-.22.52-.43.83-.17.24-.31.34-.48.41-.32.15-.52-.09-.55,0-.15.35-.22.36-.28.26-.06-.12-.15-.37-.26-.73,0-.03-.02-.04-.06-.11-.05-.09-.11-.21-.16-.33-.11-.25-.21-.55-.23-.8-.02-.88-.04-1.4-.06-1.99-.02-.59-.05-1.22.07-2.22.13-1.29.39-2.12.65-2.84.28-.72.51-1.33.87-2.26l-.6-.1c-.08-.13-.02-.16-.07-.07-.04.08-.2.21-.36.29-.12.05-.07.03-.07.04,0,0,.01.01.02.02.01.02.02.04.03.04-.01.36-.17,4.68-.17,4.68-.35,3.37-.28,5.49-.89,8.09.02,1.53-.15,3.31-.36,5.1-.2,1.8-.48,3.57-.9,5.05-.43,1.48-1.06,2.41-1.76,3.1-.72.68-1.52,1.17-2.68,1.4-.66.15-1.17.21-1.57.15-.38-.05-1.39.04-2.04-.24l.21-.09c-.22-.07-.62-.27-.82-.37-.2-.11-.12-.13-.05-.15.14-.03.28-.08-.03-.31-.75-.5-1.44-1.16-2.02-1.93-.66-.69-1.25-1.54-1.59-2.32-.08-.03-.16-.06-.24-.17-.1-.24-.17-.48-.22-.71-.15-.14-.3-.09-.4-.2-.21,0-.4-.3-.53-.63-.13-.32-.21-.66-.44-.56-.07.05-.32.6-.35,1.29-.05.69.09,1.46.17,1.95.02.23-.28-.21-.48-.4.41,1.26.37,1.36,0,.92.11.3.23.58.23.58-.08-.05-.31-.2-.31-.2.63,1.58,1.58,3.11,2.97,4.35,1.36,1.23,3.23,2.07,5.03,2.13.76.07,2.04-.1,2.85-.4.4-.11,1.32-.36,1.64-.53.48-.4.32-.5.45-.75.56-.3,1.23-.8,1.81-1.42.59-.62,1.09-1.36,1.44-2.07.72-1.43.88-2.65.62-2.63.43-1.77.2-2.16.36-3.94.19-2.33.42-5.29.65-8.2.11-1.59.26-3.12.4-4.67.05-.58.1-1.14.15-1.67.08-.88.16-1.74.23-2.59.04-.42.08-.84.12-1.26l.03-.35c0-.21-.02-.38-.07-.55-.06-.18-.12-.36-.32-.58-.11-.11-.29-.25-.55-.3-.28-.05-.51.04-.67.13l-.19.11-.1.21c-.98,1.99-1.6,4.05-1.87,6.13-.14,1.04-.19,2.07-.16,3.11.02.52.06,1.05.15,1.59.05.27.1.54.18.81.07.25.22.66.36.97.32.64.74,1.23,1.29,1.57.55.36,1.32.36,1.88.02.58-.32,1.03-.88,1.37-1.53.09-.16.16-.33.23-.51l.16-.38.29-.73c.73-1.97,1.2-4.08,1.35-6.32l-1.55-.26c-.17.79-.13,1.64.14,2.44.12.33.29.76.73,1.09.42.32,1.06.37,1.47.21.82-.32,1.27-.86,1.66-1.42.68-1.03,1.31-2.09,1.85-3.19,1.11-2.2,1.93-4.53,2.47-6.89l-.88-.25c-1.42,4.35-2.1,8.81-2.25,13.01-.15,4.21.17,8.17.67,11.66.5,3.49,1.16,6.52,1.77,8.94.57,2.42,1.27,4.33,1.88,5.4.21.31.45.6.69.89l.64.76.74-.37c.58-.29.91-.8.96-1.42Z"/>
  </g>
</svg>