<?xml version="1.0" encoding="UTF-8"?>
<svg id="_레이어_6" data-name="레이어 6" xmlns="http://www.w3.org/2000/svg" viewBox="0 0 48 48">
  <defs>
    <style>
      .cls-1 {
        fill: #231815;
      }

      .cls-2 {
        opacity: .8;
      }
    </style>
  </defs>
  <g class="cls-2">
    <path class="cls-1" d="M18.67,45.91c.5.18,1.23-.34,1.65-.45.14-.07.26-.11.36-.13.08-.02-.08.06-.36.13-.11.06-.24.12-.38.19.27.02.54.05.76.06.08-.06.17-.11.26-.18.39-.26.72-.57,1.12-.85.15-.1.4-.38.58-.46-.47.53-.99,1-1.52,1.43.02,0,.04,0,.06-.01.31-.19.62-.4.92-.63.04-.04.1-.09.16-.12l-.16.12c-.11.12-.19.26-.31.4-.09.07-.23.1-.31.17-.08.05-.19.04-.3.06l-.14.09s-.01.03-.02.05h0c.35.23,1.76-.41,1.86-.68.09-.18-.04-.52.06-.71.03-.06.14-.06.11-.15-.04-.03-.05-.08-.06-.12.06-.13.29-.15.23-.32-.01-.09.78.13.66.04-.42-.33-.12-.09.02-.23.02-.02-.13-.18-.09-.21.19-.08.05-.2.07-.38-.05-.31.29-.22.07-.57-.02-.04-.11-.47-.11-.47.12-.3-.11-.48.25-.75-.17-.16-.18-.33-.21-.54-.03-.2-.08-.45-.25-.58-.33-.23-.33-.52-.62-.86-.09-.07-.17-.06-.21-.14-.05-.09-.22.09-.3.05l.04-.14s-.09-.05-.12-.06c-.03-.01-.02-.06,0-.11.02-.1.05-.19,0-.27-.14-.09-.28-.16-.41-.2-.14.07-.26.16-.36.26,0,.07,0,.13-.01.19l-.09.12c0,.15.02.3.02.4.04.41-.02.82.06,1.18.02.11.16.13.23.32.02.06,0,.19,0,.34.07,0,.08.15.06.29.01.01.03.02.03.02,0,.05,0,.19,0,.19.16.17.22.53.23.35,0-.05.06-.25.07-.32.02-.07.05-.14.05-.16,0-.02.02-.05.03-.08.04-.09.1-.21.14-.25.03-.04.02-.03.02-.03,0,0-.02.01-.03.02-.04.02.08-.05.08-.03.05,0,.1.06.11.18.03.07,0,.14-.01.22l-.02.09c-.07.31-.32.61-.5.87-.2.26-.37.53-.44.95-.16.87-.88,1.44-1.54,1.73-.67.31-1.31.39-1.51.48l.02.22Z"/>
  </g>
</svg>