<?xml version="1.0" encoding="UTF-8"?>
<svg id="_레이어_6" data-name="레이어 6" xmlns="http://www.w3.org/2000/svg" viewBox="0 0 48 48">
  <defs>
    <style>
      .cls-1 {
        fill: #231815;
      }

      .cls-2 {
        opacity: .8;
      }
    </style>
  </defs>
  <g class="cls-2">
    <path class="cls-1" d="M23.19,34.65c.35-.77.29-3.18.55-4.22.06-.4.12-.7.19-.93.05-.19-.02.25-.19.93-.04.3-.07.66-.12,1.09.2-.53.39-1.03.58-1.38.03-.26.06-.52.09-.79.17-1.18.31-2.32.64-3.45.11-.41.31-1.31.49-1.69-.42,1.66-.73,3.35-.91,5.06.01-.05.03-.09.05-.14.15-.89.32-1.78.53-2.65.03-.15.06-.3.12-.45l-.12.45c-.07.39-.07.78-.12,1.21-.05.26-.15.56-.19.83-.04.22-.14.41-.22.61-.03.13-.04.27-.06.4,0,.04.01.08.01.13h0c.19-.16.5-1.07.79-1.98.29-.92.58-1.85.59-2.12.04-.44-.18-.9-.12-1.39.02-.16.14-.28.1-.42-.04-.02-.06-.09-.09-.16.06-.33.3-.61.23-.89-.01-.19.88-.46.75-.54-.48-.27-.13-.08.03-.47.03-.05-.14-.26-.08-.35.23-.29.08-.44.14-.84.01-.61.38-.63.22-1.23-.02-.07.05-.92.05-.92.25-.59.14-1.06.67-1.4-.11-.66.54-1.24.71-1.84.17-.59.52-.75.93-1.13.09-.12.11-.23.21-.27.1-.04,0-.31.09-.41l.11.1s.09-.1.12-.13c.03-.03.07,0,.11.03.07.07.15.13.25.1.15-.1.28-.18.39-.25.01-.13.01-.25,0-.36-.04-.05-.08-.11-.1-.16v-.13c-.07-.13-.16-.26-.2-.35-.24-.34-.2-.81-.39-1.13-.07-.09-.49.09-.77.1-.08-.01-.08-.19-.12-.34-.24.2-.36.11-.35-.08-.07.04-.13.09-.13.09-.02-.05-.07-.19-.07-.19-.77.47-1.48,1.06-1.59,1.72-.04.13-.03.38-.02.54,0,.08-.13.19-.17.24.09.14.24.19.35.28-.29.33-.85,1.05-.36,1.22-.14.3.06.45-.04.77-.14.45-.31.99-.47,1.52-.08.3-.18.58-.28.86-.03.11-.07.21-.1.31-.67,2.13-1.54,3.63-1.65,5.87-.09,2.25-.49,4.5-.78,6.42-.29,1.91-.47,3.46-.48,4.03l.21.31Z"/>
  </g>
  <g class="cls-2">
    <path class="cls-1" d="M24.85,40.12c.29-.36.27-.49.41-.65.03-.04.06-.08.1-.11.03-.03,0,.02-.1.11-.02.03-.04.06-.06.1.15-.13.3-.26.43-.35,0-.02.01-.03.02-.05.04-.08.04-.13.13-.22.04-.03.04-.07.12-.12-.03.07-.06.15-.07.23l.03-.02c.05-.06.1-.12.15-.18,0,0,0-.01.03-.03l-.03.03s.04,0,.06.01c0,.01-.07.06-.07.07-.01.01-.08.06-.13.1l-.02.03s.02,0,.02,0h0c.32-.23.77-.54.71-.5-.04.01-.33.13-.36.13-.01,0,.06-.03,0-.01-.04.02-.08.03-.11.04-.02,0,.14-.07,0-.03-.06.01.65-.26.52-.21-.48.18-.13.05-.09.03-.01,0-.14.05-.17.05.12-.05-.04,0-.1.02-.15.03.15-.06-.15.02-.03,0-.23.04-.23.04.04-.03-.19.01.14-.08-.29.05.06-.05,0-.06-.05,0,.19-.06.4-.1.03,0,.01,0,.08-.02.06,0-.12.01-.08,0l.13-.02s.03,0,.04,0c.01,0,.05,0,.1-.01.09-.01.17-.02.23-.03.07,0,.13-.02.17-.02-.06,0-.13.01-.21.02-.06,0-.12,0-.16.01h-.09c-.13.02-.26.03-.35.03-.37.03-.73.05-1.07.07-.11,0-.15.03-.36.06-.06,0-.2.01-.35.02,0,.01-.16.03-.3.04-.01,0-.03,0-.03,0-.05,0-.2.01-.2.01-.19.06-.55.16-.37.18.02,0,.13,0,.21,0,.04,0-.05.02-.06.03.13-.02.29-.04.44-.06-.15.05-.4.17.12.07-.02.03.22-.01.24,0,.04.02.07.05.09.08.04.01.03.03.03.05v.02c.06.11-.3.37.11.35.78-.11-.15.65-.1.9l.16-.09Z"/>
  </g>
</svg>