<?xml version="1.0" encoding="UTF-8"?>
<svg id="_레이어_6" data-name="레이어 6" xmlns="http://www.w3.org/2000/svg" viewBox="0 0 48 48">
  <defs>
    <style>
      .cls-1 {
        fill: #231815;
      }

      .cls-2 {
        opacity: .8;
      }
    </style>
  </defs>
  <g class="cls-2">
    <path class="cls-1" d="M16.69,41.98c-.13-.22-.39-.34-.67-.43l.43-.46c-.06,0,.09-.03.02.01-.03.04-.02.11-.01.16.03.06.05.11.1.15.05.03-.08.01-.1-.15-.02-.04-.04-.11-.02-.15-.16.13-.17.41-.07.6.1.04.23.06.35.02.26-.07.43-.3.54-.51.1-.22.16-.46.18-.72,0-.1,0-.27-.14-.49-.07-.11-.24-.24-.42-.27-.18-.02-.29,0-.37.01.11-.06.45-.12.67.04.21.15.26.31.31.43.07.25.06.44.04.64-.06.38-.22.81-.68,1.04.03,0,.05,0,.09,0,.49-.25.69-.71.77-1.16,0-.08,0-.16.02-.24,0,.08,0,.17-.02.24,0,.2.01.4-.06.64-.06.14-.21.26-.32.38-.1.1-.25.12-.39.14-.07.03-.15.06-.25.07-.02.02-.05.03-.08.03h0c.07.1.33.15.61.05.29-.09.57-.33.74-.6.37-.54.41-1.22.22-1.55-.12-.2-.35-.49-.86-.64-.25-.07-.54-.04-.71.04-.18.07-.27.15-.35.2-.09.06-.19.03-.21.13.02.04.02.09.01.14-.12.12-.37.11-.35.31,0,.08-.8-.16-.7-.04.4.36.11.09-.05.28-.03.02.13.2.08.24-.2.11-.06.24-.06.44.08.32-.26.32.04.63.02.04.24.42.24.41-.01.09.01.16.04.23l.24.7.41-.33c.12-.09.19-.18.44-.02.05-.39.56-.29.7-.58.12-.27.38-.23.68-.41.06-.07.04-.14.12-.16.08-.02-.11-.22-.07-.28l.14.06s.04-.08.05-.1c.01-.03.06,0,.11.01.1.04.2.08.27.04.09-.12.15-.25.19-.39-.09-.15-.21-.28-.34-.36-.08,0-.15-.01-.22-.02-.05-.03-.1-.03-.15-.05-.17,0-.36,0-.48,0-.44,0-.88.01-1.28.02-.06,0,.03.01-.07.04-.04,0-.14,0-.24-.01.03.02-.08.02-.18,0,0,0,0,0,0,0-.03,0-.14,0-.14,0-.09.04-.39-.04-.24,0,.02,0,.11.05.17.08.03.02-.04-.01-.05-.02.11.06.24.13.36.2-.13,0-.35-.14.03.21-.04.02.12.19.09.26-.03.09-.1.16-.23.25-.04.04-.09.07-.14.09l1.06.6v-.07s-.01-.05-.01-.07c-.03-.24.12-.45.24-.6.06-.07.12-.14.16-.21.02-.04.04-.08.05-.12,0-.02.01-.05.02-.07v-.04s.01-.02.01-.02c0,0,0,0,0-.02l-.06-.11c-.17-.35-.12-.41-.13-.39,0,.02-.1.13-.25.2-.03.01.07.09.07.18.04.18-.07.38-.16.38-.02,0-.03-.01-.04-.02l.06.14h0s0,0,0,0h0s0,0,0,0c0,0,0-.02,0-.04,0-.07.06-.18.07-.18.01,0-.04.04-.09.05-.05.02-.07,0-.04.01l-.42.83c.26.12.45.22.55.25l.1-.19Z"/>
  </g>
</svg>