<?xml version="1.0" encoding="UTF-8"?>
<svg id="_레이어_6" data-name="레이어 6" xmlns="http://www.w3.org/2000/svg" viewBox="0 0 48 48">
  <defs>
    <style>
      .cls-1 {
        fill: #231815;
      }

      .cls-2 {
        opacity: .8;
      }
    </style>
  </defs>
  <g class="cls-2">
    <path class="cls-1" d="M20.51,32.19c.17-.17.35-.5.46-.98.11-.48.13-1.09.12-1.74-.05-1.29-.08-2.8.24-3.66.19-.66.44-1.12.66-1.44.21-.25-.27.33-.66,1.44-.15.51-.23,1.13-.23,1.84.15-.9.46-1.73.79-2.22.13-.4.32-.79.55-1.16,1-1.65,2.54-2.76,4.2-3.71.61-.34,1.89-1.21,2.47-1.63-1.13.96-2.38,1.66-3.52,2.45-1.14.78-2.18,1.7-2.89,2.85.05-.05.09-.11.14-.17.82-1.16,1.96-2.04,3.2-2.8.21-.14.42-.27.65-.4l-.65.4c-.54.37-1.01.77-1.51,1.23-.32.27-.71.56-.98.88-.21.21-.47.46-.71.7-.12.17-.23.35-.34.53-.02.06-.04.12-.07.18h0c.27-.18,1.15-1.29,2.38-2.1,1.19-.81,2.67-1.55,3.04-1.88.61-.48,1.01-1.15,1.64-1.77.21-.21.45-.33.56-.55-.02-.05.03-.16.08-.27.38-.46.88-.86.99-1.35.11-.27,1.22-.82,1.1-.98-.41-.44-.09-.1.18-.9.04-.1-.11-.46-.06-.65.21-.66.05-.9-.09-1.66-.18-.65-.25-.91-.34-1.24-.1-.32-.26-.64-.69-.96-.05-.04-.35-.35-.67-.59-.32-.25-.65-.42-.65-.42-.94-.74-1.72-.69-2.52-1.21-1.06.14-2.39-.12-3.43.12-1.01.25-1.47.03-2.54.16-.3.07-.5.19-.69.21-.21.02-.49.42-.77.59l-.02-.17c-.1.06-.3.18-.39.25-.09.07-.11.01-.12-.04-.02-.11-.04-.23-.25-.13-.43.3-.81.68-1.13,1.15-.2.52-.33,1.07-.33,1.62.06.04.12.09.16.17,0,.16.04.32.06.47.14.1.3.07.4.13.4.04.83.48,1.2.31.09-.05.12-.59.38-.76.07-.04.17.11.31.17.05-.25.21-.21.31-.09.02-.05.05-.09.05-.09.04.03.17.1.17.1.16-.21.39-.39.62-.53.23-.15.38-.22.58-.43.08-.08.22-.26.33-.39.06-.06.25-.04.31-.05.07-.16,0-.31.02-.46.54-.02,1.95,0,1.82-.5.49-.05.56-.3,1.07-.37.67-.1,1.5-.11,2.26.09.41.09.79.26,1.13.49.13.08.25.17.36.25,1.23.97,1.49,2.41,1.19,3.68-.31,1.3-.98,2.51-2.08,3.73-1.12,1.27-2.73,2.21-4.14,3.36-1.41,1.14-2.62,2.59-3.13,4.24-.51,1.68-.32,3.17-.38,4.21-.02,1.06-.19,1.7-.29,2,.04.14.05.27.08.42Z"/>
  </g>
  <g class="cls-2">
    <path class="cls-1" d="M21.41,39.64c.36-.29.28-.62.41-.83.02-.07.04-.12.08-.17.03-.04,0,.04-.08.17-.01.05-.03.11-.04.18.15-.14.3-.28.43-.38,0-.04,0-.08,0-.12.01-.17-.03-.32.04-.5.03-.07,0-.19.08-.26.01.23.04.45.07.68l.03-.03.08-.4s0-.04.02-.07l-.02.07c0,.05.07.08.1.13,0,.04-.06.1-.06.13,0,.03-.08.09-.12.13v.06s0,0,.01,0h0c.34-.19.72-.75.63-.78-.06-.04-.38,0-.43-.04-.02-.02.06-.06-.01-.05-.05.01-.08.01-.12.02-.03-.03.13-.12-.02-.11-.06,0,.68-.26.54-.23-.52.11-.14.03-.11-.03,0,0-.21.02-.19,0,.12-.07-.06-.04-.13-.08-.18-.04.15-.12-.2-.12-.04,0-.27-.06-.27-.06.03-.09-.24-.1.12-.22-.33-.02.03-.18-.04-.25-.07-.07.19-.14.41-.22.03-.02,0-.03.08-.05.07-.02-.14-.02-.1-.05h.14s.03-.03.05-.04c.01,0,.06-.01.11-.01.1,0,.19-.01.26-.03.08-.03.14-.06.18-.09-.07-.02-.16-.03-.25-.05-.07,0-.13,0-.19,0h-.11c-.14,0-.3,0-.4,0-.41.03-.81.02-1.18.05-.11.01-.14.07-.33.1-.06.01-.19,0-.34.01,0,.03-.15.05-.29.04-.01,0-.02.02-.02.02-.05,0-.19,0-.19,0-.17.1-.51.23-.32.31.03.02.14.04.21.05.04,0-.04.04-.06.05.13,0,.29-.02.43-.03-.14.08-.37.25.14.17-.02.05.22.03.25.07.05.06.09.14.13.22.04.04.04.08.05.13v.05c.12.3-.21.64.25.85.47.19.47.51.38.85-.1.33-.3.67-.32.77l.18-.03Z"/>
  </g>
</svg>