<?xml version="1.0" encoding="UTF-8"?>
<svg id="n" xmlns="http://www.w3.org/2000/svg" viewBox="0 0 48 48">
  <defs>
    <style>
      .cls-1 {
        fill: #231815;
      }

      .cls-2 {
        opacity: .8;
      }
    </style>
  </defs>
  <g class="cls-2">
    <path class="cls-1" d="M32.99,38.72c.06.52-.01,1.18-.46,1.79l-1.34,1.82-.33-2.11c-.29-1.83-.76-4.74-.92-7.68-.17-2.94-.06-5.88.13-7.73.13-1.59.3-2.8.44-3.7.14-.75-.17.99-.44,3.7-.1,1.21-.17,2.64-.18,4.34.16-2.11.43-4.11.7-5.53.09-1.05.2-2.11.36-3.18.23-1.73.53-3.44.87-5.12.17-.84.35-1.68.55-2.52.19-.91.5-1.91.68-2.82-1.38.12-2.93.17-4.08.1-.85-.04-2.19-.13-3.52-.33-1.54-.22-3.31-.68-4.42-1,1.14.28,2.33.57,3.45.77l.84.14.66.09c.44.05.89.1,1.33.14.89.07,1.78.11,2.67.1h.76s.84-.06.84-.06l1.67-.13c-.18.95-.48,1.97-.69,2.95-.19.81-.36,1.61-.52,2.42-.33,1.62-.6,3.25-.82,4.89l.1-.55c.25-1.54.52-3.07.86-4.59.16-.78.33-1.48.53-2.32.22-.97.53-1.99.73-2.96-.66.05-1.34.1-2.02.13-.4.02-.86.05-1.21.04-.31,0-.62,0-.94-.02h.93c.35.02.82,0,1.22-.02.69-.04,1.37-.1,2.07-.17-.29,1.32-.58,2.66-.89,4.1-.23,1.06-.54,2.25-.73,3.32-.18.87-.36,1.66-.55,2.48l-.23,1.61c-.01.16-.02.33-.04.5v-.02c.18-.41.49-2.07.97-4.17.5-2.26.99-4.02,2.13-8.39-1.06.07-2.14.15-3.14.19-.25,0-.49,0-.73.01-.14,0-.28,0-.42,0-.27,0-.53-.02-.78-.02-.99-.04-1.74-.1-2.14-.13-.43-.02-.85-.04-1.29-.06-.13,0-.17,0-.36-.02l-.53-.05c-.35-.03-.69-.07-1.03-.12-.67-.08-1.36-.21-2.02-.33-.33-.06-.66-.13-1-.19l-.25-.05c-.09-.02-.19-.05-.15,0,0,.04.04.09-.02.13l-.05.05s-.09.02-.14.02l-.15.02h-.25c.76.92,1.39,1.68,2.11,2.56.12.1.45.53.56.88.13.52.15.77.18,1.09.02.31.03.62.03.93,0,.62,0,1.21.07,1.72.08.73-.79,2.67-.67,2.82.49.59.15.16-.06,1.82-.03.2.11.88.03,1.28-.32,1.34-.21,1.76-.46,3.32-.34,2.32-.82,2.74-1.12,4.8-.02.12-.24.96-.57,1.68-.32.73-.82,1.29-.82,1.29-.85.78-1.79,1.05-2.67,1.05-.89-.03-1.74-.32-2.46-.93-1.04-.37-2.02-1.24-2.76-2.34-.75-1.09-1.26-2.33-1.65-3.45-.41-1.12-.5-1.98-.52-2.78,0-.81.05-1.59.19-2.62.03-.59.06-1.03.15-1.37.1-.33-.02-1.19.13-1.77l.12.17c.05-.19.14-.58.18-.77.05-.19.09-.13.13-.08.08.12.15.23.29-.09.25-.78.51-1.56.82-2.35l.14-.61c.04-.16.08-.33.13-.48.1-.31.23-.6.35-.81-.03-.06-.06-.14-.05-.22.07-.13.14-.23.19-.29-.02-.16-.09-.29-.08-.4-.08-.19.02-.45.22-.65.19-.19.45-.34.33-.55-.05-.05-.53-.2-1.11,0-.57.19-1.06.63-1.36.89-.16.11-.01-.31.02-.56-.38.42-.53.64-.64.69-.1.05-.11-.07-.04-.29-.16.21-.29.43-.29.43,0-.08-.04-.32-.04-.32-.4.56-.75,1.27-.97,1.83-.25.57-.48,1.16-.68,1.75-.39,1.2-.68,2.43-.7,3.62-.04.5.01,1.35.07,1.91.04.28-.07.89-.07,1.12.15.39.3.33.46.49-.05.86.02,2.24.27,3.37.24,1.14.67,1.98.87,1.84.52,1.31.84,1.47,1.64,2.67.26.4.59.79.94,1.2.34.41.77.82,1.23,1.18.92.73,2.03,1.33,3.26,1.63,1.33.3,2.84.2,4.05-.56.45-.28.82-.63,1.13-.98.8-.94,1.24-1.99,1.6-2.98.35-.99.62-1.94.88-2.89.52-1.89.9-3.75,1.17-5.61.27-1.86.42-3.73.43-5.65,0-1.8-.09-4.38-.72-5.08-.1-.16-.23-.34-.4-.5.69,0,1.92.27,4,.37.94.05,1.88.06,2.82.04l.61-.02.52-.03,1.04-.09c-.08.58-.29,1.22-.41,1.88-.19.83-.37,1.67-.53,2.49-.33,1.65-.62,3.28-.85,4.87-.46,3.18-.72,6.19-.77,8.9-.12,5.41.58,9.53.96,11.23l.06.16.97,2.53,1.21-2.15c.35-.62.42-1.31.22-1.95Z"/>
  </g>
</svg>