<?xml version="1.0" encoding="UTF-8"?>
<svg id="o" xmlns="http://www.w3.org/2000/svg" viewBox="0 0 48 48">
  <defs>
    <style>
      .cls-1 {
        fill: #231815;
      }

      .cls-2 {
        opacity: .8;
      }
    </style>
  </defs>
  <g class="cls-2">
    <path class="cls-1" d="M11.42,37.95c2.24.28,9.74-.26,13.02-.33,1.33-.06,2.02-.08,2.74-.08.29,0,.11.01-.39.03-.51.01-1.34.03-2.35.05-.96.05-2.09.11-3.42.17,1.65.07,3.25.14,4.43.19.89-.06,1.8-.11,2.72-.17,1.09-.07,2.17-.13,3.22-.2,1.32-.17,2.59-.22,3.81-.35l.91-.09.22-.02h.11s.05-.02.05-.02h-.06s-.44-.02-.44-.02c-.58,0-1.15-.08-1.68-.14-.17-.03-.37-.08-.61-.13-.42-.07-.91-.26-1.38-.42-.46-.24-.92-.44-1.24-.78-.39-.09-.75-.17-1.07-.24-.08-.02-.16-.04-.24-.05l-.14-.06c-.09-.04-.18-.08-.26-.11.33.19,1.2.31,1.87.46.41.38.85.56,1.28.8.44.16.89.35,1.35.43.55.14,1.12.19,1.7.24l.88.02c.07,0,0,0-.03.01l-.11.02-.22.03-.45.06c-1.19.19-2.42.26-3.68.52l-3.13.2h.6s2.73-.15,2.73-.15c.46-.13.91-.17,1.35-.22l1.28-.18,1.21-.19.29-.05.14-.03h.07s-.07-.01-.07-.01h-.56c-.33,0-.66-.07-.97-.09.31.03.63.09.97.08h.61c-.21.06-.43.1-.65.14-.42.09-.85.18-1.3.28-.29.06-.62.11-.98.15-.18.02-.36.05-.54.07-.18.04-.35.1-.51.14-.03,0-.05,0-.07,0-1,.05-2.07.04-3,.04l-1.6.09c-.15.02-.3.04-.46.05,0,0,.02,0,.03,0,.27.04.92.06,1.89.06,1.1-.01,2.47-.03,3.98-.05.15-.05.3-.11.45-.16.14-.03.29-.05.43-.08.28-.05.55-.11.8-.18.5-.13.93-.28,1.28-.43l.25-.12s-.13,0-.19,0c-.14,0-.27.03-.39,0-.11-.01-.21-.03-.31-.04-.09-.04-.17-.07-.24-.1-.12-.04-.21-.11-.29-.17-.2-.14-.49-.23-.85-.5-.18-.12-.38-.23-.59-.34-.21-.12-.43-.33-.65-.49l-2.33-.31c-.42-.13-.84-.27-1.27-.4-.93-.28-1.4-.64-1.99-.85-.09.01-.37-.09-.65-.18-.96-.51-1.69-1.22-2.42-1.58-.24-.15-.56-.61-.8-1.04-.24-.44-.44-.82-.53-.81-.67.1-.19.02-1.06-.91-.09-.12-.59-.36-.78-.61-.57-.9-.91-1.03-1.64-2.01-1.11-1.46-.97-1.97-1.88-3.32-.05-.08-.34-.7-.56-1.32-.22-.62-.37-1.24-.37-1.24-.22-1.94-.32-3.27.44-4.64.09-.88.54-1.84,1.18-2.64.65-.81,1.46-1.48,2.2-2.05.74-.57,1.36-.84,1.97-1.01.61-.17,1.21-.26,1.99-.32.44-.06.76-.13,1.02-.08.25.04.86-.19,1.3-.12l-.11.14c.14.02.42.07.56.09.14.03.09.08.05.12-.08.09-.16.17.06.28.53.16,1.06.38,1.55.64.54.15,1.06.36,1.54.63.07-.03.14-.06.23-.05.15.08.3.17.44.26.18-.03.26-.16.38-.18.29-.31,1.14.08,1.31-.3.01-.07-.16-.35-.41-.67-.25-.32-.56-.66-.73-.91-.07-.13.26-.04.46-.07-.62-.49-.59-.62-.24-.55-.15-.12-.3-.24-.3-.24.07-.01.27-.05.27-.05-.82-.68-1.79-1.28-2.87-1.66-1.07-.38-2.24-.52-3.26-.37-.44.04-1.16.24-1.61.41-.23.08-.76.12-.94.16-.28.22-.19.36-.28.54-.7.14-1.79.5-2.62.98-.83.47-1.37,1.01-1.17,1.18-.89.71-.9,1.05-1.63,1.95-.96,1.22-1.81,3.07-2.05,4.97-.12,1.04-.15,2.03-.06,3.03.04.37.09.73.15,1.07.73,3.67,2.43,6.49,4.46,8.9,1.04,1.2,2.2,2.29,3.52,3.23.67.46,1.36.91,2.11,1.31l.28.15c.08.04.12.05.18.08l.35.15c.24.11.49.19.77.29.25.1.52.18.81.26.89.28,1.9.54,2.93.71.63.12,1.28.19,1.91.24l.94.05-.83.05c-1.19.06-2.36.12-3.5.17-.83.04-1.65.08-2.44.13-.84.03-1.66.07-2.45.1-1.95.07-3.77.13-5.39.19-3.22.09-5.65.15-6.76.18l-.98.26Z"/>
  </g>
</svg>