<?xml version="1.0" encoding="UTF-8"?>
<svg id="o2" xmlns="http://www.w3.org/2000/svg" viewBox="0 0 48 24">
  <defs>
    <style>
      .cls-1 {
        fill: #231815;
      }

      .cls-2 {
        opacity: .8;
      }
    </style>
  </defs>
  <g class="cls-2">
    <path class="cls-1" d="M29.61,15.41c-.38.2-1.02.46-1.7.4-.68-.04-1.38-.31-1.93-.81-.57-.52-.83-1.2-.95-1.8-.11-.61-.06-1.15.03-1.54.1-.6.27-1.03.42-1.33.15-.24-.19.32-.42,1.33-.07.46-.11,1.02.04,1.69-.05-.88.21-1.61.45-2.08.07-.36.19-.73.34-1.08.32-.76.8-1.48,1.35-2.02.26-.26.55-.5.9-.58.35-.09.72.05.98.28.2.16.44.49.54.87.1.34.14.83.11,1.11-.02-.29-.06-.6-.11-.84-.05-.22-.13-.45-.25-.65-.24-.4-.71-.71-1.19-.61-.24.05-.44.18-.63.34-.19.16-.34.32-.54.56-.37.45-.68.96-.91,1.5.03-.05.07-.11.1-.16.28-.55.64-1.05,1.06-1.48.33-.33.73-.66,1.19-.57.15.02.29.09.41.19-.12-.09-.26-.16-.41-.19-.41-.05-.73.28-.99.58-.19.18-.53.51-.72.79-.17.24-.37.44-.54.68-.08.16-.16.33-.23.5l-.03.17h0c.13-.09.33-.41.64-.8.15-.19.33-.41.53-.61.1-.1.21-.21.32-.3l.17-.15.11-.07c.27-.18.57-.23.76-.08.19.13.25.28.3.32.07.07.19.13.31.25.14.22.27.52.31.84.03.22-.05.4.02.57.05.02.08.1.12.19.01.45-.22.85-.15,1.2.02.28-.92.62-.8.68.43.34.13.11-.13.52-.04.04.06.32-.03.41-.33.25-.25.45-.55.82-.43.6-.75.38-1.18.97-.04.09-1.01.63-1.03.61-.85.15-1.4.45-2.11.1-.8.35-1.88-.13-2.71-.22-.85-.1-1.14-.45-1.72-.9-.17-.1-.32-.14-.4-.25-.07-.11-.39-.03-.53-.15l.11-.11s-.13-.12-.18-.16c-.04-.04,0-.07.03-.11.07-.07.14-.14.11-.25-.13-.18-.24-.35-.32-.49-.13-.05-.27-.1-.41-.15-.06.02-.13.04-.18.05-.04-.02-.1-.04-.13-.06-.15.01-.3.06-.4.06-.4.13-.84-.18-1.21-.08-.12.05-.05.69-.05,1.04-.02.09-.21,0-.38-.02.19.41.09.5-.13.4.05.1.09.21.09.21-.06,0-.23,0-.23,0,.49,1.21,1.42,2.21,2.4,2.47.22.07.56.09.78.1.11,0,.31.16.39.2.18-.08.21-.24.31-.36.56.35,1.89.86,1.93.33.49.1.62-.13,1.13-.1.67.02,1.54.03,2.39-.05.47-.07.92-.12,1.37-.21.17-.04.33-.07.49-.12,1.67-.44,3.15-1.36,4.01-2.74.85-1.36,1.13-2.99.8-4.64-.09-.43-.17-.79-.36-1.31-.19-.48-.46-.92-.84-1.23-.37-.31-.84-.51-1.32-.5-.48,0-.92.24-1.29.54-.19.15-.35.32-.52.5-.16.17-.28.31-.4.48-.25.32-.47.66-.67,1-.39.7-.66,1.42-.8,2.17-.31,1.45.02,3.15,1.23,4.05,1.1.85,2.4.79,3.04.49.22-.17.4-.37.56-.58Z"/>
  </g>
</svg>