<?xml version="1.0" encoding="UTF-8"?>
<svg id="p" xmlns="http://www.w3.org/2000/svg" viewBox="0 0 48 48">
  <defs>
    <style>
      .cls-1 {
        fill: #231815;
      }

      .cls-2 {
        opacity: .8;
      }
    </style>
  </defs>
  <g class="cls-2">
    <path class="cls-1" d="M37.89,19.4c.37-1.4.58-4.65-.16-7.98-.36-1.66-.86-3.35-1.71-4.63-.82-1.29-2.04-2.07-3.03-2.31-1.56-.36-2.77.31-3.51.85-.31.25-.13.04.46-.34.58-.36,1.73-.86,3.04-.51,1.16.27,2.42,1.16,3.28,2.64-.47-.96-1.16-1.79-1.98-2.34-.81-.56-1.75-.82-2.55-.79-1.17.13-2.24.77-3.07,1.62-.92.95-1.49,2.17-1.87,3.39-.39,1.23-.61,2.48-.85,3.72-.47,2.49-.86,4.98-1.18,7.51-.26,1.84-.55,5.87-.69,7.66.16-3.75.49-7.5,1.03-11.21.27-1.86.59-3.71.96-5.55.38-1.83.87-3.77,2.13-5.31-.14.16-.28.32-.41.49-1.19,1.73-1.6,3.77-1.99,5.69-.4,1.94-.74,3.88-1.02,5.84-.09.66-.18,1.33-.28,2.03l.28-2.03c.23-1.74.43-3.44.77-5.32.23-1.16.53-2.48.9-3.65.31-.95.76-1.78,1.34-2.55.36-.51.78-.97,1.26-1.37.13-.12.28-.25.45-.37h-.02c-.36.14-1.54.86-2.44,2.43-.92,1.54-1.42,3.67-1.87,5.71-.93,4.14-1.46,8.49-1.51,9.73-.11,1.98.09,3.8.06,5.99-.01.73-.11,1.35-.04,1.92.05.06.08.34.11.62,0,1.46-.15,2.93.04,4.06.08.78-.55,3.05-.38,3.22.6.57.14.15.32,2.04.01.23.33.94.38,1.39.08,1.11.26,1.64.51,2.5l1.95-.23c-.03-.33-.07-.71-.09-1.2-.22-2.57.11-3.14-.28-5.42-.04-.28-.33-3.85-.33-3.85,0-2.8-.31-4.52.02-6.71-.38-2.51-.06-5.87-.17-8.55-.07-1.35-.07-2.31-.02-3.23.03-.45.06-.91.09-1.4.03-.48.06-1.07-.17-1.87-.37-1.03-1.12-1.49-1.68-1.76-.31-.15-.74-.2-1.16-.21-.4,0-.81,0-1.16-.04l.18-.13c-.23-.03-.7-.08-.93-.1-.23-.02-.17-.07-.11-.11.12-.09.24-.18-.17-.27-.98-.12-2-.17-3.04-.15-1.02.14-2.02.33-2.98.58-.05.07-.1.15-.23.23l-.84.27c-.14.18-.05.32-.15.44.08.4-.99,1.05-.62,1.35.13.07,1.71-.23,2.44-.13.17.03-.19.23-.32.39.91-.15.98.02.63.19.21-.02.43-.04.43-.04-.05.06-.19.22-.19.22,2.27-.14,4.87.2,6.94.27.06,0,.14,0,.23.01.04,0,.03-.02.05-.04.04-.02.1-.03.14-.02.02-.08.07.33.06.5.17.27.32.23.48.36-.07,1.71-.18,5.38.32,5.28,0,1.4.25,1.67.3,3.13.06,1.93.15,4.37.23,6.78.06,1.32.08,2.58.1,3.86.01.48.02.94.03,1.38.09,3.62.11,6.87.13,10.03l1.65-.2c-1.01-4.99-1.09-9.87-1.16-15.64-.05-4.68.34-9.48,1.1-14.06.42-2.27.72-4.59,1.67-6.45.9-1.85,2.76-3.18,4.47-2.93.85.11,1.64.53,2.26,1.09.62.56,1.08,1.26,1.44,1.99.69,1.47,1.03,3.05,1.27,4.4.46,2.74.35,4.82.28,5.92.05.43.08.86.1,1.3Z"/>
  </g>
</svg>