<?xml version="1.0" encoding="UTF-8"?>
<svg id="pp" xmlns="http://www.w3.org/2000/svg" viewBox="0 0 48 48">
  <defs>
    <style>
      .cls-1 {
        fill: #231815;
      }

      .cls-2 {
        opacity: .8;
      }
    </style>
  </defs>
  <g class="cls-2">
    <path class="cls-1" d="M24.85,30.04c-.01.96.18,2.55.95,4.32.75,1.76,2.1,3.65,3.95,5.07.45.35.91.63,1.36.7.44.08.92-.06,1.34-.33.86-.55,1.31-1.61,1.59-2.66.58-2.15.82-4.18.97-5.71.19-2.37.21-4.19.27-5.56.01-1.16.07,1.53-.27,5.56-.16,1.79-.39,3.94-1.1,6.28,1.04-2.89,1.4-5.95,1.63-8.1.06-1.59.07-3.2.09-4.84.03-3.59.02-7.15-.45-10.67-.25-1.75-.67-3.57-1.86-5.03-.59-.71-1.46-1.28-2.44-1.37-.49-.05-1,.02-1.46.25-.46.23-.82.58-1.12.95-.79,1.06-1.7,2.81-2.32,4.73-.64,1.9-.92,3.92-.99,5.23l.97.08c.02-.16.04-.25.05-.34l-.04.34-.98-.08c.11-2.65.76-5.27,1.89-7.67.28-.6.6-1.18.94-1.75.35-.57.79-1.18,1.48-1.56,1.43-.76,3.11-.12,4.03.93.96,1.05,1.44,2.36,1.75,3.65.3,1.3.43,2.6.55,3.9.22,2.6.24,5.2.23,7.78.01-.28.02-.57.03-.85.02-2.75-.01-5.52-.3-8.28-.15-1.38-.35-2.79-.88-4.16-.52-1.32-1.41-2.76-3.02-3.3-.53-.17-1.11-.22-1.7-.1-.59.11-1.15.45-1.55.86.39-.4.94-.75,1.53-.86.59-.12,1.18-.07,1.71.11,1.43.46,2.32,1.65,2.89,2.82.58,1.2.88,2.5,1.07,3.85.22,1.66.28,3.56.33,5.21.03,1.35-.03,2.59-.09,3.87l-.03,2.46c0,.24.01.5.02.76,0,0,0-.02,0-.03.09-.51.21-2.18.29-4.48.07-2.3.1-5.21-.26-8.22-.19-1.51-.55-3.12-1.42-4.55-.44-.71-1.03-1.38-1.81-1.85-.79-.47-1.7-.67-2.61-.55-.92.11-1.75.69-2.2,1.21-.48.54-.76,1.03-.99,1.44-.48.83-.79,1.51-.96,1.93-.96,2.37-1.27,4.75-1.3,7.42l1.71.14c.04-.39.07-.78.08-1.18.04-1.08.06-2-.12-2.81-.06-.07-.15-.48-.27-.87-.22-1.04-.5-2.08-.88-3.01-.09-.23-.2-.48-.33-.72-.13-.23-.33-.54-.55-.75-.44-.45-1.03-.67-1.58-.64-1.86-.12-4.5,2.11-4.55,2.43-.07.54-.06.61-.26.84-.18.23-.59.62-1.2,1.86-.16.3-.37,1.37-.6,1.97-.83,2.01-.84,2.67-1.39,5.07-.34,1.8-.59,2.89-.77,3.94-.2,1.05-.32,2.06-.3,3.7,0,.2-.03,1.57,0,2.89.05,1.32.17,2.58.17,2.58.08,1.74.29,3.18.54,4.5.14.66.26,1.29.39,1.92.15.63.32,1.33.81,1.97l.68.9.26-1.18c.08-.35.16-.71.24-1.09.05-3.65-.48-8.33-.87-12.03-.43-3.71-.27-5.3-.21-8.56,0-.93-.06-1.63,0-2.17.05-.55-.19-1.86-.17-2.79l.15.23c0-.31.02-.93.03-1.24,0-.31.06-.23.11-.16.1.15.2.31.26-.24.04-.65.07-1.3.11-1.96l.05-1c.02-.39.02-.82-.03-1.29l-.07-.36c-.03-.15-.08-.33-.14-.48-.1-.31-.24-.61-.42-.88-.35-.54-.84-.98-1.42-1.21-.57-.26-1.22-.28-1.84-.21-.29.04-.38.06-.58.1l-.51.1c-.07.08-.15.15-.34.24-.4.1-.8.2-1.19.31-.21.19-.1.33-.24.45.07.39-1.45,1.15-.97,1.43.17.05,2.37-.38,3.39-.28.24.03-.28.23-.48.4,1.3-.17,1.29.01.86.18.07,0,.15,0,.22-.01.03,0,.05,0,.07,0,.04,0,.06,0,.06,0-.04.05-.08.2-.08.2.18,0,.28.19.23.31,0,.01,0,0,0,.02v.1s.01.22.01.22c0,.15,0,.33-.02.5-.03.44-.06.88-.08,1.32-.1,1.79-.12,3.57.02,5.23.04.71.2,1.89.3,2.68.05.39.01,1.26.02,1.58.16.55.32.46.48.68-.03,2.45.23,7.74.75,7.53.19,1.96.49,2.33.76,4.33.29,2.19.62,4.88.23,7.62l1.4-.41c-.21-.22-.4-.61-.54-1.11-.44-1.69-.71-3.45-.86-5.18-.06-.65-.1-1.28-.12-1.89-.13-3.28.18-6.35.74-9.26.56-2.9,1.36-5.68,2.37-8.28.52-1.29,1.14-2.51,1.96-3.55.77-.99,2.04-2.07,2.65-1.86.41.12.57.35.89,1.05.29.65.53,1.32.73,2.02.38,1.4.56,2.9.48,4.45,0,.2-.03.4-.05.61l1.4.12c.01-3.14.9-6.36,2.53-9.1.4-.66.89-1.18,1.53-1.3.65-.13,1.38.06,1.95.49,1.16.88,1.77,2.44,2.1,3.93.6,3.09.67,6.28.68,9.32-.02,3.05-.02,6.02-.22,8.77-.11,1.38-.26,2.71-.51,3.97-.25,1.25-.52,2.52-1,3.43-.45.91-1.3,1.44-1.94,1.38-.6-.02-1.42-.73-2.1-1.34-1.36-1.26-2.26-2.63-2.83-3.83-.59-1.2-.86-2.22-1.03-2.93-.21-.54-.35-1.1-.48-1.67Z"/>
  </g>
</svg>