<?xml version="1.0" encoding="UTF-8"?>
<svg id="nn" xmlns="http://www.w3.org/2000/svg" viewBox="0 0 48 48">
  <defs>
    <style>
      .cls-1 {
        fill: #231815;
      }

      .cls-2 {
        opacity: .8;
      }
    </style>
  </defs>
  <g class="cls-2">
    <path class="cls-1" d="M30.13,14.09c.19-.98.17-3.17-.19-5.44-.19-1.13-.34-2.35-.82-3.13-.47-.79-1.36-1.03-2.05-1.06-1.07-.01-1.91.27-2.52.46-.26.08-.09.02.36-.14.46-.13,1.24-.37,2.15-.31.8.01,1.74.29,2.2,1.26-.22-.62-.69-1.11-1.31-1.35-.61-.24-1.26-.28-1.79-.26-.77.13-1.51.39-2.23.7-1.59.72-2.99,1.84-3.97,3.28-1,1.42-1.5,3.21-1.4,4.98,0,1.3.67,3.97,1.18,5.14-.55-1.2-.88-2.45-1.11-3.71-.23-1.27-.3-2.61.02-3.92.64-2.61,2.62-4.67,4.92-5.83l-.38.17c-2.4,1.26-4.44,3.58-4.84,6.46-.06.48-.08.97-.08,1.46,0-.49.01-.98.08-1.46.16-1.25.55-2.47,1.33-3.61.49-.7,1.19-1.36,1.84-1.88.53-.43,1.1-.71,1.68-.97.36-.2.73-.36,1.11-.51.11-.05.23-.1.34-.16,0,0-.01,0-.02,0-.27,0-1.11.2-2.15.75-1.04.54-2.27,1.47-3.2,2.75-.95,1.26-1.5,2.9-1.58,4.26-.09,1.35.11,2.36.2,2.79.34,1.37.96,2.51,1.72,3.91.26.46.43.9.74,1.19.06,0,.22.15.38.29.69.81,1.52,1.64,2.42,1.82.29.09.8.43,1.37.63.56.21,1.1.28,1.16.2.21-.3.23-.35.39-.35.16,0,.47.05,1.16-.19.08-.03.23-.15.4-.28.09-.07.18-.14.25-.2.09-.07.17-.12.18-.12.42-.1.46-.33.94-.86.02-.03.04-.06.06-.08.64-.76.56-1.05.74-.64.01.01.04.27.05.61.01.38.03.74.03.74-.05.35-.07.65-.09.94-.02.38-.04.73-.05,1.06-.05.71-.11,1.37-.34,2.09.23,1.71-.21,3.96-.15,5.77.06,1.81-.19,2.56-.39,4.15-.03.45,0,.79-.06,1.06-.07.27.16.9.14,1.35l-.15-.11c0,.15-.02.45-.03.6,0,.15-.06.11-.11.08-.1-.07-.2-.14-.26.12-.06.63-.1,1.28-.12,1.94.1.65.21,1.29.33,1.91.07.03.14.07.19.16l.13.56c.15.11.3.06.4.13.41-.02.84.75,1.21.55.11-.08.09-1.17.27-1.66.05-.12.2.14.35.25-.03-.64.13-.68.27-.42,0-.15.01-.3.01-.3.05.04.2.14.2.14.11-1.62.39-3.42.17-4.98-.03-.33-.16-.89-.24-1.26-.04-.18.04-.6.05-.75-.14-.26-.29-.22-.44-.33.11-1.16.37-3.65-.15-3.57.03-.93-.2-1.12-.21-2.09,0-1.28.02-2.91.11-4.51.04-.91.08-1.56.24-2.94.05-.45.1-.9.15-1.32.19-1.48.41-2.94.63-4.33l.08-.53.04-.26s-.02.03-.03.04c-.05.1-.11.16-.16.14-.09-.05-.18-.21-.1-1.58-1.55,2.78-2.41,4.31-3.04,5.16-.31.4-.59.63-.88.84-.15.1-.29.21-.44.29-.14.08-.32.19-.39.22-.75.37-1.55.61-2.28.59-1.44-.03-2.89-1.21-3.85-2.91-1.35-2.57-2.24-6.03-.8-8.65,1.38-2.62,4.27-4.23,6.7-4.39.6-.02,1.14.09,1.52.34.38.24.61.62.77,1.08.3.93.42,2.09.55,3,.22,1.88.23,3.29.25,4.04l.23.87Z"/>
  </g>
  <g class="cls-2">
    <path class="cls-1" d="M21.94,35.82c-.74.04-2.24.32-3.8.12-1.56-.16-3.08-.86-3.83-1.5-.6-.45-.98-.9-1.22-1.24-.18-.31.22.42,1.22,1.24.46.34,1.05.69,1.8.97-.89-.49-1.6-1.13-1.99-1.66-.36-.3-.68-.65-.97-1.03-1.23-1.67-1.68-3.93-.85-5.76.15-.32.42-.83.81-1.2.38-.38.87-.57,1.18-.59-1.28.27-2.07,1.75-2.23,3.15-.15,1.43.28,2.95,1.14,4.14-.04-.07-.07-.14-.11-.21-.82-1.31-1.13-2.92-.8-4.34.06-.24.12-.48.23-.71-.1.23-.17.47-.23.71-.12.64-.07,1.29.07,1.98.07.43.15.94.34,1.36.14.34.24.67.39,1.01.13.19.25.39.4.56.05.05.1.1.15.15h0c-.07-.33-.92-1.72-.97-3.23-.06-.74.08-1.46.26-2,.19-.54.42-.89.51-1.05.27-.48.42-1.04,1.1-1.21.22-.05.42.03.61-.03.02-.05.12-.08.22-.1.52.03,1,.37,1.45.38.32.05.78,1.12.89,1.01.44-.37.13-.11.73.27.07.05.42,0,.56.11.44.42.68.36,1.28.7.93.47.88.88,1.79,1.23.05.03.39.24.69.46.31.22.6.45.6.45.74.86,1.39,1.26,1.63,2.19.88.63,1.31,2.01,1.89,2.93.59.93.56,1.47.77,2.42.09.26.2.44.2.61,0,.17.35.44.43.71h-.16c.03.09.08.26.1.35.02.09-.03.09-.08.09-.11,0-.21,0-.22.17.08.38.17.76.28,1.14.21.32.43.65.66.99.07,0,.14,0,.21.03l.23.28c.16.01.3-.07.41-.06.38-.15.93.17,1.24-.08.08-.08-.12-.73-.06-1.08.03-.09.21.02.37.03-.15-.37,0-.45.17-.35-.02-.09-.05-.19-.05-.19.05,0,.21.02.21.02-.21-1.01-.33-2.22-.92-3.07-.11-.19-.36-.47-.53-.66-.08-.09-.12-.37-.16-.46-.2-.09-.32,0-.49,0-.19-.73-.76-2.29-1.2-1.98-.28-.53-.55-.51-.9-1.03-.48-.68-1.09-1.53-1.75-2.33-.38-.44-.73-.84-1.09-1.25-.14-.15-.28-.29-.41-.43-1.44-1.47-2.82-2.65-4.37-3.6-.78-.47-1.58-.87-2.48-1.19-.9-.3-1.99-.53-3.17-.19-.58.18-1.14.51-1.54.94-.41.43-.7.92-.92,1.42-.42,1.01-.55,2.1-.45,3.14.21,2.08,1.29,3.94,2.77,5.09,1.46,1.17,3.15,1.64,4.48,1.78,1.35.14,2.39-.02,2.93-.15.19-.12.37-.25.55-.37Z"/>
  </g>
</svg>