<?xml version="1.0" encoding="UTF-8"?>
<svg id="r" xmlns="http://www.w3.org/2000/svg" viewBox="0 0 48 48">
  <defs>
    <style>
      .cls-1 {
        fill: #231815;
      }

      .cls-2 {
        opacity: .8;
      }
    </style>
  </defs>
  <g class="cls-2">
    <path class="cls-1" d="M39.8,36.27c-.13-.85-.35-2.27-1.55-3.06-.61-.4-1.46-.62-2.4-.66-.93-.03-1.95.11-2.96.35-2,.51-3.94,1.52-5.46,2.76-1.55,1.21-2.69,2.61-3.48,3.7-.47.69-.84,1.35-1.02,1.66l-.51-.31c.83-1.08,1.36-1.77,1.81-2.35.5-.65-.3.45-1.8,2.36l.48.3c.29-.52.63-1.08,1.04-1.65.9-1.3,2.13-2.74,3.87-4.06-2.28,1.51-4.06,3.59-5.07,5.23-.06.1-.11.2-.17.31l.16.1c.77-1.04,1.55-2.1,2.34-3.17,1.88-2.59,3.64-5.19,5.25-7.89,1.59-2.7,3.09-5.48,4.09-8.53.37-1.1.83-2.9.97-4.76.07-.93.06-1.87-.08-2.72-.13-.85-.41-1.6-.68-2.14.61,1.11.84,2.37.87,3.57.03,1.21-.12,2.39-.34,3.56-.44,2.33-1.28,4.56-2.29,6.67-2.04,4.22-4.61,8.12-7.3,11.91l.46-.6c2.83-3.98,5.56-8.08,7.6-12.61.33-.77.64-1.57.94-2.4-.28.82-.59,1.62-.94,2.4-.86,2.03-1.83,3.93-3.02,5.99-.75,1.26-1.7,2.65-2.52,3.86-.67.99-1.36,1.85-2.06,2.75l-1.29,1.77c-.12.18-.25.37-.38.56l.02-.02c.67-.63,3.88-4.57,6.68-9.04,1.4-2.23,2.7-4.61,3.54-6.72.86-2.1,1.25-3.9,1.37-4.7.19-1.28.22-2.52.05-3.84-.18-1.3-.59-2.7-1.52-3.96-.61-.83-1.33-1.49-2.12-1.77-.09,0-.48-.12-.87-.19-2-.51-4-.2-5.33.38-.47.19-1.44.36-2.3.61-.86.24-1.62.54-1.67.66-.36.92-.15.17-2.08,1.69-.24.19-.79.99-1.2,1.4-1.43,1.37-1.67,1.95-2.83,3.85-.79,1.45-1.26,2.33-1.69,3.18-.42.86-.78,1.7-1.12,3.11-.04.17-.4,1.34-.67,2.48-.28,1.14-.49,2.24-.49,2.24-.85,3.42-.84,5.61-1.37,8.32.06,1.01.07,2.12.09,3.28l1.03-.03c-.09-2.44.12-5.07.23-7.32.18-3.3.63-4.65,1.32-7.44.18-.8.26-1.41.44-1.86.16-.45.21-1.63.43-2.42l.1.23c.07-.27.22-.79.31-1.05.08-.26.11-.18.14-.11.06.16.12.31.31-.13.45-1.32.89-2.63,1.35-3.97.31-1.09.63-2.18.94-3.26l.11-.39s.04-.08,0-.08h-.11s-.22.04-.22.04l-.87.11-1.7.22c-.17.08-.35.16-.66.25-.59.09-1.18.18-1.77.27-.19.16-.11.31-.24.42.04.41-1.38.94-.99,1.28.07.05.61.04,1.25.02.58,0,1.03.01,1.27.09.08.05-.33.22-.49.38.59-.05.38.12.09.28.07,0,.15.01.15.01-.09.06-.29.22-.29.22.03,0,.05.02.06.03,0,.03-.05.09-.07.12-.05.08-.11.15-.15.2l-.06.06-.03.03s0-.05-.05.09c-.15.38-.28.76-.41,1.14-.53,1.52-.94,3.08-1.17,4.56-.11.63-.21,1.7-.26,2.41-.03.35-.24,1.11-.3,1.39.05.51.22.46.33.69-.52,2.13-1.12,6.87-.57,6.75-.1,1.76.12,2.12.14,3.95,0,.81.04,1.68.09,2.83l1.69-.05c-.06-1.57-.03-3.55.17-5.5.13-1.6.39-3.13.72-4.65.12-.57.25-1.12.38-1.64,1.47-5.62,3.74-10.37,7.28-13.77,1.77-1.68,3.85-3.02,6.2-3.77,1.18-.37,2.41-.6,3.59-.46,1.18.13,2.2.73,2.9,1.8.68,1.01.96,2.32.98,3.65.02,1.34-.17,2.72-.47,4.06-.61,2.69-1.75,5.25-3.05,7.66-2.61,4.85-5.78,9.17-8.73,13.05l1.04.64c1.22-2.29,2.89-4.16,4.69-5.49,1.8-1.33,3.71-2.16,5.45-2.5,1.75-.38,3.29-.3,4.25.13.96.42,1.29,1.07,1.55,1.63.24.38.45.84.64,1.33Z"/>
  </g>
</svg>