<?xml version="1.0" encoding="UTF-8"?>
<svg id="s" xmlns="http://www.w3.org/2000/svg" viewBox="0 0 48 48">
  <defs>
    <style>
      .cls-1 {
        fill: #231815;
      }

      .cls-2 {
        opacity: .8;
      }
    </style>
  </defs>
  <g class="cls-2">
    <path class="cls-1" d="M31.69,30.69c.22.63.82,1.65,1.96,2.39,1.11.76,2.78,1.03,4.3.25,1.52-.73,2.69-2.2,3.22-3.74.57-1.55.67-3.1.69-4.25,0-1.79-.2-3.15-.41-4.16-.22-.85.46,1.09.41,4.16-.01,1.35-.12,2.98-.82,4.67,1.04-2.06,1.17-4.45,1.18-6.09-.1-1.21-.3-2.43-.67-3.64-.42-1.31-.98-2.6-1.93-3.64-.48-.51-1.07-.93-1.75-1.15-.68-.22-1.39-.25-2.08-.18-2.78.32-5.18,1.95-7.13,3.85-1.5,1.35-4,4.89-5.24,6.29,2.43-3.05,4.63-6.61,8.17-8.8.87-.54,1.82-.98,2.82-1.25.99-.27,2.07-.42,3.14-.19,1.09.23,2,.96,2.63,1.79.64.84,1.07,1.78,1.42,2.74l-.21-.63c-.4-.99-.92-1.98-1.72-2.79-.78-.83-1.99-1.33-3.13-1.32-2.28.01-4.37.97-6.11,2.26-.59.44-1.15.93-1.71,1.45.54-.51,1.1-1,1.71-1.45,1.54-1.15,3.26-2.13,5.46-2.38.68-.06,1.46,0,2.19.27.74.27,1.36.76,1.82,1.26.76.84,1.15,1.77,1.49,2.71.24.6.43,1.21.59,1.83.05.18.11.37.16.57,0,0,0-.02,0-.03,0-.4-.15-1.73-.91-3.43-.39-.84-.95-1.81-1.96-2.59-.5-.38-1.14-.68-1.79-.81-.65-.14-1.31-.15-1.95-.09-2.52.26-4.75,1.59-6.27,2.86-1.54,1.28-2.52,2.48-2.94,3.01-1.33,1.71-2.13,3.46-3.53,5.26-.47.6-.95,1.01-1.29,1.48,0,.08-.18.3-.35.54-1.05,1.06-2.33,1.86-3.19,2.33-.32.17-1.05.13-1.34-.16-.31-.27-.28-.57-.38-.56-.31.02-.37-.02-.39-.15-.01-.16-.05-.36-.03-1.07,0-.16-.14-.82,0-1.26.51-1.44.45-1.93,1.06-3.6.44-1.24.87-1.93,1.27-2.58.41-.64.79-1.29,1.36-2.26.04-.06.19-.28.43-.54.06-.06.12-.13.18-.2l.04-.05s.02.03-.03-.14c-.04-.12-.04-.22-.03-.25,0-.02,0-.02,0,0h0s-.02.03.01,0h0s-.02.02-.02.02c-.03.02-.07.05-.15.08l-.15.05h0s.02.09.03.14c.19.86.06,1.75.06,1.75-.3,1.35-.82,2.4-1.42,3.3-.61.9-1.31,1.66-2.21,2.4-.79,1.09-1.8,2.33-2.86,3.46-1.06,1.1-2.3,2.18-3.38,2.4-1.06.21-1.76-.55-2.05-1.22-.3-.72-.33-1.52-.24-2.67.03-.65.04-1.15.15-1.52.1-.37.05-1.32.27-1.94l.1.19c.06-.21.21-.61.29-.81.08-.2.11-.13.14-.07.06.13.11.26.3-.06.38-.8.82-1.56,1.34-2.22.42-.73.93-1.37,1.51-1.84,0-.08,0-.17.07-.27.18-.14.37-.27.56-.39.08-.18-.02-.31.04-.44-.07-.2.13-.47.35-.71.22-.24.44-.47.27-.63-.07-.04-.57-.02-1.14.13-.58.14-1.19.44-1.6.6-.2.06.1-.31.21-.54-.97.64-1.09.61-.8.19-.24.16-.45.34-.45.34.02-.08.09-.33.09-.33-1.26.91-2.32,2.14-3.07,3.5-.75,1.34-1.24,2.82-1.37,4.24-.08.61-.06,1.62.02,2.29.03.33-.03,1.07,0,1.36.19.48.34.39.51.57.06.54.19,1.28.58,2.06.4.78,1.06,1.51,1.92,1.92.86.44,1.84.42,2.38.25.55-.17.79-.37.71-.48.9-.36,1.26-.75,1.63-1.11.35-.38.7-.76,1.23-1.33.73-.79,1.46-1.72,2.23-2.65.76-.92,1.65-1.87,2.48-2.91.88-1.15,1.69-2.37,2.16-3.79.17-.53.29-1.06.35-1.59.04-.35.05-.71.03-1.07-.01-.18-.02-.35-.05-.53-.01-.1-.02-.15-.05-.3-.03-.13-.09-.36-.31-.58-.2-.21-.57-.32-.8-.29-.24.02-.39.09-.52.16-.13.07-.23.14-.32.23l-.19.17c-.25.23-.47.48-.68.73-.82,1.01-1.43,2.01-2.02,3.05-1.14,2.09-1.96,4.2-2.44,6.49-.23,1.16-.2,2.71.85,3.87.51.58,1.32.94,2.08.97.76.04,1.44-.17,2.04-.43,1.21-.57,2.11-1.37,3-2.21.88-.86,1.67-1.82,2.42-2.84,1.51-2.05,2.84-4.2,4.48-6.05,1.63-1.85,3.6-3.45,5.88-4.11,1.13-.33,2.33-.44,3.31-.03.98.41,1.7,1.33,2.21,2.31,1.03,2.01,1.38,4.24,1.43,6.32.06,2.09-.27,4.05-1.08,5.54-.79,1.48-2.09,2.48-3.28,2.84-1.21.38-2.26.11-3.05-.31-.78-.43-1.3-.97-1.61-1.36-.3-.26-.59-.55-.84-.88Z"/>
  </g>
</svg>