<?xml version="1.0" encoding="UTF-8"?>
<svg id="ss" xmlns="http://www.w3.org/2000/svg" viewBox="0 0 48 48">
  <defs>
    <style>
      .cls-1 {
        fill: #231815;
      }

      .cls-2 {
        opacity: .8;
      }
    </style>
  </defs>
  <g class="cls-2">
    <path class="cls-1" d="M36.36,32.48c.07.26.25.61.69.91.43.3,1.1.53,1.86.57,1.54.09,3.48-.59,4.87-1.98,1.39-1.34,2.25-3.47,1.77-5.18-.22-.84-.81-1.48-1.49-1.88-.68-.41-1.41-.61-2.05-.71-2-.27-3.56.16-4.66.52-.46.17-.17.02.67-.23.84-.24,2.29-.55,3.98-.28.74.11,1.55.35,2.27.83.72.47,1.27,1.24,1.41,2.22-.05-.61-.26-1.2-.63-1.68-.37-.48-.88-.86-1.41-1.13-1.09-.55-2.25-.69-3.2-.72-1.4.07-2.8.45-4.1,1.07-2.37,1.13-4.28,2.98-5.81,5.01l.31.27c1.31-1.29,2.46-2.74,3.34-4.37.87-1.62,1.45-3.45,1.48-5.35,0-.58-.03-1.35-.27-2.19-.23-.83-.71-1.72-1.46-2.36-.72-.66-1.75-1.03-2.67-.96-.91.05-1.65.38-2.17.68.78-.49,1.72-.8,2.7-.72.99.08,1.88.59,2.51,1.27,1.32,1.41,1.57,3.38,1.42,5.1-.14,1.76-.75,3.45-1.6,4.96-.85,1.51-1.94,2.87-3.16,4.08l-.59-.51c1.45-1.92,3.21-3.67,5.37-4.84l-.67.35c-1.88,1.14-3.45,2.71-4.76,4.43l.72.62c1.94-1.9,3.62-4.19,4.44-6.89.24-.82.4-1.68.46-2.58-.05.88-.21,1.75-.46,2.58-.63,2.15-1.73,4.06-3.29,5.89-.32.37-.68.73-1.06,1.1l-.93-.8c.64-.81,1.37-1.62,2.08-2.31.87-.84,1.8-1.48,2.8-2.04.63-.38,1.3-.71,1.99-.98.2-.09.41-.17.64-.25,0,0-.02,0-.03,0-.4.05-1.63.36-3.11,1.25-1.49.87-3.17,2.34-4.6,4.15l1.38,1.19c2.15-1.98,4.05-4.68,4.78-7.39.37-1.35.48-2.62.39-3.69-.08-1.07-.37-1.92-.6-2.39-.64-1.36-1.86-2.45-3.41-2.76-1.6-.29-3.08.37-4.23,1.33-.77.66-1.33,1.26-1.7,1.87,0,.09-.18.39-.35.7-1,1.51-2.05,2.96-2.63,4.2-.43.88-2.51,2.62-2.52,2.82,0,.87.04.29-1.38,1.87-.17.19-.59.94-.99,1.26-.69.53-1.1.85-1.57,1.21-.45.34-.98.73-1.82,1.1-1.25.51-1.66.1-2-.39-.31-.56-.53-1.26-.64-2.54-.02-.16-.03-1.27.19-2.34.19-1.07.58-2.05.58-2.05.7-1.48,1.45-2.6,2.31-3.5.21-.23.44-.43.66-.63.11-.1.21-.17.27-.19.08-.04.03.05.06-.05.02-.01-.06.06-.04.05,0,.01,0,.04.01.08,0,.08,0,.19-.02.3-.05.18-.19.54-.33.8-.27,1.45-1.12,3.01-2.14,4.48-1.03,1.48-2.12,2.95-3.16,4.12-1.05,1.16-2,1.78-2.9,1.98-.91.18-1.59-.06-2.16-.92-.35-.49-.57-.98-.64-1.37-.06-.39-.52-1.35-.51-2.1l.16.17c-.03-.24,0-.72,0-.96.02-.24.07-.18.11-.12.09.12.18.23.27-.17.13-.96.39-1.91.8-2.82.3-.94.73-1.83,1.29-2.62-.01-.09-.02-.18.04-.31.17-.25.36-.47.55-.69.04-.23-.11-.32-.1-.44-.12-.15-.08-.49.14-.73.1-.12.23-.16.29-.2.07-.08.08-.2,0-.29-.03-.04-.19-.16-.46-.13-.26.02-.61.18-.89.4-.52.39-1.09.89-1.45,1.21-.18.14.02-.35.07-.61-.82.97-.96.98-.76.46-.2.23-.38.48-.38.48,0-.09.02-.37.02-.37-1.06,1.31-1.93,2.92-2.36,4.67-.44,1.74-.45,3.63.07,5.27.17.7.73,1.89,1.34,2.6.14.18.37.49.63.77.26.29.57.55.75.67.72.28.71.05,1.04.04.72.33,1.81.4,2.73.13.94-.26,1.75-.75,2.39-1.25,1.24-.99,1.92-2,1.68-2.09,1.17-1.38,1.14-1.83,2.13-3.32.64-1,1.37-2.17,2-3.5.31-.67.59-1.38.82-2.13.06-.19.1-.38.15-.57.06-.24.09-.51.08-.79-.03-.28-.06-.63-.4-1.01-.35-.4-.99-.46-1.36-.29-.39.16-.59.37-.73.5l-.46.44c-.3.3-.58.61-.85.93-.53.64-1,1.32-1.41,2.04-.31.54-.55,1.09-.77,1.62-.55,1.44-.87,2.93-.91,4.39-.04.73.02,1.51.23,2.26.21.74.61,1.54,1.38,2.07.77.54,1.76.57,2.5.39.77-.18,1.38-.48,1.99-.8,1.21-.65,2.28-1.48,3.22-2.4,1.9-1.85,3.31-4.06,4.63-6.3.66-1.12,1.31-2.25,2.02-3.37.71-1.12,1.42-2.25,2.4-3.01.58-.45,1.28-.75,1.97-.77.68-.03,1.37.27,1.92.77,1.12,1,1.47,2.73,1.36,4.35-.2,3.31-2.15,6.3-4.44,8.58l.7.6c1.16-1.54,2.5-2.9,4.01-3.91,1.51-1.01,3.2-1.65,4.86-1.81,1.65-.16,3.33.12,4.39,1,1.07.84,1.22,2.24.89,3.46-.33,1.22-1.07,2.26-1.89,2.99-.84.73-1.76,1.21-2.62,1.44-1.75.5-3.04.08-3.55-.28-.33-.13-.6-.32-.79-.58Z"/>
  </g>
</svg>