<?xml version="1.0" encoding="UTF-8"?>
<svg id="t" xmlns="http://www.w3.org/2000/svg" viewBox="0 0 48 48">
  <defs>
    <style>
      .cls-1 {
        fill: #231815;
      }

      .cls-2 {
        opacity: .8;
      }
    </style>
  </defs>
  <g class="cls-2">
    <path class="cls-1" d="M41.68,36.32c-1.15.58-3.48,2.13-6.14,3.43-2.64,1.33-5.64,2.24-7.51,2.47-1.43.23-2.54.27-3.36.24-.7-.05.91.1,3.36-.24,1.09-.18,2.36-.47,3.81-.97-1.86.48-3.68.7-4.97.71-.94.12-1.89.18-2.86.15-2.12-.05-4.2-.47-6.11-1.27-1.91-.8-3.68-1.95-5.06-3.49-.49-.56-1.24-1.5-1.7-2.57-.49-1.06-.65-2.21-.61-2.91.05,2.96,2.08,5.59,4.55,7.26,2.51,1.7,5.52,2.67,8.56,2.76l-.49-.05c-3.18-.24-6.3-1.43-8.74-3.4-.42-.33-.82-.69-1.18-1.1.36.39.76.76,1.18,1.1,1.09.86,2.32,1.49,3.73,2.05.87.36,1.88.73,2.81.92.76.16,1.45.33,2.19.43.48.03.96.05,1.44.05.14-.01.29-.02.44-.04h-.02c-.3-.09-1.28-.14-2.57-.37-1.29-.23-2.88-.67-4.36-1.39-1.49-.71-2.87-1.65-3.83-2.56-.97-.91-1.55-1.76-1.8-2.13-.8-1.16-1.56-2.3-1.58-3.97,0-.55.15-1.01.15-1.45-.04-.05-.04-.27-.02-.5.22-1.13.8-2.19.98-3.08.09-.31.48-.79.86-1.19.38-.4.73-.71.7-.8-.22-.66-.09-.21.74-1.33.11-.13.28-.71.53-.96.88-.8,1-1.18,1.98-2.18,1.46-1.52,2.03-1.53,3.33-2.91.08-.08.69-.59,1.29-1.06.61-.47,1.21-.89,1.21-.89,1.99-1.14,3.18-1.99,4.97-2.37.8-.5,1.81-.89,2.87-1.21l3.27-.98-3.44-.06c-1.34-.02-2.71-.16-3.93-.18-2.22-.04-3.13-.38-5.08-.73-.56-.07-.98-.07-1.3-.16-.32-.09-1.13.07-1.69.01l.15-.14c-.19-.02-.57-.06-.75-.08-.19-.02-.14-.07-.09-.11.1-.09.2-.19-.13-.27-.79-.11-1.61-.19-2.45-.23-.83.08-1.66.18-2.46.32-.04.07-.09.14-.2.2-.24.05-.48.1-.71.16-.13.16-.07.31-.16.41.03.41-.91.89-.63,1.24.1.1,1.44,0,2.04.18.14.05-.17.2-.3.36.77-.05.82.11.51.26.18,0,.36,0,.36,0-.04.05-.17.2-.17.2,1.94.1,4.1.51,6.03.43.42,0,1.11-.07,1.58-.11.23-.02.74.09.92.12.33-.11.3-.27.45-.41,1.42.25,4.57.66,4.5.13,1.18.06,1.42-.17,2.65-.19.26,0,.52-.01.9-.02l-.29-1.69c-1.3.47-2.92,1.13-4.47,1.88-.99.51-1.95,1-2.89,1.55-.35.21-.68.41-1,.6-1.72,1.08-3.26,2.18-4.68,3.33-1.41,1.15-2.74,2.33-3.9,3.72-1.17,1.39-2.04,3.05-2.66,4.75-.6,1.69-1.2,3.56-1.09,5.69.1,2.16,1.1,4.17,2.46,5.71,1.37,1.56,3.08,2.74,4.87,3.59,3.6,1.77,7.62,2.07,11.04,1.55,3.45-.49,6.37-1.69,8.58-2.77,2.22-1.1,3.78-2.11,4.59-2.65l.82-.83Z"/>
  </g>
</svg>