<?xml version="1.0" encoding="UTF-8"?>
<svg id="u" xmlns="http://www.w3.org/2000/svg" viewBox="0 0 48 48">
  <defs>
    <style>
      .cls-1 {
        fill: #231815;
      }

      .cls-2 {
        opacity: .8;
      }
    </style>
  </defs>
  <g class="cls-2">
    <path class="cls-1" d="M35.61,37.21c-.4-.7-.98-1.79-1.28-3.2-.08-.35-.14-.72-.18-1.1l-.03-.29v-.17c0-.12,0-.23,0-.35.02-.47.09-1.01.25-1.56.05-.17.11-.34.17-.51l.11-.26c.04-.07,0-.04-.03,0l-.08.08c-.23.21-.46.44-.72.65-.25.22-.53.42-.81.63-.3.23-.53.35-.94.62-1.67,1.05-3.34,1.73-4.6,2.11-1.74.57-3.12.78-4.15.9-.88.03,1.17,0,4.15-.9,1.32-.43,2.85-1.07,4.5-2.1-2.14,1.15-4.36,1.82-5.96,2.1-1.15.3-2.33.55-3.55.64-2.66.22-5.37.05-7.82-.88-1.21-.47-2.36-1.13-3.28-2.02-.91-.89-1.57-2.05-1.7-3.3-.13-.9.07-2.39.8-3.67.7-1.29,1.84-2.26,2.59-2.76-1.52,1.1-2.74,2.64-3.17,4.43-.47,1.78.09,3.7,1.41,5.01,1.3,1.33,3.1,2.16,4.94,2.61,1.86.43,3.82.55,5.74.41h-.62c-2.02.07-4.08-.13-5.96-.74-1.87-.63-3.68-1.68-4.69-3.27-.34-.53-.61-1.12-.71-1.76.11.62.36,1.21.71,1.76.93,1.38,2.43,2.31,4.21,2.95,1.09.43,2.42.73,3.62.86.97.09,1.88.21,2.82.21.61-.01,1.21-.07,1.81-.14.18-.02.36-.07.55-.11,0,0-.02,0-.02,0-.38-.02-1.62.06-3.28-.02-1.65-.11-3.76-.38-5.62-1.2-.93-.41-1.81-.93-2.5-1.55-.69-.62-1.19-1.31-1.47-1.98-.56-1.36-.25-2.54-.14-3.05.41-1.63,1.25-3.21,3.02-4.46.59-.41,1.17-.64,1.64-.96.03-.07.26-.23.51-.39,1.34-.66,2.81-1.03,3.85-1.53.75-.34,3.14-.22,3.26-.4.47-.68.12-.2,1.99-.63.23-.05.91-.44,1.37-.53,1.57-.25,1.98-.52,3.75-1.02,2.59-.83,3.27-.65,5.51-1.7.13-.06,1.08-.43,1.98-.83.45-.19.89-.41,1.21-.56.33-.16.54-.26.55-.26l2.15-1.03-2.37.09s-.02,0-.02,0c-2.94.06-4.75.39-7.06.09-2.63.42-6.17.16-8.99.32-2.82.16-4-.06-6.48-.2-.71-.01-1.23.03-1.65-.03-.41-.06-1.41.18-2.11.17l.17-.15c-.24,0-.71-.01-.94-.01-.24,0-.18-.05-.12-.1.11-.1.23-.2-.19-.26-.99-.05-1.99-.08-3.02-.08-1,.12-2,.24-3,.35-.05.07-.12.14-.26.2l-.88.14c-.17.15-.11.31-.22.41.02.41-1.2.85-.89,1.21.12.1,1.83.08,2.6.25.18.05-.23.2-.4.35,1-.04,1.06.12.66.27.24,0,.47,0,.47,0-.06.05-.23.2-.23.2,2.53.09,5.37.34,7.83.07.53-.04,1.41-.18,1.99-.28.29-.05.94.02,1.18.02.41-.15.34-.3.51-.45,1.83.08,5.77.19,5.64-.32,1.47-.03,1.75-.28,3.28-.36,2.03-.1,4.59-.22,7.12-.34,1.38-.08,2.71-.12,4.06-.17l1-.04-.33-1.46-.41.17c-4.55,1.9-8.87,2.63-13.1,3.65-2.12.5-4.24,1.05-6.39,1.82-2.13.78-4.34,1.68-6.41,3.26-1.57,1.21-2.94,2.87-3.49,4.86-.28.98-.36,2.05-.16,3.07.2,1.02.69,1.96,1.33,2.74,1.31,1.56,3.11,2.5,4.91,3.07,1.83.57,3.69.75,5.5.76,3.63,0,7.03-.91,9.83-2.29.7-.34,1.38-.71,1.99-1.1.36-.21.65-.41.92-.59.26-.2.49-.36.67-.53l.14-.12s.02-.02.03-.02l-.03.06-.05.12c-.07.15-.12.3-.16.45-.11.36-.17.68-.2.95-.02.31-.05.34.05,1.1.17,1.16.51,2.05.8,2.66.29.47.65.89,1.01,1.29Z"/>
  </g>
</svg>