<?xml version="1.0" encoding="UTF-8"?>
<svg id="u2" xmlns="http://www.w3.org/2000/svg" viewBox="0 0 48 24">
  <defs>
    <style>
      .cls-1 {
        fill: #231815;
      }

      .cls-2 {
        opacity: .8;
      }
    </style>
  </defs>
  <g class="cls-2">
    <path class="cls-1" d="M27.27,13.05c-.11-.45-.81-1.21-1.81-1.6-.99-.43-2.16-.43-2.77-.19-.47.19-.76.47-.97.7-.17.24.14-.42.97-.7.36-.14.82-.22,1.37-.19-.69-.21-1.43-.19-1.97.03-.33.23-.6.55-.81.91-.88,1.63-.56,3.61.4,5.16.17.29.51.71.92,1.06.4.36.88.64,1.19.81-2.66-1.15-3.92-4.41-2.77-6.98-.04.06-.08.13-.12.2-.59,1.36-.5,2.94.11,4.3.11.23.23.45.36.68-.14-.22-.26-.45-.36-.68-.29-.59-.54-1.2-.63-1.92-.04-.45.03-.96.11-1.41.07-.36.24-.67.42-.97.09-.2.2-.4.33-.58.03-.06.06-.12.1-.18h0c-.16.06-.53.4-.82,1-.29.59-.48,1.43-.44,2.28.02.86.27,1.72.61,2.37.33.66.73,1.11.92,1.28.64.55,1.42.75,2.31,1,.3.08.56.21.81.16.03-.05.15-.07.26-.11.59-.01,1.19.04,1.56-.22.13-.07.46.02.79.06.33.05.66.04.65-.04-.04-.63,0-.1.74-.69.1-.08.17-.5.3-.66.48-.56.39-.85.48-1.56.01-.54.04-.85.05-1.16,0-.3-.02-.6-.29-1-.03-.05-.18-.39-.35-.7-.17-.31-.35-.58-.35-.58-.39-.95-.96-1.29-1.12-2.13-.79-.5-1.29-1.62-2.06-2.22-.76-.58-.9-1.02-1.48-1.7-.18-.17-.35-.24-.43-.38-.08-.14-.48-.14-.69-.3l.13-.1c-.07-.05-.21-.16-.28-.21-.07-.05-.03-.08.01-.12.08-.07.17-.13.06-.27-.31-.25-.67-.47-1.1-.65-.46-.07-.95-.08-1.44,0-.03.07-.06.13-.13.18-.14.04-.28.08-.42.13-.07.15-.02.31-.06.41.02.4-.31.88-.11,1.22.06.09.53.05.72.27.04.06-.07.19-.11.34.22,0,.21.17.12.3.05.02.09.03.09.03-.02.05-.07.19-.07.19.44.23.86.8,1.54,1.01.14.06.41.1.59.13.09.02.2.19.25.24.17-.04.25-.18.38-.26.37.43,1.06,1.37,1.38.97.31.32.54.21.88.52.45.42,1,1.01,1.44,1.62.26.32.46.67.64,1.02.07.13.13.26.18.38.29.67.43,1.33.4,1.93-.03.6-.22,1.16-.51,1.49-.27.32-.73.56-1.33.74-.6.18-1.15.29-1.75.18-1.3-.24-2.46-1.58-2.74-2.99-.33-1.4.21-2.98,1.18-3.36.97-.41,2.13-.05,2.83.31.73.39,1.13.83,1.34,1.05.13.03.26.07.39.12Z"/>
  </g>
</svg>