<?xml version="1.0" encoding="UTF-8"?>
<svg id="v" xmlns="http://www.w3.org/2000/svg" viewBox="0 0 48 48">
  <defs>
    <style>
      .cls-1 {
        fill: #231815;
      }

      .cls-2 {
        opacity: .8;
      }
    </style>
  </defs>
  <g class="cls-2">
    <path class="cls-1" d="M35.68,29.18c-.02-.28-.05-.64-.11-1.07l1.76-.48c.16.87.27,1.99.09,3.18-.16,1.19-.58,2.44-1.22,3.56-1.27,2.29-3.49,3.74-4.95,4.32-1.27.56-2.3.78-3.07.89-.67.04.88,0,3.07-.89.96-.43,2.06-1.06,3.14-2.09-1.45,1.18-3.09,1.81-4.27,2.09-.83.3-1.71.53-2.61.65-1.98.28-3.97.14-5.89-.28-1.91-.43-3.8-1.06-5.48-2.05-.6-.36-1.53-.99-2.25-1.82-.72-.82-1.21-1.81-1.4-2.45.5,1.3,1.32,2.45,2.42,3.31,1.09.87,2.4,1.49,3.75,1.98,2.71.97,5.62,1.5,8.47,1.15l-.46.02c-3,.22-6.03-.49-8.79-1.64-.47-.19-.93-.41-1.37-.68.44.25.9.47,1.37.68,1.23.5,2.5.83,3.92,1.11.87.19,1.88.39,2.77.43.73.05,1.4.11,2.1.1.45-.04.89-.09,1.33-.17.13-.03.26-.07.4-.11,0,0-.01,0-.02,0-.29-.03-1.2.07-2.43.03-1.23-.03-2.77-.24-4.29-.65-1.51-.41-3.04-.98-4.18-1.55-1.14-.57-1.9-1.15-2.23-1.41-1.04-.78-2.02-1.61-2.6-3.11-.18-.49-.21-.95-.36-1.33-.06-.03-.13-.22-.2-.42-.19-1.07-.02-2.15-.07-2.97,0-.29.25-.81.53-1.23.27-.42.55-.75.5-.82-.35-.56-.14-.2.46-1.29.08-.12.15-.66.36-.89.37-.36.57-.6.81-.85.23-.26.48-.52.97-.83.74-.46,1.32-.54,1.84-.63.54-.08,1.05-.15,1.91-.37.1-.03.83-.13,1.54-.18.71-.06,1.4-.05,1.4-.05,2.11.24,3.51.33,4.91,1.3.94.21,1.93.75,2.8,1.46.56.44,1.13.89,1.68,1.32l.43.33c.13.09.26.13.43.13.37-.07.43-.36.6-.59.31-.5.47-1.15.67-1.64.21-.57.34-.84.51-1.18.32-.66.66-1.26,1.03-2.14.19-.51.27-.9.42-1.19.15-.29.14-1.09.29-1.62l.11.16c.05-.18.14-.54.19-.71.05-.18.08-.13.12-.07.08.11.16.22.29-.09.21-.76.41-1.57.44-2.56-.09-.96-.39-2.05-1.04-2.93-.09-.02-.18-.05-.31-.14-.21-.24-.44-.46-.7-.65-.24-.02-.3.14-.45.14-.13.16-.49.13-.78.2-.3.06-.52.19-.49.4.01.07.27.21.49.47.23.25.41.62.43.87,0,.12-.24-.04-.41-.03.27.47.1.57-.09.43.04.11.07.22.07.22-.06,0-.22-.03-.22-.03.13.55.03,1.28-.17,2.12-.2.87-.42,1.76-.54,2.62-.07.37-.12,1-.18,1.43-.02.21-.24.64-.3.8.04.33.2.33.3.5-.14.31-.32.71-.5,1.13-.09.21-.18.43-.27.65-.03.05-.05.11-.08.16-.07.16-.08.39.06.79-.04.11-.17.1-.21.07-.06-.02-.12-.03-.18-.05-.12-.02-.28-.07-.53-.26-.1-.07-.13-.1-.31-.23-.18-.12-.36-.24-.55-.37-.38-.24-.79-.48-1.22-.69-.86-.44-1.8-.8-2.75-1.08-1.05-.28-2.07-.49-3.11-.61-.39-.05-.76-.07-1.12-.1-1.95-.08-3.74-.04-5.54.37-1.81.39-3.47,1.56-4.46,3.06-1.02,1.5-1.54,3.23-1.68,5.01-.12,1.79.11,3.65.89,5.47.77,1.83,2.19,3.43,3.88,4.41,1.68,1.01,3.5,1.59,5.3,2.07,3.6.94,7.42.92,10.54-.38,1.55-.64,2.91-1.54,3.97-2.62,1.06-1.08,1.8-2.31,2.25-3.49.92-2.37.67-4.45.4-5.47h0s0,0,0,0l-2.39.65h0s0,0,0,0h0s0,.01,0,.01v.02s.02.03.02.03l.03.06.05.12.11.25.22.49Z"/>
  </g>
  <g class="cls-2">
    <path class="cls-1" d="M12.74,11.76c.03-.33.07-.82.27-1.3.19-.48.51-.94.92-1.29.85-.73,1.89-.9,2.47-.93.45-.05.79-.04,1.04-.02.21.03-.27,0-1.04.02-.34.04-.75.1-1.23.27.66-.08,1.24.01,1.64.1.28-.03.57-.06.86-.07,1.28-.06,2.54-.01,3.76.31.44.11,1.41.34,1.79.57-1.73-.58-3.58-.81-5.42-.68.05,0,.1.01.15.02.97-.01,1.93.07,2.87.25.16.02.32.06.48.1l-.48-.1c-.42-.06-.83-.04-1.29-.04-.28-.02-.61-.09-.89-.09-.23,0-.45-.08-.68-.12h-.43s-.08.04-.13.05h0c.2.17,1.21.29,2.19.5.98.2,1.94.49,2.22.51.45.04.94-.16,1.44-.04.17.04.27.17.42.14.03-.04.1-.05.18-.06.33.1.57.4.86.39.21.03.25.95.34.85.39-.38.12-.11.41.16.03.04.29-.05.35.03.17.31.36.22.67.45.51.3.31.59.85.82.07.02.6.65.59.66.15.6.47,1,.13,1.53.36.58-.07,1.4-.11,2.01-.05.62-.39.81-.78,1.12-.09.1-.11.19-.21.21-.09.01-.01.26-.12.33l-.09-.11s-.1.06-.13.08c-.03.02-.06-.02-.09-.06-.06-.08-.12-.15-.21-.17-.14.03-.27.04-.37.05-.04.11-.08.22-.13.33.01.06.03.13.03.19-.02.04-.04.09-.06.12,0,.15.03.3.03.4.08.41-.16.82-.09,1.2.04.11.51.1.79.2.07.04,0,.21-.03.36.32-.1.4.03.3.21.08-.02.17-.04.17-.04,0,.05-.01.21-.01.21.96-.14,2.06-.65,2.43-1.53.09-.18.16-.5.18-.71.01-.1.18-.26.22-.33-.07-.18-.22-.22-.34-.32.37-.46.82-1.57.29-1.6.08-.39-.15-.5-.15-.89,0-.52-.02-1.2-.13-1.87-.08-.36-.14-.72-.25-1.07-.05-.13-.09-.26-.13-.38-.52-1.3-1.31-2.25-2.21-2.99-.91-.72-1.96-1.23-3.21-1.42-2.49-.37-5.01-.53-7.17-.34-1.08.09-2.22.4-2.98,1.15-.75.7-1.02,1.62-1,2.13.07.19.16.38.26.55Z"/>
  </g>
</svg>