<?xml version="1.0" encoding="UTF-8"?>
<svg id="w" xmlns="http://www.w3.org/2000/svg" viewBox="0 0 48 48">
  <defs>
    <style>
      .cls-1 {
        fill: #231815;
      }

      .cls-2 {
        opacity: .8;
      }
    </style>
  </defs>
  <g class="cls-2">
    <path class="cls-1" d="M34.5,30.32c-.06-.4.07-.77.28-1.03.21-.25.56-.49,1.05-.47h.35s.23.22.23.22c.48.43.75,1.2.7,1.82-.02.63-.22,1.22-.44,1.75-.43,1.06-.99,2.24-1.77,3.32-.76,1.09-1.8,2.03-2.89,2.61-1.09.58-2.15.84-2.95.99-1.31.27-2.33.32-3.09.31-.64-.04.84.08,3.09-.31.99-.21,2.19-.53,3.43-1.32-1.64.86-3.34,1.03-4.52,1.09-.85.14-1.73.21-2.61.22-3.87,0-7.77-.97-10.72-3.39-.53-.44-1.33-1.18-1.98-2.05-.66-.86-1.14-1.83-1.34-2.44,1.04,2.53,3.12,4.58,5.6,5.82,2.48,1.26,5.3,1.84,8.1,1.86l-.45-.04c-2.94-.13-5.87-.88-8.34-2.38-.42-.25-.83-.53-1.22-.85.39.31.8.58,1.22.85,1.11.64,2.29,1.08,3.64,1.45.83.25,1.79.51,2.66.62.71.11,1.36.23,2.04.3.44.02.88.02,1.32,0,.13-.01.27-.03.4-.05,0,0-.01,0-.02,0-.55-.12-3.63-.21-6.5-1.26-1.44-.5-2.78-1.21-3.78-1.92-1.01-.71-1.66-1.39-1.97-1.68-.95-.93-1.94-1.8-2.53-3.23-.19-.48-.23-.91-.38-1.27-.05-.03-.14-.21-.2-.4-.2-1.02.03-2.02.04-2.81.02-.28.32-.75.64-1.1.31-.37.63-.63.58-.71-.27-.59-.11-.21.61-1.15.09-.1.23-.61.47-.8.41-.29.64-.49.9-.71.26-.22.54-.45,1.07-.71.79-.4,1.36-.47,1.88-.55.53-.08,1.03-.13,1.85-.34.1-.02.8-.11,1.49-.13.68-.02,1.35.03,1.35.03,2.01.38,3.36.61,4.61,1.68.58.19,1.16.52,1.71.94.69.51,1.42,1.31,2.12,2.07.08.05.14-.08.21-.19l.19-.32c.13-.22.25-.44.38-.66.25-.44.48-.89.69-1.33.12-.27.24-.51.34-.75.1-.2.19-.39.28-.58.18-.36.35-.68.52-1,.34-.63.69-1.22,1.09-2.07.2-.49.29-.88.44-1.16.16-.28.15-1.06.31-1.56l.11.16c.05-.18.16-.52.21-.7.05-.18.09-.13.13-.07.08.11.15.23.29-.09.23-.78.41-1.72.26-2.81-.12-.5-.36-1.09-.68-1.56-.32-.47-.72-.88-1.2-1.2-.09.01-.2.02-.35-.03-.3-.16-.61-.28-.95-.36-.24.08-.22.25-.36.31-.05.2-.39.33-.62.53-.23.2-.35.42-.22.59.04.05.32.05.6.18.29.12.56.39.65.6.03.11-.23.05-.38.13.37.31.22.45.02.4.06.08.11.16.11.16-.05,0-.21.05-.21.05.12.22.16.42.17.68,0,.28-.03.58-.09.93-.13.68-.41,1.56-.54,2.41-.07.36-.14.97-.19,1.38-.03.21-.25.6-.31.75.03.31.19.33.29.49-.29.6-.74,1.51-1.09,2.24-.45.95-.32.82-.16,1.09-.08.14-.11.28-.14.44-.02.08-.04.17-.05.26l-.04.14-.02.08s-.03,0-.04-.01c-.05-.03-.11-.07-.18-.14-.33-.27-.45-.41-1.4-1.02-.79-.5-1.66-.96-2.56-1.32-1-.37-1.97-.67-2.98-.87-.38-.08-.74-.13-1.09-.17-1.91-.22-3.71-.16-5.42.2-1.71.34-3.4,1.17-4.6,2.48-1.2,1.29-1.98,2.92-2.26,4.68-.3,1.77,0,3.68.8,5.4.82,1.74,2.04,3.27,3.51,4.46,1.47,1.2,3.15,2.07,4.88,2.66,3.46,1.17,7.07,1.4,10.24.82,1.57-.28,3.11-.79,4.35-1.68,1.23-.88,2.08-1.99,2.71-3,.62-1.03,1.03-1.96,1.34-2.77.32-.88.46-1.84.11-2.67-.17-.33-.45-.64-.76-.85l-.38-.25h-.29c-.5,0-.86.25-1.08.52-.22.28-.36.68-.26,1.13Z"/>
  </g>
  <g class="cls-2">
    <path class="cls-1" d="M11.73,9.76c.02-.28.19-.72.48-.96.28-.24.55-.31.79-.36.52-.09.85-.02,1.24-.03.78,0,1.59-.02,2.09.05.38.01.67.05.89.09.18.04-.24,0-.89-.09-.29-.01-.63-.01-1.04-.01.52.14,1.01.3,1.36.44.25,0,.5,0,.76,0,1.12.04,2.21.1,3.26.41.38.11,1.2.34,1.52.56-1.46-.56-3.07-.75-4.68-.76.04,0,.08.02.13.03.85.05,1.69.15,2.49.34.14.02.28.06.41.1l-.41-.1c-.36-.06-.72-.05-1.12-.06-.25-.03-.53-.11-.78-.12-.2-.02-.39-.11-.59-.16l-.38-.02s-.08.02-.12.02h0c.17.19,1.05.38,1.9.62.86.22,1.66.5,1.9.52.38.04.81-.17,1.24-.05.14.04.22.17.36.14.03-.04.1-.06.16-.07.28.09.45.39.71.37.19.03.08.91.17.8.4-.36.12-.1.33.14.02.03.26-.05.3.03.09.28.27.2.49.41.39.29.12.51.58.77.06.02.44.65.43.66.04.55.32.92-.06,1.38.32.54-.12,1.22-.17,1.75-.05.55-.38.71-.74,1.03-.08.1-.09.19-.19.23-.1.03.02.27-.07.36l-.11-.09s-.09.08-.12.1c-.03.03-.07,0-.1-.04-.07-.07-.15-.13-.24-.12-.14.07-.27.14-.38.21-.02.14-.04.29-.08.43.04.05.08.11.1.16,0,.06-.01.11-.02.16.07.13.17.25.22.34.26.32.3.79.55,1.07.08.07.42-.12.68-.12.07.01.09.18.15.32.19-.17.32-.08.32.1.06-.04.11-.07.11-.07.02.05.09.18.09.18.65-.35,1.42-.89,1.56-1.59.05-.14.04-.41.03-.58,0-.08.13-.21.16-.27-.09-.15-.24-.18-.37-.27.3-.37.74-1.29.21-1.34.08-.34-.15-.44-.13-.78,0-.46,0-1.03-.03-1.6-.04-.35-.07-.63-.1-.93-.02-.12-.04-.23-.06-.34-.22-1.15-.73-2.23-1.5-2.98-.75-.76-1.69-1.25-2.79-1.44-2.21-.36-4.39-.48-6.23-.57-.86-.04-1.7-.09-2.39-.12-.52-.04-1.46-.14-2.12.6-.19.31-.28.79-.18,1.13Z"/>
  </g>
  <g class="cls-2">
    <path class="cls-1" d="M9.43,16.05c.33-.03.76-.27,1.23-.45.46-.19.94-.32,1.25-.32.23-.03.4-.03.53-.01.11.02-.13.01-.53.01-.17.02-.37.07-.61.14.36.04.68.14.9.23.13-.03.27-.05.41-.06.61-.06,1.21-.07,1.8.09.21.06.68.13.87.27-.85-.2-1.72-.29-2.57-.16.02,0,.05.01.07.02.45-.02.9.02,1.34.11.08,0,.15.02.23.05l-.23-.05c-.2-.01-.39.03-.6.06-.13,0-.29-.06-.42-.06-.11,0-.22-.07-.33-.11h-.2s-.04.04-.06.04h0c.13.17.61.3,1.05.45.45.15.87.31,1.01.29.21-.03.45-.31.7-.3.08,0,.14.1.21.04.02-.05.05-.07.09-.1.17.01.29.23.45.12.11-.04.14.79.19.65.21-.49.06-.13.24-.03.02.02.16-.17.2-.13.12.18.22.02.43.03.34-.06.26.28.63.07.04-.02.51-.04.51-.04.26.19.58.06.59.51.43-.12.51.43.76.56.26.15.16.44.15.76.01.07.06.1.03.17-.04.07.19.01.19.09l-.13.07s0,.07,0,.1c0,.02-.04.05-.08.07-.08.05-.17.1-.21.16-.02.11-.03.2-.04.29.1.02.2.05.32.08.06-.02.12-.05.18-.06l.13.02c.14-.05.28-.11.37-.14.37-.17.8-.2,1.13-.37.09-.05.04-.26.17-.44.04-.05.19-.06.33-.1-.06-.13.08-.21.22-.21,0-.04,0-.07,0-.07.05-.01.19-.06.19-.06-.01-.42.02-1.02-.37-1.22-.07-.05-.24-.09-.36-.11-.05-.01-.06-.14-.07-.17-.14.04-.25.16-.37.24-.06-.3-.33-.88-.66-.46-.14-.15-.32.01-.5-.09-.26-.14-.54-.29-.82-.44-.17-.06-.31-.15-.47-.23-.06-.03-.11-.05-.17-.08-1.15-.5-1.94-1.15-3.23-1-1.28.16-2.51.08-3.65.24-1.13.12-2.12.54-2.43.78l-.02.28Z"/>
  </g>
</svg>