<?xml version="1.0" encoding="UTF-8"?>
<svg id="x" xmlns="http://www.w3.org/2000/svg" viewBox="0 0 48 48">
  <defs>
    <style>
      .cls-1 {
        fill: #231815;
      }

      .cls-2 {
        opacity: .8;
      }
    </style>
  </defs>
  <g class="cls-2">
    <path class="cls-1" d="M43.05,42.69c-.45-.58-1.59-1.57-2.68-2.7-1.1-1.12-2.2-2.33-2.8-3.12-.49-.58-.85-1.03-1.11-1.39-.21-.3.31.36,1.11,1.39.37.44.83.96,1.37,1.55-.58-.85-1.1-1.67-1.45-2.28-.33-.38-.67-.76-1.01-1.15-1.49-1.73-2.96-3.36-4.4-5.11-.52-.64-1.71-1.96-2.17-2.61l6.6,7.42c-.05-.07-.1-.15-.16-.22l-3.37-3.99c-.2-.22-.39-.45-.58-.69l.58.69c.52.57,1.06,1.1,1.63,1.71.32.4.71.88,1.03,1.27.27.32.48.67.7,1.01l.5.59.18.16h0c-.16-.74-4.18-5.96-4.97-6.71-.62-.61-1.39-.98-2.06-1.67-.23-.23-.35-.49-.57-.62-.05.01-.16-.05-.27-.12-.45-.46-.75-1.06-1.19-1.32-.28-.22-.35-1.46-.51-1.41-.58.16-.16.04-.67-.59-.06-.08-.44-.17-.55-.33-.35-.58-.62-.61-1.18-1.14-.89-.73-.81-1.14-1.74-1.66-.11-.07-1.34-1.09-1.34-1.09-.8-.95-1.51-1.34-1.88-2.3-.99-.61-1.7-1.97-2.55-2.8-.84-.84-.98-1.39-1.51-2.31-.17-.24-.34-.39-.4-.57-.06-.18-.5-.35-.67-.59l.16-.04c-.06-.08-.17-.24-.23-.33-.06-.08,0-.1.05-.11.1-.03.21-.06.15-.23-.22-.36-.46-.72-.71-1.07-.34-.27-.69-.53-1.03-.77-.07.03-.13.05-.21.04l-.33-.2c-.16.04-.26.17-.36.19-.3.28-.95.16-1.14.5-.05.11.41.67.48,1.03,0,.1-.21.06-.37.1.28.31.18.44-.03.4.06.08.12.16.12.16-.05.01-.21.06-.21.06.58.91,1.12,2.03,1.96,2.67.17.15.5.35.72.48.11.07.23.33.29.41.22.04.31-.08.47-.13.41.67,1.34,2.06,1.69,1.68.4.47.66.4,1.11.86.6.6,1.35,1.38,2.09,2.16.42.41.79.83,1.17,1.25.14.16.28.31.42.45,2.88,3.1,4.69,5.68,7.77,8.47,3.11,2.8,5.97,6.11,8.27,8.89,2.29,2.79,4.36,4.89,5.22,5.55l.62.21Z"/>
  </g>
  <g class="cls-2">
    <path class="cls-1" d="M10.22,42.26c-.03-.7-.34-2.1-.4-3.58-.08-1.48.1-3.03.36-3.93.17-.7.35-1.21.51-1.59.15-.31-.17.41-.51,1.59-.12.53-.23,1.17-.29,1.93.22-.94.54-1.8.83-2.38.11-.45.24-.9.4-1.34.71-1.95,1.8-3.69,3.29-5.07.52-.52,1.77-1.52,2.43-1.8-2.5,1.54-4.47,3.97-5.46,6.76.04-.07.07-.14.11-.22.59-1.44,1.44-2.76,2.48-3.89.18-.19.35-.39.56-.57-.2.18-.37.38-.56.57-.44.52-.79,1.08-1.17,1.72-.25.38-.55.81-.76,1.23-.17.33-.38.62-.56.94-.08.22-.17.43-.25.65l-.04.21h0c.25-.24.94-1.69,1.93-2.95.97-1.28,2.2-2.32,2.52-2.64.5-.52.85-1.18,1.54-1.65.23-.16.47-.2.63-.36,0-.05.07-.14.15-.22.49-.28,1.08-.35,1.44-.65.27-.18,1.35.25,1.36.1.05-.58.01-.16.72-.35.09-.02.3-.32.48-.35.62-.07.74-.29,1.4-.58.95-.5,1.29-.26,2.07-.94.05-.04.4-.25.73-.47.33-.22.64-.44.64-.44,1.08-.51,1.52-1.13,2.48-1.42.31-.48.77-.9,1.22-1.37.45-.47.87-1.01,1.1-1.54.44-1.08.82-1.44,1.33-2.35.11-.27.14-.48.25-.62.11-.14,0-.58.11-.84l.13.1c.03-.09.1-.26.13-.35.03-.09.07-.05.12-.02.08.07.17.13.27,0,.17-.35.32-.71.45-1.06.02-.36.04-.72.05-1.11-.06-.04-.11-.08-.15-.14v-.33c-.12-.11-.28-.14-.36-.21-.39-.13-.61-.71-.99-.74-.12,0-.38.63-.65.87-.08.05-.16-.15-.27-.26-.12.39-.27.37-.36.17-.04.09-.08.18-.08.18-.04-.04-.16-.15-.16-.15-.47.96-1.05,1.99-1.09,2.91-.02.2,0,.53.02.76,0,.11-.14.31-.17.39.09.18.24.2.36.31-.32.62-1.07,1.68-.62,1.87-.26.42-.1.63-.39,1.07-.38.58-1.01,1.25-1.74,1.79-.39.32-.81.57-1.24.8-.16.09-.32.17-.47.25-3.32,1.68-6.53,1.58-9.83,4.04-3.22,2.47-5.54,6.08-6.33,9.48-.85,3.39-.36,6.27-.09,7.25l.37.5Z"/>
  </g>
  <g class="cls-2">
    <path class="cls-1" d="M16.39,42.42c-.25-.32-.76-.78-1.05-1.35-.31-.55-.44-1.17-.42-1.53-.02-.27,0-.48.04-.63.04-.13-.01.16-.04.63.01.21.05.46.14.75.03-.43.14-.79.26-1.03-.02-.16-.02-.33-.02-.49.02-.73.1-1.45.31-2.16.08-.26.18-.82.33-1.05-.24,1.02-.42,2.11-.42,3.14,0-.03.02-.05.03-.08.05-.54.16-1.1.28-1.64.01-.09.03-.19.07-.28l-.07.28c-.03.24,0,.49-.01.75-.02.16-.1.35-.11.51-.02.13-.1.25-.15.38v.24s0,.05.01.07h0c.18-.13.37-.66.59-1.22.21-.57.4-1.12.39-1.29,0-.27-.28-.56-.25-.87,0-.1.11-.17.05-.26-.05-.02-.07-.06-.1-.11.02-.2.25-.36.15-.54-.03-.13.81-.2.67-.26-.49-.23-.13-.06-.01-.29.02-.02-.16-.19-.12-.24.19-.15.04-.27.06-.51-.03-.39.31-.34.12-.76-.02-.05-.01-.6-.01-.6.21-.33.09-.68.56-.75-.11-.47.47-.65.64-.95.18-.32.49-.24.84-.26.08-.02.11-.08.19-.05.08.03.03-.19.12-.21l.07.13s.08-.02.1-.02c.03,0,.05.04.07.08.05.09.09.17.16.21.12.02.22.03.31.04.03-.1.07-.21.11-.32-.02-.06-.04-.13-.05-.18l.04-.13c-.04-.14-.08-.29-.11-.38-.14-.38-.11-.82-.26-1.16-.05-.1-.31-.05-.49-.18-.05-.04-.04-.19-.06-.34-.16.07-.23-.07-.22-.22-.04,0-.09.01-.09.01,0-.05-.04-.19-.04-.19-.51.02-1.21.04-1.47.49-.07.08-.12.28-.15.4-.02.06-.16.08-.2.1.04.15.16.25.24.38-.33.1-.96.47-.53.78-.16.18,0,.35-.11.56-.15.28-.33.63-.49.97-.07.2-.17.37-.25.55-.03.07-.06.13-.09.2-.54,1.34-1.27,2.28-1.18,3.77.06.74.03,1.46-.02,2.16-.05.69-.14,1.39-.11,2.08.02.69.21,1.38.5,1.9.28.53.67.89.91,1.03.12,0,.25-.02.36-.04Z"/>
  </g>
</svg>