<?xml version="1.0" encoding="UTF-8"?>
<svg id="y" xmlns="http://www.w3.org/2000/svg" viewBox="0 0 48 48">
  <defs>
    <style>
      .cls-1 {
        fill: #231815;
      }

      .cls-2 {
        opacity: .8;
      }
    </style>
  </defs>
  <g class="cls-2">
    <path class="cls-1" d="M30.58,43.74c-.22-1.17-1.08-3.57-1.63-6.2-.59-2.61-.92-5.4-.99-7.1-.04-1.31-.09-2.3-.03-3.05.03-.63-.02.82.03,3.05.09.99.16,2.16.38,3.53-.06-.86-.09-1.71-.07-2.49-.01-.78.02-1.48.06-2.08-.06-.86-.08-1.73-.07-2.61,0-3.88.5-7.64,1.53-11.33.18-.67.51-1.72.86-2.76.38-1.03.76-2.05,1.07-2.65-2.14,5.17-3.22,10.78-3.24,16.4l.03-.45c.08-2.95.46-5.89,1.13-8.75.12-.49.24-.97.38-1.47l-.38,1.47c-.11.64-.22,1.28-.33,1.93-.1.65-.15,1.32-.25,2.03-.12.87-.25,1.86-.33,2.74-.04.72-.15,1.37-.22,2.06v1.32c0,.13.01.27.02.41,0,0,0-.01,0-.02.18-.55.32-3.61.88-6.67.53-3.07,1.44-6.12,1.7-6.99.15-.67.3-1.36.46-2.08.14-.71.33-1.42.62-2.18.19-.5.44-.91.55-1.28-.03-.06.03-.25.09-.43.28-.54.69-.9,1.06-1.06l-1.1-.89c-.11.36-.2.71-.24,1.03-.1.59-1.39,1.81-1.31,1.96.32.61.1.18-.5,1.37-.08.14-.12.71-.29.99-.64.9-.64,1.27-1.28,2.37-.97,1.65-1.38,1.77-2.37,2.87-.06.06-.56.43-1.08.49-.25.04-.5-.02-.69-.08-.18-.06-.3-.14-.3-.14-.65-.54-.98-1.32-1.14-2.03-.16-.72-.14-1.44.13-2.19-.06-.8.14-1.73.43-2.65l-1.05-.19c-.16,1.25-.41,2.49-.67,3.53-.23.93-.57,1.52-.96,2.01-.4.48-.86.86-1.48,1.22-.34.22-.58.37-.82.4-.22.03-.68.39-1.08.37l.08-.15c-.12,0-.37,0-.48-.04-.12-.02-.08-.06-.05-.11.07-.1.11-.18-.05-.27-.4-.12-.72-.35-.87-.56-.26-.15-.53-.46-.66-.78-.07-.01-.13-.03-.19-.07-.05-.11-.07-.22-.1-.33-.13-.09-.29-.1-.37-.17-.2-.04-.36-.25-.48-.49-.11-.23-.19-.49-.4-.49-.06.01-.3.33-.43.77-.14.43-.17.97-.19,1.31-.03.17-.23-.16-.39-.32.14.93.08,1.03-.17.68.04.24.12.46.12.46-.07-.04-.26-.16-.26-.16.16.65.44,1.28.88,1.86.44.58,1.08,1.08,1.73,1.37,1.34.62,2.82.58,3.97.11.5-.17,1.27-.68,1.66-1.07.21-.18.72-.52.88-.67.18-.36.01-.43.01-.64.6-.53,1.34-1.54,1.72-2.48.39-.93.47-1.7.21-1.71.27-1.12.05-1.38.17-2.5.02-.26.04-.53.07-.91l-1.69-.31c-.28,1.19-.68,2.76-.57,4.45.11,1.11.37,2.19,1.09,3.16.28.35.63.67,1.03.88.87.48,1.96.39,2.7.03.77-.34,1.36-.83,1.87-1.34.52-.52.93-1.08,1.31-1.6.39-.53.75-1.08,1.1-1.62,1.37-2.2,2.41-4.53,3.05-7.15l.47-1.9-1.7.89c-.82.43-1.34,1.16-1.68,1.83-.35.69-.56,1.36-.8,2.05-2.44,6.84-3.35,14.43-3.01,20.66.31,6.24,1.76,11.03,2.38,12.72l.56.91Z"/>
  </g>
</svg>