<?xml version="1.0" encoding="UTF-8"?>
<svg id="z" xmlns="http://www.w3.org/2000/svg" viewBox="0 0 48 48">
  <defs>
    <style>
      .cls-1 {
        fill: #231815;
      }

      .cls-2 {
        opacity: .8;
      }
    </style>
  </defs>
  <g class="cls-2">
    <path class="cls-1" d="M38.58,34.24c.42.21.96.56,1.36,1.18l1.23,1.92-2.05-.55c-1.19-.32-2.87-.67-4.53-.93-1.66-.27-3.28-.39-4.35-.47-.98-.03-1.73-.06-2.31-.08-.48,0,.63-.05,2.31.08.75.04,1.64.08,2.67.2-1.28-.29-2.53-.5-3.44-.64-.66,0-1.34.02-2.02.04-3.01.12-5.89.56-8.83.97-1.07.14-3.38.56-4.42.66,4.28-.74,8.59-1.57,12.98-1.82h-.36c-2.31.09-4.6.36-6.88.67-.39.06-.78.12-1.18.17l1.18-.17c1.01-.16,1.98-.37,3.09-.53.68-.09,1.48-.1,2.17-.17.56-.04,1.09-.01,1.63.02l1.03-.04c.1-.01.21-.02.32-.03h-.01c-.43-.19-2.85-.27-5.33-.09-2.48.17-4.99.53-5.69.69-1.12.26-2.08.76-3.32,1.02-.41.09-.78.07-1.09.2-.02.05-.18.12-.33.18-.21.04-.41.07-.62.1-.21.02-.43.05-.53.05-.26.02-.47.04-.71.16-.16.06-.33-.11-.31-.37.01-.27.23-.5.13-.46-.65.25-.21,0-.04-.33.02-.02-.14-.2-.07-.33.39-.69.33-1.06.61-2.01.35-1.46.78-1.65.92-3.02.02-.16.53-2.2.53-2.2.6-1.51.7-2.55,1.48-3.61.22-1.49,1.3-3.15,1.86-4.6.56-1.45,1.08-1.93,1.87-3.04.2-.33.31-.6.47-.76.16-.17.23-.74.45-1.06l.08.15c.07-.11.21-.32.28-.42.07-.1.1-.05.13,0,.05.1.11.2.28.05.32-.42.65-.85.97-1.3.21-.48.43-.97.65-1.48-.04-.06-.07-.13-.08-.22l.18-.45c-.07-.16-.21-.22-.26-.33-.34-.23-.28-1.02-.67-1.1-.12,0-.71.75-1.1,1.01-.1.05-.09-.22-.15-.38-.31.47-.46.42-.44.15-.08.11-.17.21-.17.21-.02-.05-.09-.22-.09-.22-.94,1.12-2.06,2.37-2.55,3.71-.11.28-.25.78-.33,1.11-.04.17-.28.46-.35.58.02.27.18.31.26.46-.58.86-1.7,2.81-1.19,2.95-.34.75-.18.99-.48,1.79-.38,1.06-.89,2.4-1.34,3.73-.23.74-.49,1.43-.75,2.13-.09.26-.18.52-.27.76-.47,1.32-.93,2.54-1.38,3.71-.48,1.23-.94,2.41-1.39,3.59-.33.83-.53,1.63-.25,2.36.14.37.47.67.83.8.36.12.74.18,1.17.11.43-.06.86-.13,1.29-.19l.32-.05.24-.05.47-.1c.63-.14,1.28-.29,1.94-.46,5.08-1.35,10.51-2.31,15.06-2.18,2.27.05,4.28.35,5.94.68,1.66.32,2.96.64,3.77.81l2.98.63-1.82-2.56c-.17-.24-.32-.4-.46-.52-.37-.23-.77-.38-1.18-.44Z"/>
  </g>
  <g class="cls-2">
    <path class="cls-1" d="M13.12,37.87c.6-.7,1.21-3.34,1.72-4.42.15-.43.28-.75.4-.98.11-.2-.1.27-.4.98-.11.33-.24.72-.4,1.17.33-.53.66-1.04.92-1.39.08-.29.18-.57.28-.86.43-1.28.83-2.53,1.37-3.75.19-.45.57-1.43.82-1.84-.73,1.81-1.37,3.66-1.94,5.53.02-.05.05-.09.08-.14.34-.97.71-1.93,1.1-2.88.06-.16.12-.33.2-.49l-.2.49c-.15.43-.24.87-.38,1.34-.1.29-.28.6-.37.89-.08.24-.23.43-.35.65l-.15.44s-.01.09-.02.14h0c.45-.29,2.1-3.8,2.26-4.41.13-.49-.01-1.03.15-1.58.05-.18.19-.3.18-.46-.04-.03-.05-.11-.06-.19.11-.36.42-.65.39-.97.02-.22.97-.44.85-.53-.43-.35-.12-.1.11-.52.03-.05-.09-.31-.03-.41.27-.31.16-.48.29-.92.12-.68.48-.67.43-1.35,0-.08.2-1.02.2-1.02.36-.63.34-1.16.92-1.5.02-.73.77-1.33,1.06-1.96.3-.64.67-.76,1.17-1.17.12-.13.17-.25.28-.3.11-.05.07-.37.19-.5l.1.11s.12-.13.16-.17c.04-.04.07,0,.11.03.07.08.14.15.25.1.19-.16.38-.34.55-.53.07-.25.13-.5.19-.75-.05-.05-.1-.1-.12-.16l.02-.24c-.1-.12-.24-.19-.3-.27-.34-.22-.51-.7-.87-.84-.11-.03-.37.31-.63.37-.07,0-.13-.15-.23-.27-.14.21-.28.14-.33-.02-.04.04-.08.09-.08.09-.03-.04-.13-.15-.13-.15-.5.44-1.18.88-1.35,1.52-.05.13-.07.38-.09.54,0,.08-.17.18-.21.23.06.16.21.22.31.34-.35.33-1.07,1.08-.6,1.31-.2.31-.02.5-.19.85-.22.48-.49,1.06-.76,1.64-.13.33-.29.62-.44.93-.05.12-.1.23-.15.33-1.05,2.31-2.17,3.89-2.67,6.35-.5,2.48-1.36,4.93-2.11,6.96-.76,2.03-1.4,3.63-1.58,4.22l.11.39Z"/>
  </g>
</svg>